<svg width="226" height="80" viewBox="0 0 226 80" fill="none" xmlns="http://www.w3.org/2000/svg">
<path d="M2.03027 8.3916H9.33105L13.3301 19.3428L17.3291 8.3916H24.6504V37H18.1289V26.2949C18.1289 23.5879 18.2383 20.8398 18.457 18.0508H17.9648C17.6777 19.4316 17.1104 21.332 16.2627 23.752L13.3301 32.0986L10.418 23.752C9.57031 21.3184 9.00293 19.418 8.71582 18.0508H8.20312C8.43555 20.6348 8.55176 23.3828 8.55176 26.2949V37H2.03027V8.3916ZM29.7158 18.584C31.9443 17.5312 34.0566 17.0049 36.0527 17.0049C37.5293 17.0049 38.8145 17.2646 39.9082 17.7842C41.0156 18.3037 41.9453 19.1445 42.6973 20.3066C43.4492 21.4688 43.8252 22.9521 43.8252 24.7568V31.3193C43.8252 33.2197 44.2148 35.1133 44.9941 37H38.4727C38.2266 36.4531 38.0283 35.8311 37.8779 35.1338C37.2354 35.8994 36.5586 36.4805 35.8477 36.877C35.1504 37.2598 34.4121 37.4512 33.6328 37.4512C32.1152 37.4512 30.7549 36.8496 29.5518 35.6465C28.3623 34.4297 27.7676 32.9531 27.7676 31.2168C27.7676 27.3066 31.1377 24.9209 37.8779 24.0596C37.7275 23.3486 37.3584 22.8154 36.7705 22.46C36.1826 22.1045 35.376 21.9268 34.3506 21.9268C32.8467 21.9268 31.3018 22.542 29.7158 23.7725V18.584ZM37.8779 27.2998C35.1436 27.5459 33.7764 28.5645 33.7764 30.3555C33.7764 31.0254 33.9814 31.5928 34.3916 32.0576C34.8018 32.5225 35.2871 32.7549 35.8477 32.7549C36.5039 32.7549 37.0029 32.4746 37.3447 31.9141C37.7002 31.3535 37.8779 30.6494 37.8779 29.8018V27.2998ZM45.8145 17.4561H52.7666L54.6738 30.458L56.458 17.4561H63.1846L57.9551 37C57.1348 40.0352 56.417 42.0996 55.8018 43.1934C55.1865 44.2871 54.4004 45.1211 53.4434 45.6953C52.5 46.2695 51.4541 46.5566 50.3057 46.5566C49.1709 46.5566 48.0225 46.2832 46.8604 45.7363V40.7324C47.5029 41.1426 48.084 41.3477 48.6035 41.3477C49.4102 41.3477 49.9912 41.0195 50.3467 40.3633C50.7021 39.7207 51.0371 38.7158 51.3516 37.3486L45.8145 17.4561ZM77.7246 10.7295C80.2266 9.69043 82.4756 9.1709 84.4717 9.1709C87.0557 9.1709 89.1338 9.86816 90.7061 11.2627C92.2783 12.6572 93.0645 14.4687 93.0645 16.6973C93.0645 18.4473 92.627 19.9512 91.752 21.209C90.877 22.4531 89.209 24.1006 86.748 26.1514C84.9844 27.6143 83.877 28.6875 83.4258 29.3711C82.9883 30.0547 82.7422 30.8682 82.6875 31.8115H93.5156V37H76.4121V33.7188C76.4121 31.0801 76.8223 29.0293 77.6426 27.5664C78.4629 26.0898 80.2881 24.1621 83.1182 21.7832C84.458 20.6484 85.3262 19.8008 85.7227 19.2402C86.1328 18.666 86.3379 18.0713 86.3379 17.4561C86.3379 16.6494 86.0234 15.9727 85.3945 15.4258C84.7656 14.8652 83.9385 14.585 82.9131 14.585C81.4092 14.585 79.6797 15.3096 77.7246 16.7588V10.7295ZM106.354 9.1709C109.32 9.1709 111.692 10.4082 113.47 12.8828C115.261 15.3438 116.156 18.96 116.156 23.7314C116.156 27.915 115.268 31.251 113.49 33.7393C111.713 36.2139 109.382 37.4512 106.497 37.4512C104.392 37.4512 102.553 36.7881 100.98 35.4619C99.4082 34.1357 98.2939 32.3721 97.6377 30.1709C96.9951 27.9697 96.6738 25.6113 96.6738 23.0957C96.6738 18.8848 97.5762 15.5146 99.3809 12.9854C101.186 10.4424 103.51 9.1709 106.354 9.1709ZM106.456 14.2363C105.376 14.2363 104.562 14.9746 104.016 16.4512C103.482 17.9141 103.216 20.1152 103.216 23.0547C103.216 26.1582 103.482 28.4893 104.016 30.0479C104.549 31.5928 105.349 32.3652 106.415 32.3652C107.468 32.3652 108.254 31.6133 108.773 30.1094C109.293 28.6055 109.553 26.3496 109.553 23.3418C109.553 20.3066 109.293 18.0303 108.773 16.5127C108.268 14.9951 107.495 14.2363 106.456 14.2363ZM123.703 47.0283H120.894C122.042 43.8975 122.705 41.2383 122.883 39.0508C120.914 38.2715 119.93 36.9795 119.93 35.1748C119.93 33.9854 120.285 33.0557 120.996 32.3857C121.707 31.7021 122.548 31.3604 123.519 31.3604C124.681 31.3604 125.604 31.8047 126.287 32.6934C126.971 33.5684 127.312 34.6963 127.312 36.0771C127.312 38.7705 126.109 42.4209 123.703 47.0283ZM143.637 10.7295C146.139 9.69043 148.388 9.1709 150.384 9.1709C152.968 9.1709 155.046 9.86816 156.618 11.2627C158.19 12.6572 158.977 14.4687 158.977 16.6973C158.977 18.4473 158.539 19.9512 157.664 21.209C156.789 22.4531 155.121 24.1006 152.66 26.1514C150.896 27.6143 149.789 28.6875 149.338 29.3711C148.9 30.0547 148.654 30.8682 148.6 31.8115H159.428V37H142.324V33.7188C142.324 31.0801 142.734 29.0293 143.555 27.5664C144.375 26.0898 146.2 24.1621 149.03 21.7832C150.37 20.6484 151.238 19.8008 151.635 19.2402C152.045 18.666 152.25 18.0713 152.25 17.4561C152.25 16.6494 151.936 15.9727 151.307 15.4258C150.678 14.8652 149.851 14.585 148.825 14.585C147.321 14.585 145.592 15.3096 143.637 16.7588V10.7295ZM172.266 9.1709C175.232 9.1709 177.604 10.4082 179.382 12.8828C181.173 15.3438 182.068 18.96 182.068 23.7314C182.068 27.915 181.18 31.251 179.402 33.7393C177.625 36.2139 175.294 37.4512 172.409 37.4512C170.304 37.4512 168.465 36.7881 166.893 35.4619C165.32 34.1357 164.206 32.3721 163.55 30.1709C162.907 27.9697 162.586 25.6113 162.586 23.0957C162.586 18.8848 163.488 15.5146 165.293 12.9854C167.098 10.4424 169.422 9.1709 172.266 9.1709ZM172.368 14.2363C171.288 14.2363 170.475 14.9746 169.928 16.4512C169.395 17.9141 169.128 20.1152 169.128 23.0547C169.128 26.1582 169.395 28.4893 169.928 30.0479C170.461 31.5928 171.261 32.3652 172.327 32.3652C173.38 32.3652 174.166 31.6133 174.686 30.1094C175.205 28.6055 175.465 26.3496 175.465 23.3418C175.465 20.3066 175.205 18.0303 174.686 16.5127C174.18 14.9951 173.407 14.2363 172.368 14.2363ZM186.539 10.7295C189.041 9.69043 191.29 9.1709 193.286 9.1709C195.87 9.1709 197.948 9.86816 199.521 11.2627C201.093 12.6572 201.879 14.4687 201.879 16.6973C201.879 18.4473 201.441 19.9512 200.566 21.209C199.691 22.4531 198.023 24.1006 195.562 26.1514C193.799 27.6143 192.691 28.6875 192.24 29.3711C191.803 30.0547 191.557 30.8682 191.502 31.8115H202.33V37H185.227V33.7188C185.227 31.0801 185.637 29.0293 186.457 27.5664C187.277 26.0898 189.103 24.1621 191.933 21.7832C193.272 20.6484 194.141 19.8008 194.537 19.2402C194.947 18.666 195.152 18.0713 195.152 17.4561C195.152 16.6494 194.838 15.9727 194.209 15.4258C193.58 14.8652 192.753 14.585 191.728 14.585C190.224 14.585 188.494 15.3096 186.539 16.7588V10.7295ZM207.416 10.7705C209.521 9.7041 211.709 9.1709 213.979 9.1709C215.373 9.1709 216.706 9.41699 217.978 9.90918C219.263 10.4014 220.309 11.1807 221.115 12.2471C221.936 13.3135 222.346 14.5645 222.346 16C222.346 17.3945 221.956 18.625 221.177 19.6914C220.411 20.7441 219.249 21.6328 217.69 22.3574C219.687 22.6992 221.184 23.417 222.182 24.5107C223.18 25.5908 223.679 27.0537 223.679 28.8994C223.679 31.374 222.776 33.418 220.972 35.0312C219.167 36.6445 216.822 37.4512 213.938 37.4512C211.887 37.4512 209.713 36.9658 207.416 35.9951V29.9863C209.289 31.3535 211.142 32.0371 212.974 32.0371C214.095 32.0371 215.045 31.6816 215.824 30.9707C216.617 30.2461 217.014 29.3711 217.014 28.3457C217.014 27.3613 216.631 26.5615 215.865 25.9463C215.1 25.3174 214.122 25.0029 212.933 25.0029H210.062V20.2451H211.948C213.042 20.2451 213.944 19.999 214.655 19.5068C215.366 19.0146 215.722 18.3174 215.722 17.415C215.722 16.5811 215.407 15.8975 214.778 15.3643C214.149 14.8174 213.356 14.5439 212.399 14.5439C210.978 14.5439 209.316 15.248 207.416 16.6562V10.7705Z" fill="#45576D"/>
<path d="M7.70898 62.5205C8.86198 63.5947 9.95052 64.1318 10.9746 64.1318C11.4974 64.1318 11.945 63.9635 12.3174 63.627C12.6898 63.2904 12.876 62.8822 12.876 62.4023C12.876 62.0156 12.7435 61.6719 12.4785 61.3711C12.2064 61.0703 11.6979 60.7337 10.9531 60.3613C9.90039 59.8457 9.09831 59.2692 8.54688 58.6318C7.98828 57.9945 7.70898 57.1852 7.70898 56.2041C7.70898 54.958 8.14583 53.9089 9.01953 53.0566C9.89323 52.1973 11.0498 51.7676 12.4893 51.7676C13.4775 51.7676 14.5052 52.0326 15.5723 52.5625V56.1396C14.627 55.2301 13.721 54.7754 12.8545 54.7754C12.4248 54.7754 12.0524 54.9043 11.7373 55.1621C11.4222 55.4199 11.2646 55.7314 11.2646 56.0967C11.2646 56.4548 11.3936 56.7627 11.6514 57.0205C11.902 57.2783 12.3675 57.5576 13.0479 57.8584C14.1722 58.3597 15.0244 58.9326 15.6045 59.5771C16.1846 60.2288 16.4746 61.1061 16.4746 62.209C16.4746 63.5983 15.9733 64.7835 14.9707 65.7646C13.9753 66.7458 12.7578 67.2363 11.3184 67.2363C10.2012 67.2363 8.99805 66.8997 7.70898 66.2266V62.5205ZM18.6768 57.3535C19.8441 56.8021 20.9505 56.5264 21.9961 56.5264C22.7695 56.5264 23.4427 56.6624 24.0156 56.9346C24.5957 57.2067 25.0827 57.6471 25.4766 58.2559C25.8704 58.8646 26.0674 59.6416 26.0674 60.5869V64.0244C26.0674 65.0199 26.2715 66.0117 26.6797 67H23.2637C23.1348 66.7135 23.0309 66.3877 22.9521 66.0225C22.6156 66.4235 22.2611 66.7279 21.8887 66.9355C21.5234 67.1361 21.1367 67.2363 20.7285 67.2363C19.9336 67.2363 19.221 66.9212 18.5908 66.291C17.9678 65.6536 17.6562 64.8802 17.6562 63.9707C17.6562 61.9225 19.4215 60.6729 22.9521 60.2217C22.8734 59.8493 22.68 59.57 22.3721 59.3838C22.0641 59.1976 21.6416 59.1045 21.1045 59.1045C20.3167 59.1045 19.5075 59.4268 18.6768 60.0713V57.3535ZM22.9521 61.9189C21.5199 62.0479 20.8037 62.5814 20.8037 63.5195C20.8037 63.8704 20.9111 64.1676 21.126 64.4111C21.3408 64.6546 21.5951 64.7764 21.8887 64.7764C22.2324 64.7764 22.4938 64.6296 22.6729 64.3359C22.859 64.0423 22.9521 63.6735 22.9521 63.2295V61.9189ZM28.7207 53.6797H31.5566V56.7627H33.2539V59.2656H31.707V63.4551C31.707 64.0996 31.9648 64.4219 32.4805 64.4219C32.7311 64.4219 32.9889 64.3252 33.2539 64.1318V66.9033C32.6237 67.1253 31.9827 67.2363 31.3311 67.2363C30.2712 67.2363 29.4906 66.9857 28.9893 66.4844C28.4951 65.9759 28.248 65.1917 28.248 64.1318V59.2656H26.9912V56.7627H28.4414L28.7207 53.6797ZM34.9404 56.7627H38.335V63.1006C38.335 63.4873 38.3887 63.7809 38.4961 63.9814C38.6107 64.1748 38.7754 64.2715 38.9902 64.2715C39.2409 64.2715 39.4486 64.1605 39.6133 63.9385C39.7852 63.7093 39.8711 63.43 39.8711 63.1006V56.7627H43.3301V67H40.3867L40.0645 65.9795C39.7279 66.3949 39.3662 66.71 38.9795 66.9248C38.5999 67.1325 38.1917 67.2363 37.7549 67.2363C36.9385 67.2363 36.2653 66.9033 35.7354 66.2373C35.2054 65.5713 34.9404 64.7441 34.9404 63.7559V56.7627ZM48.7441 58.1162C48.9518 57.5863 49.2061 57.1888 49.5068 56.9238C49.8076 56.6589 50.1585 56.5264 50.5596 56.5264C50.8174 56.5264 51.0931 56.6051 51.3867 56.7627V59.9854C51.0358 59.8135 50.7171 59.7275 50.4307 59.7275C49.9938 59.7275 49.6322 59.9066 49.3457 60.2646C49.0592 60.6156 48.916 61.0667 48.916 61.6182V67H45.457V56.7627H48.4004L48.7441 58.1162ZM58.0684 52.0146H61.4951V67H58.4766L58.165 65.8076C57.8428 66.2803 57.4919 66.6383 57.1123 66.8818C56.7327 67.1182 56.3245 67.2363 55.8877 67.2363C54.8493 67.2363 54.0042 66.7064 53.3525 65.6465C52.7008 64.5794 52.375 63.3477 52.375 61.9512C52.375 60.4974 52.7223 59.2298 53.417 58.1484C54.1188 57.0671 55.0104 56.5264 56.0918 56.5264C56.4212 56.5264 56.7507 56.598 57.0801 56.7412C57.4095 56.8773 57.7389 57.0885 58.0684 57.375V52.0146ZM58.0684 59.9424C57.918 59.7419 57.764 59.5915 57.6064 59.4912C57.4489 59.391 57.2842 59.3408 57.1123 59.3408C56.7184 59.3408 56.4033 59.5664 56.167 60.0176C55.9307 60.4688 55.8125 61.0667 55.8125 61.8115C55.8125 62.5277 55.9235 63.1149 56.1455 63.5732C56.3747 64.0244 56.6755 64.25 57.0479 64.25C57.3701 64.25 57.6208 64.0853 57.7998 63.7559C57.9788 63.4193 58.0684 63.0182 58.0684 62.5527V59.9424ZM64.0947 57.3535C65.262 56.8021 66.3685 56.5264 67.4141 56.5264C68.1875 56.5264 68.8607 56.6624 69.4336 56.9346C70.0137 57.2067 70.5007 57.6471 70.8945 58.2559C71.2884 58.8646 71.4854 59.6416 71.4854 60.5869V64.0244C71.4854 65.0199 71.6895 66.0117 72.0977 67H68.6816C68.5527 66.7135 68.4489 66.3877 68.3701 66.0225C68.0335 66.4235 67.679 66.7279 67.3066 66.9355C66.9414 67.1361 66.5547 67.2363 66.1465 67.2363C65.3516 67.2363 64.639 66.9212 64.0088 66.291C63.3857 65.6536 63.0742 64.8802 63.0742 63.9707C63.0742 61.9225 64.8395 60.6729 68.3701 60.2217C68.2913 59.8493 68.098 59.57 67.79 59.3838C67.4821 59.1976 67.0596 59.1045 66.5225 59.1045C65.7347 59.1045 64.9255 59.4268 64.0947 60.0713V57.3535ZM68.3701 61.9189C66.9378 62.0479 66.2217 62.5814 66.2217 63.5195C66.2217 63.8704 66.3291 64.1676 66.5439 64.4111C66.7588 64.6546 67.013 64.7764 67.3066 64.7764C67.6504 64.7764 67.9118 64.6296 68.0908 64.3359C68.277 64.0423 68.3701 63.6735 68.3701 63.2295V61.9189ZM72.5273 56.7627H76.1689L77.168 63.5732L78.1025 56.7627H81.626L78.8867 67C78.457 68.5898 78.0811 69.6712 77.7588 70.2441C77.4365 70.8171 77.0247 71.2539 76.5234 71.5547C76.0293 71.8555 75.4814 72.0059 74.8799 72.0059C74.2855 72.0059 73.6839 71.8626 73.0752 71.5762V68.9551C73.4118 69.1699 73.7161 69.2773 73.9883 69.2773C74.4108 69.2773 74.7152 69.1055 74.9014 68.7617C75.0876 68.4251 75.263 67.8988 75.4277 67.1826L72.5273 56.7627ZM93.002 52.4229C94.556 52.4229 95.7985 53.071 96.7295 54.3672C97.6676 55.6562 98.1367 57.5505 98.1367 60.0498C98.1367 62.2412 97.6712 63.9886 96.7402 65.292C95.8092 66.5882 94.5882 67.2363 93.0771 67.2363C91.9743 67.2363 91.0111 66.889 90.1875 66.1943C89.3639 65.4997 88.7803 64.5758 88.4365 63.4229C88.0999 62.2699 87.9316 61.0345 87.9316 59.7168C87.9316 57.5111 88.4043 55.7458 89.3496 54.4209C90.2949 53.0889 91.5124 52.4229 93.002 52.4229ZM93.0557 55.0762C92.4899 55.0762 92.0638 55.4629 91.7773 56.2363C91.498 57.0026 91.3584 58.1556 91.3584 59.6953C91.3584 61.321 91.498 62.542 91.7773 63.3584C92.0566 64.1676 92.4756 64.5723 93.0342 64.5723C93.5856 64.5723 93.9974 64.1784 94.2695 63.3906C94.5417 62.6029 94.6777 61.4212 94.6777 59.8457C94.6777 58.2559 94.5417 57.0635 94.2695 56.2686C94.0046 55.4736 93.5999 55.0762 93.0557 55.0762ZM102.971 58.6426C103.35 58.1628 103.744 57.8047 104.152 57.5684C104.561 57.332 104.979 57.2139 105.409 57.2139C106.412 57.2139 107.26 57.6865 107.955 58.6318C108.657 59.57 109.008 60.6908 109.008 61.9941C109.008 63.4694 108.571 64.7119 107.697 65.7217C106.831 66.7314 105.764 67.2363 104.496 67.2363C103.15 67.2363 101.975 66.624 100.973 65.3994C99.9772 64.1676 99.4795 62.3737 99.4795 60.0176C99.4795 58.6641 99.6872 57.4108 100.103 56.2578C100.518 55.0977 101.162 54.1702 102.036 53.4756C102.91 52.7738 103.959 52.4229 105.184 52.4229C106.036 52.4229 107.003 52.6305 108.084 53.0459V56.2686C107.132 55.5811 106.312 55.2373 105.624 55.2373C104.958 55.2373 104.367 55.5166 103.852 56.0752C103.343 56.6266 103.049 57.4824 102.971 58.6426ZM102.971 61.7041C103.057 62.5706 103.236 63.2331 103.508 63.6914C103.78 64.1426 104.088 64.3682 104.432 64.3682C104.754 64.3682 105.026 64.1605 105.248 63.7451C105.47 63.3298 105.581 62.807 105.581 62.1768C105.581 61.5824 105.477 61.1025 105.27 60.7373C105.069 60.3721 104.793 60.1895 104.442 60.1895C104.192 60.1895 103.945 60.3148 103.701 60.5654C103.458 60.8161 103.214 61.1956 102.971 61.7041ZM113.025 56.5264C113.534 56.5264 113.949 56.6947 114.271 57.0312C114.601 57.3607 114.766 57.7581 114.766 58.2236C114.766 58.6963 114.601 59.1009 114.271 59.4375C113.942 59.7741 113.548 59.9424 113.09 59.9424C112.639 59.9424 112.248 59.7777 111.919 59.4482C111.59 59.1117 111.425 58.707 111.425 58.2344C111.425 57.7402 111.593 57.332 111.93 57.0098C112.266 56.6875 112.632 56.5264 113.025 56.5264ZM113.025 63.8203C113.534 63.8203 113.949 63.9886 114.271 64.3252C114.601 64.6618 114.766 65.0628 114.766 65.5283C114.766 66.001 114.601 66.4056 114.271 66.7422C113.942 67.0716 113.548 67.2363 113.09 67.2363C112.639 67.2363 112.248 67.0716 111.919 66.7422C111.59 66.4056 111.425 66.0046 111.425 65.5391C111.425 65.0521 111.593 64.6439 111.93 64.3145C112.266 63.985 112.632 63.8203 113.025 63.8203ZM121.898 52.4229C123.452 52.4229 124.695 53.071 125.626 54.3672C126.564 55.6562 127.033 57.5505 127.033 60.0498C127.033 62.2412 126.568 63.9886 125.637 65.292C124.706 66.5882 123.485 67.2363 121.974 67.2363C120.871 67.2363 119.908 66.889 119.084 66.1943C118.26 65.4997 117.677 64.5758 117.333 63.4229C116.996 62.2699 116.828 61.0345 116.828 59.7168C116.828 57.5111 117.301 55.7458 118.246 54.4209C119.191 53.0889 120.409 52.4229 121.898 52.4229ZM121.952 55.0762C121.386 55.0762 120.96 55.4629 120.674 56.2363C120.395 57.0026 120.255 58.1556 120.255 59.6953C120.255 61.321 120.395 62.542 120.674 63.3584C120.953 64.1676 121.372 64.5723 121.931 64.5723C122.482 64.5723 122.894 64.1784 123.166 63.3906C123.438 62.6029 123.574 61.4212 123.574 59.8457C123.574 58.2559 123.438 57.0635 123.166 56.2686C122.901 55.4736 122.496 55.0762 121.952 55.0762ZM133.135 52.4229C134.689 52.4229 135.931 53.071 136.862 54.3672C137.8 55.6562 138.27 57.5505 138.27 60.0498C138.27 62.2412 137.804 63.9886 136.873 65.292C135.942 66.5882 134.721 67.2363 133.21 67.2363C132.107 67.2363 131.144 66.889 130.32 66.1943C129.497 65.4997 128.913 64.5758 128.569 63.4229C128.233 62.2699 128.064 61.0345 128.064 59.7168C128.064 57.5111 128.537 55.7458 129.482 54.4209C130.428 53.0889 131.645 52.4229 133.135 52.4229ZM133.188 55.0762C132.623 55.0762 132.197 55.4629 131.91 56.2363C131.631 57.0026 131.491 58.1556 131.491 59.6953C131.491 61.321 131.631 62.542 131.91 63.3584C132.189 64.1676 132.608 64.5723 133.167 64.5723C133.718 64.5723 134.13 64.1784 134.402 63.3906C134.674 62.6029 134.811 61.4212 134.811 59.8457C134.811 58.2559 134.674 57.0635 134.402 56.2686C134.137 55.4736 133.733 55.0762 133.188 55.0762ZM145.37 52.0146H150.709C152.091 52.0146 153.162 52.387 153.921 53.1318C154.68 53.8695 155.06 54.9186 155.06 56.2793C155.06 56.9883 154.934 57.7008 154.684 58.417C154.433 59.126 153.903 59.7454 153.094 60.2754C152.292 60.7982 151.282 61.0596 150.064 61.0596H148.883V67H145.37V52.0146ZM148.883 54.9043V58.1162H149.656C150.229 58.1162 150.684 57.9694 151.021 57.6758C151.364 57.375 151.536 56.9561 151.536 56.4189C151.536 55.9105 151.404 55.5309 151.139 55.2803C150.881 55.0296 150.491 54.9043 149.968 54.9043H148.883ZM156.478 52.0146H160.302L162.396 57.751L164.491 52.0146H168.326V67H164.91V61.3926C164.91 59.9746 164.967 58.5352 165.082 57.0742H164.824C164.674 57.7975 164.377 58.793 163.933 60.0605L162.396 64.4326L160.871 60.0605C160.427 58.7858 160.13 57.7904 159.979 57.0742H159.711C159.833 58.4277 159.894 59.8672 159.894 61.3926V67H156.478V52.0146Z" fill="#45576D"/>
<path d="M183 54.02H188.94C188.96 54.72 189 55.4 189.12 56.28C186.88 61.98 184.3 64.94 180.96 66.98C181.6 67.6 182.28 68.32 182.74 68.98C185.6 66.98 188.5 63.68 189.96 59.82C191.36 63.88 193.48 66.8 195.54 68.92C196 68.4 196.64 67.6 197.48 66.94C194.16 64.08 191.12 59.58 191.2 52.02H183V54.02ZM211.54 61.04H214.5V57.98H217.74V56.08H214.5V55.42C214.66 55.26 214.78 55.1 214.78 54.98C214.78 54.8 214.6 54.68 214.18 54.68H212.16V56.08H208.6V55.42C208.78 55.28 208.9 55.12 208.9 54.98C208.9 54.8 208.72 54.68 208.3 54.68H206.32V56.08H203.9V57.98H206.32V61.04H209.16V62.08H204.5V68.74H206.8V64.04H209.16V69.28H211.54V64.04H214.4V66C214.4 66.42 213.82 66.58 212.54 66.52C212.92 67.36 213.26 68.08 213.5 68.88C215.64 68.7 216.74 68.12 216.74 67.02V62.08H211.54V61.04ZM212.16 59.14H208.6V57.98H212.16V59.14ZM210.48 52.56V51.78C210.6 51.64 210.7 51.48 210.7 51.36C210.7 51.18 210.5 51.04 210 51.04H208.04V52.56H201.26V59.7C201.26 62.96 200.86 65.18 199.82 67.26C200.38 67.64 201.24 68.28 201.98 68.92C202.84 66.96 203.5 64.44 203.5 60.74V54.48H217.68V52.56H210.48Z" fill="#45576D"/>
</svg>
