<svg width="226" height="74" viewBox="0 0 226 74" fill="none" xmlns="http://www.w3.org/2000/svg">
<path d="M2.03027 8.3916H9.33105L13.3301 19.3428L17.3291 8.3916H24.6504V37H18.1289V26.2949C18.1289 23.5879 18.2383 20.8398 18.457 18.0508H17.9648C17.6777 19.4316 17.1104 21.332 16.2627 23.752L13.3301 32.0986L10.418 23.752C9.57031 21.3184 9.00293 19.418 8.71582 18.0508H8.20312C8.43555 20.6348 8.55176 23.3828 8.55176 26.2949V37H2.03027V8.3916ZM29.7158 18.584C31.9443 17.5312 34.0566 17.0049 36.0527 17.0049C37.5293 17.0049 38.8145 17.2646 39.9082 17.7842C41.0156 18.3037 41.9453 19.1445 42.6973 20.3066C43.4492 21.4688 43.8252 22.9521 43.8252 24.7568V31.3193C43.8252 33.2197 44.2148 35.1133 44.9941 37H38.4727C38.2266 36.4531 38.0283 35.8311 37.8779 35.1338C37.2354 35.8994 36.5586 36.4805 35.8477 36.877C35.1504 37.2598 34.4121 37.4512 33.6328 37.4512C32.1152 37.4512 30.7549 36.8496 29.5518 35.6465C28.3623 34.4297 27.7676 32.9531 27.7676 31.2168C27.7676 27.3066 31.1377 24.9209 37.8779 24.0596C37.7275 23.3486 37.3584 22.8154 36.7705 22.46C36.1826 22.1045 35.376 21.9268 34.3506 21.9268C32.8467 21.9268 31.3018 22.542 29.7158 23.7725V18.584ZM37.8779 27.2998C35.1436 27.5459 33.7764 28.5645 33.7764 30.3555C33.7764 31.0254 33.9814 31.5928 34.3916 32.0576C34.8018 32.5225 35.2871 32.7549 35.8477 32.7549C36.5039 32.7549 37.0029 32.4746 37.3447 31.9141C37.7002 31.3535 37.8779 30.6494 37.8779 29.8018V27.2998ZM45.8145 17.4561H52.7666L54.6738 30.458L56.458 17.4561H63.1846L57.9551 37C57.1348 40.0352 56.417 42.0996 55.8018 43.1934C55.1865 44.2871 54.4004 45.1211 53.4434 45.6953C52.5 46.2695 51.4541 46.5566 50.3057 46.5566C49.1709 46.5566 48.0225 46.2832 46.8604 45.7363V40.7324C47.5029 41.1426 48.084 41.3477 48.6035 41.3477C49.4102 41.3477 49.9912 41.0195 50.3467 40.3633C50.7021 39.7207 51.0371 38.7158 51.3516 37.3486L45.8145 17.4561ZM77.7246 10.7295C80.2266 9.69043 82.4756 9.1709 84.4717 9.1709C87.0557 9.1709 89.1338 9.86816 90.7061 11.2627C92.2783 12.6572 93.0645 14.4687 93.0645 16.6973C93.0645 18.4473 92.627 19.9512 91.752 21.209C90.877 22.4531 89.209 24.1006 86.748 26.1514C84.9844 27.6143 83.877 28.6875 83.4258 29.3711C82.9883 30.0547 82.7422 30.8682 82.6875 31.8115H93.5156V37H76.4121V33.7188C76.4121 31.0801 76.8223 29.0293 77.6426 27.5664C78.4629 26.0898 80.2881 24.1621 83.1182 21.7832C84.458 20.6484 85.3262 19.8008 85.7227 19.2402C86.1328 18.666 86.3379 18.0713 86.3379 17.4561C86.3379 16.6494 86.0234 15.9727 85.3945 15.4258C84.7656 14.8652 83.9385 14.585 82.9131 14.585C81.4092 14.585 79.6797 15.3096 77.7246 16.7588V10.7295ZM106.354 9.1709C109.32 9.1709 111.692 10.4082 113.47 12.8828C115.261 15.3438 116.156 18.96 116.156 23.7314C116.156 27.915 115.268 31.251 113.49 33.7393C111.713 36.2139 109.382 37.4512 106.497 37.4512C104.392 37.4512 102.553 36.7881 100.98 35.4619C99.4082 34.1357 98.2939 32.3721 97.6377 30.1709C96.9951 27.9697 96.6738 25.6113 96.6738 23.0957C96.6738 18.8848 97.5762 15.5146 99.3809 12.9854C101.186 10.4424 103.51 9.1709 106.354 9.1709ZM106.456 14.2363C105.376 14.2363 104.562 14.9746 104.016 16.4512C103.482 17.9141 103.216 20.1152 103.216 23.0547C103.216 26.1582 103.482 28.4893 104.016 30.0479C104.549 31.5928 105.349 32.3652 106.415 32.3652C107.468 32.3652 108.254 31.6133 108.773 30.1094C109.293 28.6055 109.553 26.3496 109.553 23.3418C109.553 20.3066 109.293 18.0303 108.773 16.5127C108.268 14.9951 107.495 14.2363 106.456 14.2363ZM123.703 47.0283H120.894C122.042 43.8975 122.705 41.2383 122.883 39.0508C120.914 38.2715 119.93 36.9795 119.93 35.1748C119.93 33.9854 120.285 33.0557 120.996 32.3857C121.707 31.7021 122.548 31.3604 123.519 31.3604C124.681 31.3604 125.604 31.8047 126.287 32.6934C126.971 33.5684 127.312 34.6963 127.312 36.0771C127.312 38.7705 126.109 42.4209 123.703 47.0283ZM143.637 10.7295C146.139 9.69043 148.388 9.1709 150.384 9.1709C152.968 9.1709 155.046 9.86816 156.618 11.2627C158.19 12.6572 158.977 14.4687 158.977 16.6973C158.977 18.4473 158.539 19.9512 157.664 21.209C156.789 22.4531 155.121 24.1006 152.66 26.1514C150.896 27.6143 149.789 28.6875 149.338 29.3711C148.9 30.0547 148.654 30.8682 148.6 31.8115H159.428V37H142.324V33.7188C142.324 31.0801 142.734 29.0293 143.555 27.5664C144.375 26.0898 146.2 24.1621 149.03 21.7832C150.37 20.6484 151.238 19.8008 151.635 19.2402C152.045 18.666 152.25 18.0713 152.25 17.4561C152.25 16.6494 151.936 15.9727 151.307 15.4258C150.678 14.8652 149.851 14.585 148.825 14.585C147.321 14.585 145.592 15.3096 143.637 16.7588V10.7295ZM172.266 9.1709C175.232 9.1709 177.604 10.4082 179.382 12.8828C181.173 15.3438 182.068 18.96 182.068 23.7314C182.068 27.915 181.18 31.251 179.402 33.7393C177.625 36.2139 175.294 37.4512 172.409 37.4512C170.304 37.4512 168.465 36.7881 166.893 35.4619C165.32 34.1357 164.206 32.3721 163.55 30.1709C162.907 27.9697 162.586 25.6113 162.586 23.0957C162.586 18.8848 163.488 15.5146 165.293 12.9854C167.098 10.4424 169.422 9.1709 172.266 9.1709ZM172.368 14.2363C171.288 14.2363 170.475 14.9746 169.928 16.4512C169.395 17.9141 169.128 20.1152 169.128 23.0547C169.128 26.1582 169.395 28.4893 169.928 30.0479C170.461 31.5928 171.261 32.3652 172.327 32.3652C173.38 32.3652 174.166 31.6133 174.686 30.1094C175.205 28.6055 175.465 26.3496 175.465 23.3418C175.465 20.3066 175.205 18.0303 174.686 16.5127C174.18 14.9951 173.407 14.2363 172.368 14.2363ZM186.539 10.7295C189.041 9.69043 191.29 9.1709 193.286 9.1709C195.87 9.1709 197.948 9.86816 199.521 11.2627C201.093 12.6572 201.879 14.4687 201.879 16.6973C201.879 18.4473 201.441 19.9512 200.566 21.209C199.691 22.4531 198.023 24.1006 195.562 26.1514C193.799 27.6143 192.691 28.6875 192.24 29.3711C191.803 30.0547 191.557 30.8682 191.502 31.8115H202.33V37H185.227V33.7188C185.227 31.0801 185.637 29.0293 186.457 27.5664C187.277 26.0898 189.103 24.1621 191.933 21.7832C193.272 20.6484 194.141 19.8008 194.537 19.2402C194.947 18.666 195.152 18.0713 195.152 17.4561C195.152 16.6494 194.838 15.9727 194.209 15.4258C193.58 14.8652 192.753 14.585 191.728 14.585C190.224 14.585 188.494 15.3096 186.539 16.7588V10.7295ZM207.416 10.7705C209.521 9.7041 211.709 9.1709 213.979 9.1709C215.373 9.1709 216.706 9.41699 217.978 9.90918C219.263 10.4014 220.309 11.1807 221.115 12.2471C221.936 13.3135 222.346 14.5645 222.346 16C222.346 17.3945 221.956 18.625 221.177 19.6914C220.411 20.7441 219.249 21.6328 217.69 22.3574C219.687 22.6992 221.184 23.417 222.182 24.5107C223.18 25.5908 223.679 27.0537 223.679 28.8994C223.679 31.374 222.776 33.418 220.972 35.0312C219.167 36.6445 216.822 37.4512 213.938 37.4512C211.887 37.4512 209.713 36.9658 207.416 35.9951V29.9863C209.289 31.3535 211.142 32.0371 212.974 32.0371C214.095 32.0371 215.045 31.6816 215.824 30.9707C216.617 30.2461 217.014 29.3711 217.014 28.3457C217.014 27.3613 216.631 26.5615 215.865 25.9463C215.1 25.3174 214.122 25.0029 212.933 25.0029H210.062V20.2451H211.948C213.042 20.2451 213.944 19.999 214.655 19.5068C215.366 19.0146 215.722 18.3174 215.722 17.415C215.722 16.5811 215.407 15.8975 214.778 15.3643C214.149 14.8174 213.356 14.5439 212.399 14.5439C210.978 14.5439 209.316 15.248 207.416 16.6562V10.7705Z" fill="#45576D"/>
<path d="M32.709 63.5205C33.862 64.5947 34.9505 65.1318 35.9746 65.1318C36.4974 65.1318 36.945 64.9635 37.3174 64.627C37.6898 64.2904 37.876 63.8822 37.876 63.4023C37.876 63.0156 37.7435 62.6719 37.4785 62.3711C37.2064 62.0703 36.6979 61.7337 35.9531 61.3613C34.9004 60.8457 34.0983 60.2692 33.5469 59.6318C32.9883 58.9945 32.709 58.1852 32.709 57.2041C32.709 55.958 33.1458 54.9089 34.0195 54.0566C34.8932 53.1973 36.0498 52.7676 37.4893 52.7676C38.4775 52.7676 39.5052 53.0326 40.5723 53.5625V57.1396C39.627 56.2301 38.721 55.7754 37.8545 55.7754C37.4248 55.7754 37.0524 55.9043 36.7373 56.1621C36.4222 56.4199 36.2646 56.7314 36.2646 57.0967C36.2646 57.4548 36.3936 57.7627 36.6514 58.0205C36.902 58.2783 37.3675 58.5576 38.0479 58.8584C39.1722 59.3597 40.0244 59.9326 40.6045 60.5771C41.1846 61.2288 41.4746 62.1061 41.4746 63.209C41.4746 64.5983 40.9733 65.7835 39.9707 66.7646C38.9753 67.7458 37.7578 68.2363 36.3184 68.2363C35.2012 68.2363 33.998 67.8997 32.709 67.2266V63.5205ZM43.6768 58.3535C44.8441 57.8021 45.9505 57.5264 46.9961 57.5264C47.7695 57.5264 48.4427 57.6624 49.0156 57.9346C49.5957 58.2067 50.0827 58.6471 50.4766 59.2559C50.8704 59.8646 51.0674 60.6416 51.0674 61.5869V65.0244C51.0674 66.0199 51.2715 67.0117 51.6797 68H48.2637C48.1348 67.7135 48.0309 67.3877 47.9521 67.0225C47.6156 67.4235 47.2611 67.7279 46.8887 67.9355C46.5234 68.1361 46.1367 68.2363 45.7285 68.2363C44.9336 68.2363 44.221 67.9212 43.5908 67.291C42.9678 66.6536 42.6562 65.8802 42.6562 64.9707C42.6562 62.9225 44.4215 61.6729 47.9521 61.2217C47.8734 60.8493 47.68 60.57 47.3721 60.3838C47.0641 60.1976 46.6416 60.1045 46.1045 60.1045C45.3167 60.1045 44.5075 60.4268 43.6768 61.0713V58.3535ZM47.9521 62.9189C46.5199 63.0479 45.8037 63.5814 45.8037 64.5195C45.8037 64.8704 45.9111 65.1676 46.126 65.4111C46.3408 65.6546 46.5951 65.7764 46.8887 65.7764C47.2324 65.7764 47.4938 65.6296 47.6729 65.3359C47.859 65.0423 47.9521 64.6735 47.9521 64.2295V62.9189ZM53.7207 54.6797H56.5566V57.7627H58.2539V60.2656H56.707V64.4551C56.707 65.0996 56.9648 65.4219 57.4805 65.4219C57.7311 65.4219 57.9889 65.3252 58.2539 65.1318V67.9033C57.6237 68.1253 56.9827 68.2363 56.3311 68.2363C55.2712 68.2363 54.4906 67.9857 53.9893 67.4844C53.4951 66.9759 53.248 66.1917 53.248 65.1318V60.2656H51.9912V57.7627H53.4414L53.7207 54.6797ZM59.9404 57.7627H63.335V64.1006C63.335 64.4873 63.3887 64.7809 63.4961 64.9814C63.6107 65.1748 63.7754 65.2715 63.9902 65.2715C64.2409 65.2715 64.4486 65.1605 64.6133 64.9385C64.7852 64.7093 64.8711 64.43 64.8711 64.1006V57.7627H68.3301V68H65.3867L65.0645 66.9795C64.7279 67.3949 64.3662 67.71 63.9795 67.9248C63.5999 68.1325 63.1917 68.2363 62.7549 68.2363C61.9385 68.2363 61.2653 67.9033 60.7354 67.2373C60.2054 66.5713 59.9404 65.7441 59.9404 64.7559V57.7627ZM73.7441 59.1162C73.9518 58.5863 74.2061 58.1888 74.5068 57.9238C74.8076 57.6589 75.1585 57.5264 75.5596 57.5264C75.8174 57.5264 76.0931 57.6051 76.3867 57.7627V60.9854C76.0358 60.8135 75.7171 60.7275 75.4307 60.7275C74.9938 60.7275 74.6322 60.9066 74.3457 61.2646C74.0592 61.6156 73.916 62.0667 73.916 62.6182V68H70.457V57.7627H73.4004L73.7441 59.1162ZM83.0684 53.0146H86.4951V68H83.4766L83.165 66.8076C82.8428 67.2803 82.4919 67.6383 82.1123 67.8818C81.7327 68.1182 81.3245 68.2363 80.8877 68.2363C79.8493 68.2363 79.0042 67.7064 78.3525 66.6465C77.7008 65.5794 77.375 64.3477 77.375 62.9512C77.375 61.4974 77.7223 60.2298 78.417 59.1484C79.1188 58.0671 80.0104 57.5264 81.0918 57.5264C81.4212 57.5264 81.7507 57.598 82.0801 57.7412C82.4095 57.8773 82.7389 58.0885 83.0684 58.375V53.0146ZM83.0684 60.9424C82.918 60.7419 82.764 60.5915 82.6064 60.4912C82.4489 60.391 82.2842 60.3408 82.1123 60.3408C81.7184 60.3408 81.4033 60.5664 81.167 61.0176C80.9307 61.4688 80.8125 62.0667 80.8125 62.8115C80.8125 63.5277 80.9235 64.1149 81.1455 64.5732C81.3747 65.0244 81.6755 65.25 82.0479 65.25C82.3701 65.25 82.6208 65.0853 82.7998 64.7559C82.9788 64.4193 83.0684 64.0182 83.0684 63.5527V60.9424ZM89.0947 58.3535C90.262 57.8021 91.3685 57.5264 92.4141 57.5264C93.1875 57.5264 93.8607 57.6624 94.4336 57.9346C95.0137 58.2067 95.5007 58.6471 95.8945 59.2559C96.2884 59.8646 96.4854 60.6416 96.4854 61.5869V65.0244C96.4854 66.0199 96.6895 67.0117 97.0977 68H93.6816C93.5527 67.7135 93.4489 67.3877 93.3701 67.0225C93.0335 67.4235 92.679 67.7279 92.3066 67.9355C91.9414 68.1361 91.5547 68.2363 91.1465 68.2363C90.3516 68.2363 89.639 67.9212 89.0088 67.291C88.3857 66.6536 88.0742 65.8802 88.0742 64.9707C88.0742 62.9225 89.8395 61.6729 93.3701 61.2217C93.2913 60.8493 93.098 60.57 92.79 60.3838C92.4821 60.1976 92.0596 60.1045 91.5225 60.1045C90.7347 60.1045 89.9255 60.4268 89.0947 61.0713V58.3535ZM93.3701 62.9189C91.9378 63.0479 91.2217 63.5814 91.2217 64.5195C91.2217 64.8704 91.3291 65.1676 91.5439 65.4111C91.7588 65.6546 92.013 65.7764 92.3066 65.7764C92.6504 65.7764 92.9118 65.6296 93.0908 65.3359C93.277 65.0423 93.3701 64.6735 93.3701 64.2295V62.9189ZM97.5273 57.7627H101.169L102.168 64.5732L103.103 57.7627H106.626L103.887 68C103.457 69.5898 103.081 70.6712 102.759 71.2441C102.437 71.8171 102.025 72.2539 101.523 72.5547C101.029 72.8555 100.481 73.0059 99.8799 73.0059C99.2855 73.0059 98.6839 72.8626 98.0752 72.5762V69.9551C98.4118 70.1699 98.7161 70.2773 98.9883 70.2773C99.4108 70.2773 99.7152 70.1055 99.9014 69.7617C100.088 69.4251 100.263 68.8988 100.428 68.1826L97.5273 57.7627ZM118.002 53.4229C119.556 53.4229 120.799 54.071 121.729 55.3672C122.668 56.6562 123.137 58.5505 123.137 61.0498C123.137 63.2412 122.671 64.9886 121.74 66.292C120.809 67.5882 119.588 68.2363 118.077 68.2363C116.974 68.2363 116.011 67.889 115.188 67.1943C114.364 66.4997 113.78 65.5758 113.437 64.4229C113.1 63.2699 112.932 62.0345 112.932 60.7168C112.932 58.5111 113.404 56.7458 114.35 55.4209C115.295 54.0889 116.512 53.4229 118.002 53.4229ZM118.056 56.0762C117.49 56.0762 117.064 56.4629 116.777 57.2363C116.498 58.0026 116.358 59.1556 116.358 60.6953C116.358 62.321 116.498 63.542 116.777 64.3584C117.057 65.1676 117.476 65.5723 118.034 65.5723C118.586 65.5723 118.997 65.1784 119.27 64.3906C119.542 63.6029 119.678 62.4212 119.678 60.8457C119.678 59.2559 119.542 58.0635 119.27 57.2686C119.005 56.4736 118.6 56.0762 118.056 56.0762ZM127.971 59.6426C128.35 59.1628 128.744 58.8047 129.152 58.5684C129.561 58.332 129.979 58.2139 130.409 58.2139C131.412 58.2139 132.26 58.6865 132.955 59.6318C133.657 60.57 134.008 61.6908 134.008 62.9941C134.008 64.4694 133.571 65.7119 132.697 66.7217C131.831 67.7314 130.764 68.2363 129.496 68.2363C128.15 68.2363 126.975 67.624 125.973 66.3994C124.977 65.1676 124.479 63.3737 124.479 61.0176C124.479 59.6641 124.687 58.4108 125.103 57.2578C125.518 56.0977 126.162 55.1702 127.036 54.4756C127.91 53.7738 128.959 53.4229 130.184 53.4229C131.036 53.4229 132.003 53.6305 133.084 54.0459V57.2686C132.132 56.5811 131.312 56.2373 130.624 56.2373C129.958 56.2373 129.367 56.5166 128.852 57.0752C128.343 57.6266 128.049 58.4824 127.971 59.6426ZM127.971 62.7041C128.057 63.5706 128.236 64.2331 128.508 64.6914C128.78 65.1426 129.088 65.3682 129.432 65.3682C129.754 65.3682 130.026 65.1605 130.248 64.7451C130.47 64.3298 130.581 63.807 130.581 63.1768C130.581 62.5824 130.477 62.1025 130.27 61.7373C130.069 61.3721 129.793 61.1895 129.442 61.1895C129.192 61.1895 128.945 61.3148 128.701 61.5654C128.458 61.8161 128.214 62.1956 127.971 62.7041ZM138.025 57.5264C138.534 57.5264 138.949 57.6947 139.271 58.0312C139.601 58.3607 139.766 58.7581 139.766 59.2236C139.766 59.6963 139.601 60.1009 139.271 60.4375C138.942 60.7741 138.548 60.9424 138.09 60.9424C137.639 60.9424 137.248 60.7777 136.919 60.4482C136.59 60.1117 136.425 59.707 136.425 59.2344C136.425 58.7402 136.593 58.332 136.93 58.0098C137.266 57.6875 137.632 57.5264 138.025 57.5264ZM138.025 64.8203C138.534 64.8203 138.949 64.9886 139.271 65.3252C139.601 65.6618 139.766 66.0628 139.766 66.5283C139.766 67.001 139.601 67.4056 139.271 67.7422C138.942 68.0716 138.548 68.2363 138.09 68.2363C137.639 68.2363 137.248 68.0716 136.919 67.7422C136.59 67.4056 136.425 67.0046 136.425 66.5391C136.425 66.0521 136.593 65.6439 136.93 65.3145C137.266 64.985 137.632 64.8203 138.025 64.8203ZM146.898 53.4229C148.452 53.4229 149.695 54.071 150.626 55.3672C151.564 56.6562 152.033 58.5505 152.033 61.0498C152.033 63.2412 151.568 64.9886 150.637 66.292C149.706 67.5882 148.485 68.2363 146.974 68.2363C145.871 68.2363 144.908 67.889 144.084 67.1943C143.26 66.4997 142.677 65.5758 142.333 64.4229C141.996 63.2699 141.828 62.0345 141.828 60.7168C141.828 58.5111 142.301 56.7458 143.246 55.4209C144.191 54.0889 145.409 53.4229 146.898 53.4229ZM146.952 56.0762C146.386 56.0762 145.96 56.4629 145.674 57.2363C145.395 58.0026 145.255 59.1556 145.255 60.6953C145.255 62.321 145.395 63.542 145.674 64.3584C145.953 65.1676 146.372 65.5723 146.931 65.5723C147.482 65.5723 147.894 65.1784 148.166 64.3906C148.438 63.6029 148.574 62.4212 148.574 60.8457C148.574 59.2559 148.438 58.0635 148.166 57.2686C147.901 56.4736 147.496 56.0762 146.952 56.0762ZM158.135 53.4229C159.689 53.4229 160.931 54.071 161.862 55.3672C162.8 56.6562 163.27 58.5505 163.27 61.0498C163.27 63.2412 162.804 64.9886 161.873 66.292C160.942 67.5882 159.721 68.2363 158.21 68.2363C157.107 68.2363 156.144 67.889 155.32 67.1943C154.497 66.4997 153.913 65.5758 153.569 64.4229C153.233 63.2699 153.064 62.0345 153.064 60.7168C153.064 58.5111 153.537 56.7458 154.482 55.4209C155.428 54.0889 156.645 53.4229 158.135 53.4229ZM158.188 56.0762C157.623 56.0762 157.197 56.4629 156.91 57.2363C156.631 58.0026 156.491 59.1556 156.491 60.6953C156.491 62.321 156.631 63.542 156.91 64.3584C157.189 65.1676 157.608 65.5723 158.167 65.5723C158.718 65.5723 159.13 65.1784 159.402 64.3906C159.674 63.6029 159.811 62.4212 159.811 60.8457C159.811 59.2559 159.674 58.0635 159.402 57.2686C159.137 56.4736 158.733 56.0762 158.188 56.0762ZM170.37 53.0146H175.709C177.091 53.0146 178.162 53.387 178.921 54.1318C179.68 54.8695 180.06 55.9186 180.06 57.2793C180.06 57.9883 179.934 58.7008 179.684 59.417C179.433 60.126 178.903 60.7454 178.094 61.2754C177.292 61.7982 176.282 62.0596 175.064 62.0596H173.883V68H170.37V53.0146ZM173.883 55.9043V59.1162H174.656C175.229 59.1162 175.684 58.9694 176.021 58.6758C176.364 58.375 176.536 57.9561 176.536 57.4189C176.536 56.9105 176.404 56.5309 176.139 56.2803C175.881 56.0296 175.491 55.9043 174.968 55.9043H173.883ZM181.478 53.0146H185.302L187.396 58.751L189.491 53.0146H193.326V68H189.91V62.3926C189.91 60.9746 189.967 59.5352 190.082 58.0742H189.824C189.674 58.7975 189.377 59.793 188.933 61.0605L187.396 65.4326L185.871 61.0605C185.427 59.7858 185.13 58.7904 184.979 58.0742H184.711C184.833 59.4277 184.894 60.8672 184.894 62.3926V68H181.478V53.0146Z" fill="#45576D"/>
</svg>
