<svg width="110" height="28" viewBox="0 0 110 28" fill="none" xmlns="http://www.w3.org/2000/svg">
<path d="M10.6245 1.47266C11.327 1.40495 11.894 1.84082 12.3257 2.78027C12.4696 3.58431 12.5838 3.9821 12.6685 3.97363C12.7277 3.99902 12.7954 4.00749 12.8716 3.99902C12.9224 3.96517 12.9858 3.94401 13.062 3.93555L12.9604 4.08789H13.062C13.1297 4.07943 13.1636 4.04134 13.1636 3.97363C13.1297 3.9821 13.1128 3.9694 13.1128 3.93555C13.2821 3.88477 13.3794 3.85938 13.4048 3.85938L13.3032 4.01172L13.4048 3.99902C13.4725 3.99902 13.5063 3.96517 13.5063 3.89746C13.4725 3.89746 13.4556 3.88477 13.4556 3.85938L13.5063 3.84668L13.7476 3.87207C13.7476 3.77897 13.828 3.72396 13.9888 3.70703L14.4331 3.66895C15.2118 3.66048 15.6011 3.90169 15.6011 4.39258C15.4233 4.99349 15.1779 5.31087 14.8647 5.34473C14.8647 5.39551 14.1326 5.50553 12.6685 5.6748C12.6431 6.02181 12.5796 6.23763 12.478 6.32227C12.5119 6.38151 12.5288 6.44499 12.5288 6.5127L12.4272 6.52539V5.80176L12.2876 5.81445V5.85254C12.2199 6.4873 12.0887 6.88932 11.894 7.05859C11.6486 7.94727 11.2889 8.54818 10.8149 8.86133L10.7261 8.87402V8.6709C10.6922 8.67936 10.561 8.72591 10.3325 8.81055C9.45231 8.64128 9.01221 8.125 9.01221 7.26172V6.72852C8.95296 6.73698 8.92334 6.72428 8.92334 6.69043C7.94157 7.00358 7.45068 7.27441 7.45068 7.50293C7.45068 7.52832 7.43799 7.54525 7.4126 7.55371H7.36182V7.50293C7.39567 7.44368 7.4126 7.3929 7.4126 7.35059L7.31104 7.3125L7.20947 7.3252L7.15869 7.56641V7.71875C7.07406 7.72721 6.93018 8.08268 6.72705 8.78516C6.43083 9.23372 6.15576 9.46647 5.90186 9.4834C5.90186 9.37337 5.88493 9.29297 5.85107 9.24219L5.74951 9.30566L5.45752 9.33105C4.87354 9.00098 4.58154 8.6709 4.58154 8.34082C4.58154 8.01074 4.54769 7.84993 4.47998 7.8584C2.9904 8.34082 2.19482 8.59049 2.09326 8.60742L2.04248 8.50586C2.09326 8.50586 2.14404 8.43815 2.19482 8.30273H2.09326C1.72933 8.4043 1.45426 8.46354 1.26807 8.48047C0.709473 8.53125 0.383626 8.26465 0.290527 7.68066V7.38867C0.510579 7.27018 0.705241 7.02897 0.874512 6.66504C0.993001 7.01204 1.18766 7.17285 1.4585 7.14746L1.40771 7.38867V7.43945C2.67725 7.20247 3.78174 6.86393 4.72119 6.42383C4.7889 5.94141 4.82275 5.67904 4.82275 5.63672V5.1416C4.82275 4.78613 4.46729 4.31641 3.75635 3.73242V3.68164C3.8833 3.50391 4.09489 3.40234 4.39111 3.37695C4.39111 3.39388 4.35726 3.44466 4.28955 3.5293H4.34033C4.63656 3.50391 4.92855 3.34733 5.21631 3.05957C5.39404 3.01725 5.53792 2.98763 5.64795 2.9707H5.69873C6.39274 2.91146 6.93018 3.28809 7.31104 4.10059C7.37874 4.44759 7.44222 4.93001 7.50146 5.54785L7.60303 5.58594C8.70329 5.22201 9.28727 4.97656 9.35498 4.84961C9.42269 4.57031 9.45654 4.21061 9.45654 3.77051V3.27539C9.45654 3.19922 9.22803 3.12305 8.771 3.04688V2.75488C8.64404 2.76335 8.58057 2.73372 8.58057 2.66602C9.41846 1.91276 10.0998 1.51497 10.6245 1.47266ZM9.55811 1.95508V2.00586L9.64697 1.99316V1.94238L9.55811 1.95508ZM9.11377 2.81836V2.9707L9.35498 2.99609L9.40576 2.9834V2.94531C9.31266 2.95378 9.26611 2.90723 9.26611 2.80566L9.11377 2.81836ZM4.63232 3.2627L4.77197 3.25V3.30078L4.63232 3.31348V3.2627ZM4.58154 3.2627L4.63232 3.36426L4.53076 3.41504H4.47998C4.42074 3.4235 4.39111 3.39388 4.39111 3.32617C4.45882 3.32617 4.5223 3.30501 4.58154 3.2627ZM16.2866 4.39258C17.6831 4.26562 18.6056 4.76921 19.0542 5.90332C19.1558 6.24186 19.2065 6.52962 19.2065 6.7666C19.2065 7.28288 19.1261 7.9388 18.9653 8.73438H19.0161L24.1323 7.16016C24.1662 7.16016 24.1831 7.17708 24.1831 7.21094C24.2339 7.20247 24.9321 7.00781 26.2778 6.62695L26.3286 6.72852V6.7793L26.2271 6.72852V6.7793C26.2271 6.83008 26.2736 6.87663 26.3667 6.91895V6.81738L26.4683 6.80469C26.4683 6.85547 26.519 6.94857 26.6206 7.08398L26.519 7.09668V6.99512L26.4683 7.00781V7.09668C26.4683 7.19824 26.519 7.24479 26.6206 7.23633V7.47754L26.519 7.49023V7.54102C26.519 7.57487 26.536 7.58757 26.5698 7.5791C26.5698 7.8584 26.0493 8.16309 25.0083 8.49316L24.9067 8.45508C24.729 8.50586 24.5851 8.53548 24.4751 8.54395L24.2212 8.56934C24.1958 8.56934 24.1831 8.55241 24.1831 8.51855C22.6766 8.81478 20.9373 9.29297 18.9653 9.95312L18.813 9.96582C18.813 9.89811 18.7834 9.86849 18.7241 9.87695H18.6733L18.0386 10.8164V10.7656C18.2332 10.3848 18.3306 10.1647 18.3306 10.1055L18.229 10.0674C18.1782 10.0674 18.0005 10.3255 17.6958 10.8418L16.3755 12.6699C16.3755 12.7122 16.3289 12.763 16.2358 12.8223H16.1851C16.1851 12.6615 16.1512 12.5853 16.0835 12.5938C16.0581 12.5938 15.9608 12.6657 15.7915 12.8096C15.7238 12.6742 15.6899 12.4202 15.6899 12.0479V11.9971C15.6307 11.8701 15.5841 11.8066 15.5503 11.8066L15.6899 10.626L15.6011 10.4482C15.7196 10.4313 15.8804 9.73307 16.0835 8.35352C16.1851 8.34505 16.2528 7.78646 16.2866 6.67773C16.2866 6.29688 16.2528 5.90755 16.1851 5.50977H16.2358C16.202 5.46745 16.1681 5.29395 16.1343 4.98926L16.2358 4.97656V4.82422L16.0835 4.83691V4.79883C16.0835 4.55339 16.1512 4.41797 16.2866 4.39258ZM12.4272 6.57617V6.71582L12.3257 6.72852V6.67773C12.3426 6.61849 12.3765 6.58464 12.4272 6.57617ZM7.60303 6.90625V6.94434H7.70459C7.76383 6.93587 7.79346 6.89779 7.79346 6.83008V6.79199H7.70459C7.63688 6.80892 7.60303 6.84701 7.60303 6.90625ZM7.26025 6.98242V7.12207H7.31104C7.37874 7.11361 7.4126 7.07975 7.4126 7.02051V6.96973L7.26025 6.98242ZM12.0337 8.84863C13.1593 8.75553 13.811 10.3424 13.9888 13.6094L13.938 13.7109L13.9888 13.9521C13.9888 14.0452 13.9718 14.0918 13.938 14.0918L13.9888 14.5742V14.6758C13.9888 16.3854 13.9253 17.4476 13.7983 17.8623C13.8322 17.9215 13.8491 17.9681 13.8491 18.002L13.6968 18.3066L13.7476 18.6494L13.646 18.7002C13.646 18.6748 13.6291 18.6621 13.5952 18.6621C13.646 18.0104 13.6968 17.6803 13.7476 17.6719L13.6968 17.3418V16.707C13.6968 16.6393 13.6629 16.6097 13.5952 16.6182C13.5275 18.0824 13.4132 18.8229 13.2524 18.8398H13.2144V18.9922L13.354 18.8779C13.2609 19.8936 13.1466 20.4056 13.0112 20.4141V20.4648C13.0112 20.4818 13.0451 20.5283 13.1128 20.6045C12.9689 20.613 12.8208 21.1462 12.6685 22.2041C12.0845 24.5908 11.3566 26.1185 10.4849 26.7871H10.4341V26.7363L10.6753 26.3301H10.6245C10.2521 26.6855 9.87972 26.8802 9.50732 26.9141C8.78792 26.9818 8.13623 26.5205 7.55225 25.5303C6.94287 25.1748 6.63395 24.9717 6.62549 24.9209C6.62549 24.8617 6.67627 24.8278 6.77783 24.8193V24.7178C6.64242 24.5654 6.57471 24.4723 6.57471 24.4385C6.65088 24.2354 6.71859 24.1338 6.77783 24.1338C6.93018 24.2184 7.07406 24.2523 7.20947 24.2354C7.20947 24.1084 7.24333 24.0407 7.31104 24.0322C7.61572 24.5908 8.05583 24.8447 8.63135 24.7939L8.771 24.7812C9.68506 22.3268 10.1421 20.5664 10.1421 19.5C10.3706 18.1543 10.4849 17.0244 10.4849 16.1104V14.3076C10.4849 13.7913 10.4679 12.945 10.4341 11.7686L10.3833 11.7812C10.1886 11.7982 9.61735 11.959 8.66943 12.2637C8.64404 12.2721 8.63135 12.2594 8.63135 12.2256C5.93148 12.9788 4.58154 13.5163 4.58154 13.8379C4.10758 15.2344 3.73519 16.0173 3.46436 16.1865V16.085C3.62516 15.7803 3.70557 15.5771 3.70557 15.4756V15.4375H3.604C3.29932 15.9622 2.9904 16.3812 2.67725 16.6943V16.7832C2.67725 16.8678 2.84229 16.9186 3.17236 16.9355L3.21045 16.834L3.12158 16.8467V16.7451C4.17106 15.9749 5.64795 15.2767 7.55225 14.6504C8.23779 14.8281 8.7583 15.209 9.11377 15.793C9.40999 16.4447 9.55811 17.0329 9.55811 17.5576C9.55811 18.057 9.42692 18.5859 9.16455 19.1445C9.16455 19.1107 9.14762 19.098 9.11377 19.1064C9.24072 18.9287 9.3042 18.514 9.3042 17.8623V17.7734C9.3042 17.7057 9.27458 17.6761 9.21533 17.6846C9.0376 18.8356 8.87256 19.4154 8.72021 19.4238C8.42399 20.3717 7.79346 21.2393 6.82861 22.0264C6.74398 21.9756 6.67627 21.9502 6.62549 21.9502L4.77197 22.8008H4.72119L4.68311 22.7119C4.85238 22.695 4.9624 22.6188 5.01318 22.4834V22.3818L4.68311 22.458L4.58154 22.4199C4.26839 22.5215 3.99333 22.7754 3.75635 23.1816L3.41357 23.4482L3.31201 23.4609C3.2443 23.4694 3.21045 23.4059 3.21045 23.2705L3.12158 23.2832C3.04541 23.2917 2.9777 23.3128 2.91846 23.3467C2.17367 23.0589 1.80127 22.6696 1.80127 22.1787L1.69971 21.4043C1.69971 21.1758 1.76742 20.6045 1.90283 19.6904V19.0938C1.90283 18.4844 1.8055 18.1204 1.61084 18.002H1.56006C1.44157 18.112 1.32731 18.1712 1.21729 18.1797V17.9893C1.10726 17.9977 0.993001 18.057 0.874512 18.167C0.67985 18.1162 0.58252 17.765 0.58252 17.1133C0.878743 16.14 1.46273 14.7562 2.33447 12.9619C2.49528 12.488 2.57568 12.0605 2.57568 11.6797C2.57568 11.5358 2.4318 11.4004 2.14404 11.2734L2.09326 11.2861C2.05941 11.2861 2.04248 11.3031 2.04248 11.3369C1.92399 11.3454 1.80973 11.1253 1.69971 10.6768C1.71663 10.6175 1.75049 10.5837 1.80127 10.5752V10.626C2.09749 10.5667 2.24561 10.4906 2.24561 10.3975L2.88037 10.334C2.90576 10.334 2.91846 10.3171 2.91846 10.2832C3.05387 10.334 3.16813 10.3551 3.26123 10.3467C3.27816 10.3467 3.34587 10.3255 3.46436 10.2832C4.43766 10.4863 4.92432 11.0957 4.92432 12.1113V12.3525L5.01318 12.3398L10.3833 10.1689C10.9588 9.33952 11.509 8.89941 12.0337 8.84863ZM19.5493 9.61035L19.6382 9.59766C19.7059 9.5638 19.7567 9.54264 19.7905 9.53418V9.49609L19.6382 9.50879C19.5789 9.51725 19.5493 9.55111 19.5493 9.61035ZM19.0542 9.75V9.80078L19.1558 9.78809V9.7373L19.0542 9.75ZM21.644 9.91504L21.7837 9.90234C22.3507 9.85156 22.6935 10.3424 22.812 11.375C22.7782 11.7812 22.7316 12.0267 22.6724 12.1113C22.6724 12.1452 22.6851 12.1917 22.7104 12.251L22.6724 12.5557C22.6724 12.5895 22.6851 12.6022 22.7104 12.5938C22.4904 13.7702 22.0841 15.1243 21.4917 16.6562C21.4917 16.7155 22.0926 17.0667 23.2944 17.71C24.2677 18.3363 24.8856 18.8864 25.1479 19.3604H25.1099C24.5682 18.7933 24.1916 18.5182 23.98 18.5352H23.9292C23.9292 18.5521 24.2889 18.9287 25.0083 19.665C25.0083 19.7243 25.1691 20.0163 25.4907 20.541C25.6515 20.888 25.7319 21.1927 25.7319 21.4551C25.7319 22.0391 25.3595 22.5088 24.6147 22.8643H24.564V22.8262L24.6655 22.6104L24.6147 22.623C24.2931 22.75 24.0815 22.8177 23.98 22.8262C23.4891 22.8685 22.6766 22.238 21.5425 20.9346C20.6792 20.139 20.1756 19.7454 20.0317 19.7539C19.6593 20.3717 19.3504 20.7907 19.105 21.0107V20.9092C19.3927 20.5876 19.6551 20.1432 19.8921 19.5762V19.5254L19.7905 19.5381C19.1388 20.5706 18.7326 21.1419 18.5718 21.252C18.6056 21.2435 18.6226 21.2562 18.6226 21.29C18.4702 21.307 18.1274 21.6624 17.5942 22.3564C16.731 23.2451 15.9692 23.7191 15.3091 23.7783L15.2583 23.6895C15.3006 23.681 15.3472 23.626 15.3979 23.5244V23.4736C14.7547 23.6937 14.4162 23.8037 14.3823 23.8037V23.7656L14.5728 23.5498V23.499L14.3315 23.4736C14.2215 23.5498 14.1242 23.5921 14.0396 23.6006V23.4482L14.0903 23.207L14.1792 23.1943C14.1792 23.262 14.1961 23.2917 14.23 23.2832C14.4839 23.2663 14.8732 23.0208 15.3979 22.5469C16.4305 21.8952 17.2303 20.9176 17.7974 19.6143C18.0343 19.0726 18.229 18.5521 18.3813 18.0527C17.425 16.707 16.7733 16.0469 16.4263 16.0723C16.384 16.0807 16.2231 16.0807 15.9438 16.0723C15.9438 16.0977 15.9269 16.1146 15.8931 16.123C15.6307 15.8014 15.4995 15.4206 15.4995 14.9805L15.7407 14.917L15.9438 14.8916C16.2231 14.8747 16.7267 14.9932 17.4546 15.2471C18.1486 15.3825 18.6522 15.5348 18.9653 15.7041C19.0923 15.6956 19.2362 15.1963 19.397 14.2061C19.8879 12.2256 20.2476 10.973 20.4761 10.4482C20.9416 10.152 21.2674 9.99544 21.4536 9.97852V10.0801C21.5806 10.0462 21.644 9.99121 21.644 9.91504ZM21.2505 10.0928V10.1436L21.3521 10.1309V10.0801L21.2505 10.0928ZM2.91846 10.4355V10.4736L3.0708 10.4609V10.4229L2.91846 10.4355ZM13.5063 13.2539V13.4062H13.5444V13.2539H13.5063ZM8.771 16.0596V16.1611L8.82178 16.1484V16.0596H8.771ZM3.46436 16.1865V16.2373C3.46436 16.2796 3.41357 16.3304 3.31201 16.3896L3.26123 16.4023V16.3008C3.31201 16.2923 3.37972 16.2542 3.46436 16.1865ZM3.896 17.6084V17.71C4.6154 18.8949 4.9751 20.0501 4.9751 21.1758L5.01318 21.1631C5.74951 20.9092 6.15576 20.778 6.23193 20.7695V20.668C6.01188 20.194 5.90186 19.6523 5.90186 19.043C5.9611 18.2135 6.07113 17.3926 6.23193 16.5801H6.14307C5.74528 16.6139 4.99626 16.9567 3.896 17.6084ZM13.5952 18.7637L13.646 18.751L13.6968 19.0938L13.5952 19.1445C13.5952 19.1107 13.5783 19.098 13.5444 19.1064C13.5783 18.971 13.5952 18.8568 13.5952 18.7637ZM13.5952 19.2461V19.3477L13.5444 19.5889L13.4556 19.6016V19.5508C13.4725 19.3561 13.519 19.2546 13.5952 19.2461ZM4.63232 20.7188V21.0488C4.63232 21.0827 4.6154 21.1038 4.58154 21.1123C4.6154 21.1715 4.63232 21.2181 4.63232 21.252L4.77197 21.2393V20.7949C4.77197 20.7357 4.74235 20.7061 4.68311 20.7061L4.63232 20.7188ZM14.6235 22.8643L14.6743 22.9531L14.5728 23.0166H14.522C14.4627 23.0251 14.4331 22.9954 14.4331 22.9277C14.5008 22.9193 14.5643 22.8981 14.6235 22.8643ZM14.2808 22.9404H14.3315C14.3993 22.9404 14.4331 22.9701 14.4331 23.0293C14.3231 23.097 14.2257 23.1351 14.1411 23.1436V23.0928C14.1411 23.0505 14.1877 22.9997 14.2808 22.9404ZM39.2651 1.0791C40.4331 1.20605 41.0171 1.46419 41.0171 1.85352C41.1102 2.01432 41.1567 2.23861 41.1567 2.52637V2.62793C41.1567 2.78027 41.0763 3.17806 40.9155 3.82129L40.9663 3.80859C41.4741 3.63932 41.9608 3.27116 42.4263 2.7041C42.6802 2.57715 42.9425 2.47559 43.2134 2.39941C43.9751 2.33171 44.4956 3.21191 44.7749 5.04004C44.8003 5.53092 44.813 5.98372 44.813 6.39844H44.7749L44.813 6.5C44.7199 6.8724 44.6733 7.10514 44.6733 7.19824H44.5718L44.6226 6.85547V6.80469C44.6226 6.69466 44.6056 6.61426 44.5718 6.56348L44.6226 6.27148V5.97949C44.6226 5.81022 44.576 5.71712 44.4829 5.7002C44.4829 5.77637 44.466 5.84408 44.4321 5.90332C44.466 6.06413 44.4829 6.15723 44.4829 6.18262C44.4152 6.61426 44.3644 7.12207 44.3306 7.70605C44.2121 7.72298 44.0978 8.14193 43.9878 8.96289C43.59 10.2663 43.2642 10.9264 43.0103 10.9434L42.9722 10.9561V10.6514C42.769 10.8376 42.5871 10.9518 42.4263 10.9941C42.3332 11.0026 42.092 10.7826 41.7026 10.334H41.6011C40.3739 11.028 39.5275 11.3962 39.062 11.4385L38.8716 11.4512C38.8716 11.4173 39.0324 11.3242 39.354 11.1719V11.0703C38.3468 11.2904 37.8433 11.4469 37.8433 11.54C37.8433 11.8701 37.5851 12.1536 37.0688 12.3906L37.1196 12.1494C37.0858 12.1494 37.0688 12.1325 37.0688 12.0986C37.0011 12.141 36.9504 12.1621 36.9165 12.1621C36.7472 12.179 36.3918 11.9674 35.8501 11.5273C35.4608 10.9518 35.2661 10.1393 35.2661 9.08984C35.3592 8.26888 35.4058 7.77799 35.4058 7.61719V6.63965C35.1011 6.30957 34.8895 6.14876 34.771 6.15723V6.01758L34.9741 5.99219L35.3169 5.91602V5.6748C35.3169 5.6071 35.283 5.57747 35.2153 5.58594L35.1138 5.63672L34.8726 5.61133L34.9233 5.50977C34.8133 5.51823 34.7498 5.45898 34.7329 5.33203H34.6821V5.29395C35.1222 4.76074 35.5116 4.48145 35.8501 4.45605L36.0405 4.44336C36.4383 4.40951 36.9588 4.73535 37.6021 5.4209C38.5415 4.93848 39.0112 4.67188 39.0112 4.62109V4.57031C38.4611 4.56185 38.186 4.45605 38.186 4.25293V4.15137C38.186 3.78743 38.3511 3.28809 38.6812 2.65332C38.4696 2.36556 38.3384 2.09896 38.2876 1.85352C38.2876 1.48112 38.6134 1.22298 39.2651 1.0791ZM40.3823 3.91016V4.0625L40.4331 4.0498C40.4839 4.0498 40.5474 3.9821 40.6235 3.84668V3.69434H40.5728C40.522 3.7028 40.4585 3.77474 40.3823 3.91016ZM44.0894 3.7832V3.93555C44.0978 3.99479 44.1317 4.02441 44.1909 4.02441V3.92285C44.1571 3.86361 44.1401 3.81706 44.1401 3.7832H44.0894ZM40.0903 4.08789V4.17676H40.1411V4.0752L40.0903 4.08789ZM46.7173 4.13867C47.0981 4.26562 47.3097 4.3291 47.3521 4.3291C47.3605 4.26139 47.3944 4.22331 47.4536 4.21484C47.8429 4.18099 48.2492 4.60417 48.6724 5.48438C48.7655 5.76367 48.812 6.00065 48.812 6.19531V6.4873C48.812 6.84277 48.7824 7.2998 48.7231 7.8584H48.7612L49.5483 7.50293L49.7388 7.5791C51.7616 6.52116 52.8364 5.94141 52.9634 5.83984C53.158 5.49284 53.45 5.30241 53.8394 5.26855C54.2118 5.2347 54.453 5.50553 54.563 6.08105V6.42383C54.563 6.66081 54.4191 6.88509 54.1313 7.09668L53.979 7.10938L54.0298 7.00781L53.8901 7.02051C53.8224 7.03743 53.7886 7.07129 53.7886 7.12207C53.8224 7.12207 53.8394 7.139 53.8394 7.17285L53.4966 7.24902L53.0142 7.28711C52.9803 7.29557 52.9634 7.28288 52.9634 7.24902C52.8534 7.34212 52.2017 7.5918 51.0083 7.99805C50.9914 8.05729 50.6994 8.19694 50.1323 8.41699V8.37891C50.0138 8.44661 49.8826 8.48893 49.7388 8.50586C50.035 8.32812 50.1831 8.2181 50.1831 8.17578C50.1154 8.17578 50.0815 8.14616 50.0815 8.08691L49.7896 8.21387V8.1123C49.3241 8.28158 49.049 8.37044 48.9644 8.37891C48.8459 8.09961 48.7655 7.95996 48.7231 7.95996H48.6724C48.6724 8.2985 48.4777 8.86979 48.0884 9.67383L47.9868 9.68652V9.63574C48.1476 9.32259 48.228 9.07292 48.228 8.88672C48.228 8.81901 48.1984 8.78516 48.1392 8.78516C47.8853 9.46224 47.6737 9.80924 47.5044 9.82617C47.0389 10.6217 46.5988 11.083 46.1841 11.21C46.1841 11.0745 46.1502 11.0111 46.0825 11.0195L45.8413 11.083C45.7736 10.973 45.7397 10.8333 45.7397 10.6641C45.7736 10.5456 45.7905 10.4779 45.7905 10.4609C45.6974 10.2324 45.6509 10.1055 45.6509 10.0801L46.2349 6.66504V6.61426C46.2349 5.861 46.1037 5.12467 45.8413 4.40527C46.1375 4.32064 46.2856 4.26139 46.2856 4.22754L46.3745 4.26562H46.4253C46.5184 4.25716 46.6157 4.21484 46.7173 4.13867ZM45.9429 4.49414C45.9513 4.56185 45.981 4.59147 46.0317 4.58301L46.0825 4.39258H46.0317C45.9725 4.40951 45.9429 4.44336 45.9429 4.49414ZM37.9448 6.37305C38.2241 7.28711 38.3849 7.74414 38.4272 7.74414L38.478 7.73145C40.23 6.80046 41.3218 6.31803 41.7534 6.28418C41.8804 5.74251 41.9438 5.13314 41.9438 4.45605H41.8931C39.2863 5.63249 37.9702 6.25456 37.9448 6.32227V6.37305ZM34.5298 5.39551H34.5806C34.5382 5.59017 34.4917 5.69173 34.4409 5.7002L34.2886 5.71289V5.66211C34.2886 5.61979 34.369 5.53092 34.5298 5.39551ZM39.1128 8.70898V8.6582L39.0112 8.70898L38.5796 8.69629V9.14062L38.6304 9.22949L38.5796 9.24219L38.6304 9.33105C38.5627 9.55957 38.5288 9.75846 38.5288 9.92773L38.4272 9.88965L38.478 9.78809C38.4611 9.22949 38.3976 8.95866 38.2876 8.97559H38.2368V9.2168C38.2368 9.38607 38.2537 9.52995 38.2876 9.64844C38.2537 9.82617 38.2368 9.99121 38.2368 10.1436V10.2451C38.2368 10.3044 38.2876 10.3298 38.3892 10.3213C38.8293 10.0251 39.7391 9.60612 41.1187 9.06445L41.2075 9.10254H41.2583C41.3345 9.09408 41.4318 8.51432 41.5503 7.36328L41.4995 7.37598C40.9748 7.74837 40.1792 8.19271 39.1128 8.70898ZM32.8286 8.17578C33.5057 8.11654 34.0558 8.41276 34.479 9.06445C34.5806 9.2168 34.6652 9.45378 34.7329 9.77539C34.6652 9.87695 34.6313 10.0081 34.6313 10.1689L34.5298 10.1816C34.5298 10.1478 34.5467 10.097 34.5806 10.0293C34.5467 9.67383 34.4832 9.50033 34.3901 9.50879H34.3394C34.3732 9.78809 34.3901 9.94889 34.3901 9.99121C34.0685 10.7191 33.7257 11.138 33.3618 11.248V11.3496C33.8527 11.7897 34.0981 12.2721 34.0981 12.7969L34.0474 13.1396C34.0474 13.1735 34.0643 13.1904 34.0981 13.1904L34.0474 13.3936C34.0135 15.5602 33.9966 16.7959 33.9966 17.1006C33.9966 17.3376 33.9331 17.5195 33.8062 17.6465L33.8442 17.9893L33.8062 18.2812L33.7046 18.2939V18.2432L33.7554 18.002H33.7046L33.7554 17.9004C33.7892 17.3333 33.8062 17.0075 33.8062 16.9229C33.7723 16.8636 33.7554 16.8171 33.7554 16.7832H33.6538C33.6538 17.5618 33.5565 17.9596 33.3618 17.9766V18.2686C33.4634 18.2601 33.5142 18.2897 33.5142 18.3574V18.751C33.5142 18.8102 33.4803 18.8441 33.4126 18.8525C33.4465 19.5042 33.4634 19.9909 33.4634 20.3125V20.5029C33.4634 20.8499 33.4126 21.1969 33.311 21.5439C33.311 21.8063 34.6271 22.1956 37.2593 22.7119C40.0353 23.2197 42.3459 23.389 44.1909 23.2197C44.5549 23.1943 45.0246 23.1393 45.6001 23.0547C45.634 23.0547 45.6509 23.0674 45.6509 23.0928L45.9937 23.0166L48.7231 22.7754C48.9178 22.7839 49.0151 22.8262 49.0151 22.9023L49.7896 22.7373C50.145 22.7373 50.3228 22.7712 50.3228 22.8389L50.2339 22.8896L50.0308 22.915C49.9969 22.915 49.98 22.8981 49.98 22.8643L49.8911 22.9277L49.6499 22.9404C49.616 22.9489 49.5991 22.9362 49.5991 22.9023L49.4976 22.9531L49.4468 22.9658L49.3579 22.915V22.9658L49.2563 22.9277L48.5708 22.9912C48.1476 23.0251 47.936 23.0928 47.936 23.1943C49.0024 23.1351 49.8657 23.1055 50.5259 23.1055L51.2495 23.042L51.7446 23.1436C51.7531 23.0843 51.7827 23.0505 51.8335 23.042L52.3794 22.9912C52.3794 23.0251 52.3625 23.0462 52.3286 23.0547L52.5698 23.3213V23.3721C52.5698 24.5231 50.894 25.5133 47.5425 26.3428L47.5044 26.2539V26.2031C47.5975 26.1947 47.6948 26.1227 47.7964 25.9873L47.2124 26.0762L46.5269 26.1396C45.6974 26.2158 44.8341 26.2412 43.937 26.2158C43.9201 26.2243 43.7085 26.2624 43.3022 26.3301C43.1753 26.2708 43.078 26.2454 43.0103 26.2539V26.3047C42.4686 26.347 40.9113 26.0296 38.3384 25.3525C36.8319 24.8532 35.3846 24.1338 33.9966 23.1943C33.8358 23.042 33.7046 22.9701 33.603 22.9785C33.493 23.224 33.2645 23.9941 32.9175 25.2891C32.2743 26.5417 31.6099 27.1976 30.9243 27.2568C30.2642 27.3161 29.7775 26.8548 29.4644 25.873C29.4644 25.1283 29.659 24.5443 30.0483 24.1211C30.0737 24.1211 30.3192 24.375 30.7847 24.8828H30.8735L31.4067 24.3369H31.4575V24.4385C31.5252 24.43 31.5591 24.3919 31.5591 24.3242L31.5083 24.2354C31.6522 23.973 31.7664 23.8164 31.8511 23.7656H31.9019V23.8672C32.0288 23.791 32.0923 23.6852 32.0923 23.5498L31.9526 23.6641V23.6133C32.0119 23.4609 32.0754 23.3721 32.1431 23.3467H32.1938V23.4482C32.2446 23.4398 32.3758 23.2663 32.5874 22.9277C32.5874 22.8939 32.5705 22.877 32.5366 22.877C32.6213 22.75 32.6847 22.5342 32.7271 22.2295L32.6255 22.1914C32.3885 22.3776 32.2108 22.4749 32.0923 22.4834C31.7284 22.4157 31.3898 22.0687 31.0767 21.4424C30.8397 21.4678 30.6746 20.7018 30.5815 19.1445C30.6493 18.0273 30.7804 16.5378 30.9751 14.6758V14.5869C30.0272 15.154 29.2951 15.4587 28.7788 15.501C28.6434 15.5179 28.5122 15.5475 28.3853 15.5898C28.326 15.5052 28.2625 15.1836 28.1948 14.625V14.2441L28.5884 13.7236C28.9438 13.6898 29.1216 13.7702 29.1216 13.9648V14.1553L29.3628 14.1934L29.896 13.9395V14.041L29.8071 14.0537V14.1045L29.8579 14.0918C30.5011 13.7025 30.8228 13.4316 30.8228 13.2793C31.2544 11.9759 31.8722 11.2861 32.6763 11.21L33.019 11.2354L33.0698 11.1338V11.0322C32.5112 10.9984 31.9907 10.7529 31.5083 10.2959C31.0851 10.0081 30.7424 9.69499 30.48 9.35645C30.4377 9.36491 30.3911 9.32259 30.3403 9.22949C30.4757 9.21257 30.6535 9.09831 30.8735 8.88672V8.9375C30.8397 9.00521 30.8228 9.05599 30.8228 9.08984L30.8735 9.07715C30.9751 9.06868 31.0724 8.96289 31.1655 8.75977C31.4871 8.73438 32.0415 8.53971 32.8286 8.17578ZM39.062 8.51855L39.2144 8.49316V8.4043H39.1636C39.0959 8.42122 39.062 8.45931 39.062 8.51855ZM49.4468 9.06445L49.5483 9.05176C50.3608 9.46647 50.9618 10.279 51.3511 11.4893C51.4188 11.8532 51.4526 12.2044 51.4526 12.543C51.4526 12.8138 51.3553 13.5078 51.1606 14.625C52.1255 15.0059 52.8407 15.446 53.3062 15.9453H53.2554L52.6714 15.6152L52.519 15.6279V15.7676C52.6968 15.7507 52.9253 15.958 53.2046 16.3896L53.3062 16.3389C53.3569 16.3304 53.4204 16.3896 53.4966 16.5166C53.4627 16.5758 53.4458 16.6266 53.4458 16.6689C53.6151 16.652 53.8267 17.054 54.0806 17.875C53.8774 18.6113 53.5516 18.9964 53.103 19.0303V18.8398C53.0438 18.8398 52.883 18.8864 52.6206 18.9795C51.5881 18.6579 50.9871 18.3024 50.8179 17.9131C50.3439 17.473 50.035 17.2572 49.8911 17.2656C49.8573 17.3757 49.7896 17.4476 49.688 17.4814V17.3799C49.688 17.3122 49.7388 17.2741 49.8403 17.2656V17.0752L49.688 17.0879C48.3507 18.6029 47.3774 19.3857 46.7681 19.4365C46.7681 19.3773 46.7342 19.3477 46.6665 19.3477C45.9132 19.61 45.4604 19.7497 45.3081 19.7666L45.1558 19.1953L45.3081 18.8906C45.2743 18.8314 45.2573 18.7806 45.2573 18.7383L45.3589 18.6875L45.4985 18.6748C45.5662 18.6748 45.6001 18.7044 45.6001 18.7637C45.4393 18.8229 45.3589 18.8779 45.3589 18.9287L45.4478 18.9668C46.5142 18.5098 47.3944 17.6549 48.0884 16.4023C48.0884 16.3685 48.1688 16.1992 48.3296 15.8945C47.5256 14.7604 46.9416 14.2103 46.5776 14.2441C45.9598 14.2949 45.6509 14.0622 45.6509 13.5459V13.4443C45.6509 13.2074 45.7313 13.055 45.8921 12.9873C46.2306 12.9704 46.7808 13.1143 47.5425 13.4189C48.3127 13.6136 48.8205 13.7025 49.0659 13.6855L49.3071 12.3398V12.1494C49.3071 12.1156 49.2902 12.1029 49.2563 12.1113C49.3241 11.9759 49.3579 11.7939 49.3579 11.5654V10.9814C49.3579 10.8122 49.3241 10.7318 49.2563 10.7402C49.2902 10.5117 49.3241 10.3636 49.3579 10.2959C49.3071 10.2959 49.2563 10.2493 49.2056 10.1562V10.0674C49.2056 10.0335 49.2225 10.0124 49.2563 10.0039L49.2056 9.91504V9.81348C49.2056 9.68652 49.286 9.43685 49.4468 9.06445ZM41.0679 11.3623C41.8634 11.2946 42.4136 11.6374 42.7183 12.3906C42.7267 12.5768 42.7606 12.6699 42.8198 12.6699L43.7466 12.4922L43.6958 12.5938L43.7974 12.5811C44.0174 12.3695 44.3729 12.2425 44.8638 12.2002C45.2108 12.1663 45.4054 12.3271 45.4478 12.6826C45.4478 12.9281 45.0923 13.237 44.3813 13.6094C44.2459 13.7448 44.0809 13.821 43.8862 13.8379C43.8862 13.7786 43.8397 13.7533 43.7466 13.7617C42.6379 14.041 41.1906 14.5404 39.4048 15.2598L39.3159 15.2725V15.3613C39.8745 15.8607 40.1792 16.3219 40.23 16.7451H40.2808C41.0933 16.5166 41.4995 16.3008 41.4995 16.0977C41.4995 15.5729 41.9396 15.1455 42.8198 14.8154C44.0894 14.7054 44.7241 15.7041 44.7241 17.8115C44.6479 18.8271 44.5506 19.3392 44.4321 19.3477L44.4829 19.4492C44.3813 19.6354 44.3306 19.7708 44.3306 19.8555H44.229V19.7539C44.3306 19.6439 44.4152 19.263 44.4829 18.6113C44.4491 18.5605 44.4321 18.4971 44.4321 18.4209L44.3306 18.4336C44.1359 19.5931 43.9582 20.1771 43.7974 20.1855C43.3826 21.3027 42.7479 22.1237 41.8931 22.6484L41.7534 22.6611L41.7915 22.4072L41.7534 22.4199C41.3895 22.5046 41.2075 22.568 41.2075 22.6104L40.9663 22.585C40.8647 22.5934 40.5558 22.6696 40.0396 22.8135C39.7264 22.8389 39.4344 22.75 39.1636 22.5469C39.2905 22.0645 39.3879 21.8105 39.4556 21.7852C39.4894 21.7852 39.6037 21.6624 39.7983 21.417C40.0776 21.654 40.2892 21.764 40.4331 21.7471C41.0679 21.6963 41.491 20.5537 41.7026 18.3193V18.0781C41.7026 18.0273 41.6857 17.7692 41.6519 17.3037C40.6447 17.5999 40.1411 17.8538 40.1411 18.0654C39.9126 19.098 39.4894 20.029 38.8716 20.8584C38.8123 20.8669 38.7319 20.9261 38.6304 21.0361H38.5796C38.9012 20.6299 39.062 20.3379 39.062 20.1602L38.9731 20.1221C38.7785 20.5029 38.4188 20.8923 37.894 21.29C37.2508 21.8994 36.7642 22.2168 36.4341 22.2422L36.3325 22.2549V22.2041C36.3664 22.1364 36.3833 22.0856 36.3833 22.0518L36.3325 22.0645L36.0405 22.1279C35.8459 22.1195 35.7485 22.0814 35.7485 22.0137C35.8501 21.7259 35.9009 21.5736 35.9009 21.5566L35.8501 21.3281C36.2225 20.4225 36.8234 19.1149 37.6528 17.4053C37.8136 16.9736 37.894 16.6901 37.894 16.5547V16.5166C37.7925 16.2373 37.564 15.9961 37.2085 15.793C36.6922 16.0046 36.1759 16.1654 35.6597 16.2754C35.3042 16.2669 34.9953 16.2754 34.7329 16.3008V16.25C34.7583 16.1908 34.771 16.1273 34.771 16.0596V16.0088L34.479 15.6914C34.5213 15.6322 34.5552 15.4671 34.5806 15.1963L34.771 15.1709V15.3232L34.6821 15.3359V15.4756L34.9741 15.4502C34.9741 15.2894 35.118 15.1963 35.4058 15.1709V15.3105L35.3169 15.3232V15.374L35.4565 15.3613C35.9813 15.319 36.6965 15.0609 37.6021 14.5869L37.6528 14.3457L37.7036 14.333C37.7629 14.333 37.7925 14.3796 37.7925 14.4727H37.8433C38.5203 14.2526 39.172 13.9987 39.7983 13.7109V13.5713C39.1636 13.402 38.6938 13.165 38.3892 12.8604C38.3892 12.5049 38.7785 12.1621 39.5571 11.832V11.9336H39.4556V11.9844H39.5571C39.5571 11.7982 40.0607 11.5908 41.0679 11.3623ZM42.4263 12.4541C42.3924 12.5218 42.3755 12.5726 42.3755 12.6064C42.4093 12.6657 42.4263 12.7122 42.4263 12.7461L42.5786 12.7334V12.5938C42.5786 12.543 42.5278 12.4964 42.4263 12.4541ZM29.9468 13.8887H30.0483C30.0483 13.9479 30.0145 13.9818 29.9468 13.9902V13.8887ZM29.4136 14.2314V14.2822L29.5151 14.2695V14.2188L29.4136 14.2314ZM38.8208 15.209L38.9224 15.2471H39.0112C39.6037 15.0863 39.8999 14.9466 39.8999 14.8281V14.7773C39.2313 14.9551 38.8716 15.099 38.8208 15.209ZM38.5796 15.2852C38.5881 15.3444 38.6219 15.374 38.6812 15.374L38.7192 15.3613V15.2725L38.5796 15.2852ZM53.3062 15.9453C53.3569 15.9368 53.4204 15.9961 53.4966 16.123V16.1738H53.4458C53.3696 16.1823 53.3231 16.1061 53.3062 15.9453ZM50.4751 22.7754C50.5174 22.8008 50.6951 22.8177 51.0083 22.8262V22.877L50.7163 22.9023L50.4751 22.8643V22.7754ZM32.2446 23.1436H32.3335C32.3335 23.2028 32.3039 23.2367 32.2446 23.2451V23.1436ZM30.6323 24.9971V25.0479L30.8735 25.0732L30.9243 24.9717H30.8735C30.8397 24.9801 30.8228 24.9971 30.8228 25.0225L30.7339 24.9844L30.6323 24.9971ZM75.5991 1.0918L77.2114 1.38379C77.4738 1.62077 77.6219 1.85352 77.6558 2.08203C77.4442 2.91146 77.0845 3.5293 76.5767 3.93555C75.5526 4.54492 74.9051 4.85807 74.6343 4.875V4.97656C74.8205 5.14583 74.9347 5.3151 74.9771 5.48438C75.104 5.60286 75.214 5.65788 75.3071 5.64941C75.8742 6.35189 76.1831 6.69889 76.2339 6.69043C76.5724 6.52962 76.7671 6.44922 76.8179 6.44922V6.39844L76.729 6.25879V6.20801C76.9491 6.19108 77.3553 6.0599 77.9478 5.81445C77.9816 5.80599 78.0282 5.81445 78.0874 5.83984C78.2397 5.76367 78.6629 5.63249 79.3569 5.44629V5.53516C79.4585 5.52669 79.5093 5.47591 79.5093 5.38281H79.5601V5.47168C79.5601 5.34473 79.9325 5.20085 80.6772 5.04004C80.9396 5.01465 81.1174 5.15853 81.2104 5.47168C81.2104 5.75944 80.7576 6.11068 79.8521 6.52539C79.5474 6.73698 78.5868 7.14323 76.9702 7.74414V7.8457C77.3849 8.81055 78.2482 9.97005 79.5601 11.3242L79.6489 11.3115C79.9282 10.2282 80.4826 9.2041 81.312 8.23926H81.3628C81.0327 8.72168 80.8677 9.06022 80.8677 9.25488C81.13 9.11947 81.3586 8.90788 81.5532 8.62012L81.604 8.70898V9.24219C81.604 9.29297 81.6506 9.33952 81.7437 9.38184L81.8452 9.36914L81.6548 8.07422L81.5024 8.08691L81.4009 8.1377V8.08691C81.4009 7.87533 81.5998 7.66374 81.9976 7.45215L82.0864 7.2998C82.0526 7.24902 82.0356 7.18555 82.0356 7.10938C82.1034 7.10091 82.1372 7.05013 82.1372 6.95703L82.2388 6.94434C82.2811 6.94434 82.3276 6.99089 82.3784 7.08398L81.9468 10.2832L81.896 10.2959L81.8452 9.81348V9.50879C81.8452 9.44954 81.8114 9.41992 81.7437 9.41992L81.6929 9.52148V10.0166C81.6929 10.152 81.6802 10.2832 81.6548 10.4102L81.7437 11.083L81.6548 11.1465C81.7479 11.9167 81.8114 12.543 81.8452 13.0254C81.659 14.2441 81.3035 14.8747 80.7788 14.917L80.8169 14.6758C80.5037 14.8027 80.2795 14.8704 80.144 14.8789C78.7306 14.4049 77.9308 14.0199 77.7446 13.7236C76.1873 12.488 75.0998 10.8926 74.4819 8.9375C74.4819 8.89518 74.4354 8.85286 74.3423 8.81055L73.8979 8.89941H73.8472V8.84863C74.1772 8.764 74.3423 8.68359 74.3423 8.60742V8.51855H74.2915C73.6737 8.68783 73.3647 8.82747 73.3647 8.9375C73.424 8.96289 73.4705 8.97559 73.5044 8.97559C73.606 8.93327 73.6567 8.89518 73.6567 8.86133C73.716 8.89518 73.7625 8.90788 73.7964 8.89941V8.9502C73.7118 8.95866 73.6144 9.00098 73.5044 9.07715C73.9276 9.7373 74.1392 10.0928 74.1392 10.1436C73.3182 10.7783 72.7342 11.2523 72.3872 11.5654V11.5146C73.0389 10.9137 73.3647 10.5286 73.3647 10.3594L72.1968 11.2861C72.1968 11.4385 72.0656 11.5781 71.8032 11.7051C70.4575 13.4824 69.5815 14.388 69.1753 14.4219V14.3838C69.2007 14.333 69.2134 14.2484 69.2134 14.1299C68.951 14.3161 68.7098 14.4176 68.4897 14.4346C67.5418 14.0029 67.0679 13.3639 67.0679 12.5176C67.0679 12.0182 67.4614 10.2113 68.2485 7.09668V6.41113C68.2485 5.81022 68.02 5.39128 67.563 5.1543C67.563 5.05273 67.2033 4.84115 66.4839 4.51953V4.46875H66.5347C67.3049 4.40104 67.728 4.28255 67.8042 4.11328C67.9058 4.19792 68.2655 4.26562 68.8833 4.31641C69.2388 4.49414 69.4461 4.66764 69.5054 4.83691C69.7254 4.81999 69.9074 5.21354 70.0513 6.01758L69.8989 5.92871V6.03027C69.9074 6.08952 69.9412 6.11914 70.0005 6.11914C70.0005 6.08529 70.0174 6.06836 70.0513 6.06836C70.0513 6.15299 70.0809 6.24609 70.1401 6.34766L70.0513 6.39844C70.0513 6.33919 70.0174 6.30957 69.9497 6.30957V6.41113C69.9582 6.47884 69.992 6.50846 70.0513 6.5C70.0513 6.46615 70.0682 6.44922 70.1021 6.44922V6.98242C70.1021 7.07552 70.1317 7.16862 70.1909 7.26172L70.1021 8.9375C70.6183 8.88672 71.9471 8.44238 74.0884 7.60449L73.9995 6.55078C74.0334 5.98372 74.0968 5.53939 74.1899 5.21777C74.1561 5.15007 74.1392 5.09928 74.1392 5.06543C73.9106 5.09082 73.6864 5.14583 73.4663 5.23047L73.2632 5.1416C73.2039 5.18392 73.1405 5.20931 73.0728 5.21777C73.005 5.21777 72.9712 5.18815 72.9712 5.12891C73.5552 5.05273 73.8472 4.95964 73.8472 4.84961L73.7583 4.81152H73.7075C73.589 4.82845 73.4409 4.85807 73.2632 4.90039C73.1701 4.90885 73.1235 4.86654 73.1235 4.77344H73.022C72.9543 4.7819 72.9204 4.83691 72.9204 4.93848L72.7808 4.84961C72.1799 4.93424 71.562 5.03581 70.9272 5.1543C70.8934 5.11198 70.8765 5.01465 70.8765 4.8623L70.686 4.8877L70.5845 4.93848C70.5845 4.87923 70.5506 4.84961 70.4829 4.84961C70.8468 4.16406 71.2531 3.75781 71.7017 3.63086C72.4211 3.16536 73.4621 2.64909 74.8247 2.08203C75.2479 1.87891 75.4595 1.65039 75.4595 1.39648C75.5272 1.38802 75.5737 1.28646 75.5991 1.0918ZM76.8179 1.37109V1.42188L76.9194 1.40918V1.37109H76.8179ZM59.6157 5.9541L59.7173 5.99219H59.7554C59.967 5.9668 60.1785 5.92871 60.3901 5.87793C60.7033 5.88639 60.8979 5.93717 60.9741 6.03027L61.0757 5.9668C61.1349 5.9668 61.2492 6.03874 61.4185 6.18262C61.6724 6.19108 61.9474 6.36035 62.2437 6.69043C62.633 7.31673 62.8276 8.0319 62.8276 8.83594V9.52148C62.8615 9.52148 62.9123 9.53418 62.98 9.55957C63.1577 9.50879 63.3016 9.47917 63.4116 9.4707L63.3735 9.57227L63.4624 9.55957C63.5301 9.55957 63.564 9.52572 63.564 9.45801C63.5301 9.45801 63.5132 9.44108 63.5132 9.40723L63.6655 9.39453V9.49609L63.8052 9.4834C63.8052 9.40723 63.839 9.33952 63.9067 9.28027L64.0083 9.31836H64.0464C64.1649 9.3099 64.2961 9.03906 64.4399 8.50586L64.4907 8.49316C64.5584 8.50163 64.5923 8.53125 64.5923 8.58203C64.4907 8.59049 64.4399 8.62858 64.4399 8.69629L64.5415 8.73438L64.7319 8.72168V8.6709L64.6304 8.68359V8.58203C64.8843 8.72591 65.0324 8.79362 65.0747 8.78516V8.83594L65.0239 8.9375H65.0747C65.0747 8.90365 65.0916 8.88672 65.1255 8.88672L65.2271 9.06445L65.3159 9.01367C65.9676 9.58073 66.2935 10.4271 66.2935 11.5527C66.2596 11.6204 66.2427 11.6712 66.2427 11.7051C66.2427 11.7812 66.2596 11.8447 66.2935 11.8955C66.2935 12.5387 66.0184 14.2399 65.4683 16.999C65.3075 17.7692 65.2271 18.2135 65.2271 18.332C66.5558 18.7637 67.2202 19.2588 67.2202 19.8174C67.2202 20.1136 67.0256 20.4056 66.6362 20.6934H66.5854C66.687 20.5072 66.7378 20.376 66.7378 20.2998C66.4162 20.5537 66.1073 20.7399 65.811 20.8584C65.4048 20.7653 64.9647 20.6426 64.4907 20.4902L64.3892 20.5029C64.1437 21.1715 63.7713 21.7894 63.272 22.3564V22.3057C63.8221 21.4085 64.0972 20.833 64.0972 20.5791H64.0464C63.5809 21.4255 63.1112 22.1491 62.6372 22.75C62.5018 22.7585 62.4045 22.8473 62.3452 23.0166C60.661 24.6247 59.3449 25.471 58.397 25.5557V25.5049L58.5366 25.3018H58.4985C57.8468 25.4033 57.521 25.5133 57.521 25.6318C57.3687 25.5895 57.2544 25.5049 57.1782 25.3779L57.3687 25.1621V25.0605L57.3179 24.9717L57.521 24.8574L57.7622 24.8828C57.8892 24.8574 58.1642 24.557 58.5874 23.9814C59.9077 22.5426 60.7541 21.3493 61.1265 20.4014C61.4819 19.5719 61.6597 19.1149 61.6597 19.0303C60.9064 18.6071 60.1447 18.4294 59.3745 18.4971C59.2476 18.5394 59.0994 18.569 58.9302 18.5859C58.8032 18.569 58.7397 18.4759 58.7397 18.3066V18.167C58.7397 17.3714 59.0487 15.6364 59.6665 12.9619C59.7004 12.9027 59.7469 12.6403 59.8062 12.1748H59.7554C58.9175 12.5133 58.3335 12.6953 58.0034 12.7207C58.0034 12.653 57.9865 12.6234 57.9526 12.6318L56.3022 12.9746L56.2515 12.873C56.3276 12.0098 56.425 11.5485 56.5435 11.4893C56.8312 11.4977 57.009 11.4977 57.0767 11.4893C57.0767 11.4469 57.1909 11.3369 57.4194 11.1592H57.4702L57.4194 11.4131V11.6543C57.4194 11.7135 57.4702 11.7389 57.5718 11.7305C59.2306 11.2057 60.0601 10.8418 60.0601 10.6387C60.1193 10.0547 60.1659 9.31836 60.1997 8.42969C60.1066 7.74414 59.9585 7.27018 59.7554 7.00781H59.8569C59.8569 6.91471 59.8231 6.81738 59.7554 6.71582L59.6665 6.7793H59.6157C59.6157 6.71159 59.5015 6.52539 59.2729 6.2207V6.08105C59.5015 6.03874 59.6157 5.99642 59.6157 5.9541ZM59.4253 6.20801V6.25879C59.4338 6.3265 59.4634 6.35612 59.5142 6.34766C59.5142 6.23763 59.5311 6.15723 59.5649 6.10645H59.5142C59.4549 6.12337 59.4253 6.15723 59.4253 6.20801ZM59.6665 6.83008L59.7554 6.81738V6.86816H59.6665V6.83008ZM59.7173 6.91895L59.8062 6.90625V6.95703L59.7173 6.96973V6.91895ZM70.4321 9.82617L70.3433 9.78809L70.0513 9.81348V10.7402L70.1401 10.7275C70.6733 10.3382 71.6678 9.78385 73.1235 9.06445V9.01367L72.9712 9.02637C72.0148 9.36491 71.1685 9.63151 70.4321 9.82617ZM73.5552 9.75V9.90234L73.7075 9.88965V9.83887C73.7075 9.77116 73.6737 9.74154 73.606 9.75H73.5552ZM71.2192 10.4482V10.499L71.3208 10.4863C71.38 10.444 71.4266 10.4229 71.4604 10.4229V10.3721L71.3589 10.3848C71.2996 10.4186 71.2531 10.4398 71.2192 10.4482ZM81.9976 10.3848V10.7148C81.9299 10.7233 81.896 10.6937 81.896 10.626V10.4863C81.9045 10.4186 81.9383 10.3848 81.9976 10.3848ZM60.8345 17.0625V17.1006L61.0249 17.0879L61.3677 17.1514C61.4354 17.1175 61.4862 17.1006 61.52 17.1006L61.6089 17.2275L61.8628 17.1641C61.9644 17.2318 62.1082 17.2656 62.2944 17.2656C62.4299 17.2572 62.7557 15.9284 63.272 13.2793C63.5936 11.9421 63.7713 11.1169 63.8052 10.8037L63.7163 10.7656C62.9292 10.9772 62.5356 11.32 62.5356 11.7939C62.5356 12.3187 61.9686 14.0749 60.8345 17.0625ZM80.0933 11.083L80.0425 11.3242C80.1102 11.3242 80.144 11.2904 80.144 11.2227V11.083H80.0933ZM76.437 13.8887C77.3088 13.8125 78.0705 14.5404 78.7222 16.0723C78.756 16.123 78.8237 16.377 78.9253 16.834C78.8914 17.4434 78.8745 17.8835 78.8745 18.1543C78.8068 18.2897 78.7729 18.569 78.7729 18.9922L78.7222 19.0049C78.7222 18.4971 78.6925 18.0273 78.6333 17.5957L78.5317 17.6084C78.4979 19.2334 78.481 20.1771 78.481 20.4395C78.4048 20.4479 78.2905 21.2223 78.1382 22.7627C77.9689 23.5667 77.6938 24.1888 77.313 24.6289L77.2114 24.6924H77.1606L77.2114 24.4512V24.3496C76.9575 24.6035 76.729 24.7389 76.5259 24.7559C76.3397 24.7728 76.1323 24.7093 75.9038 24.5654H75.853C74.6089 24.8024 73.4536 25.0521 72.3872 25.3145L72.2856 25.2637C72.1925 25.306 72.146 25.3441 72.146 25.3779L71.9048 25.3525L71.7017 25.3652V25.2764L71.7524 25.2637C72.2095 25.2044 72.438 25.1198 72.438 25.0098V24.959L72.146 24.9844C72.0698 24.9928 72.0021 25.0182 71.9429 25.0605C71.8498 25.069 71.8032 25.0225 71.8032 24.9209C71.2192 24.9717 70.9272 25.1748 70.9272 25.5303C70.6733 25.8773 70.5252 26.055 70.4829 26.0635H70.4321V25.8223L70.3433 25.835C70.2586 25.9027 70.2078 25.9365 70.1909 25.9365L70.1401 25.9492C69.8608 25.9661 69.5054 25.6361 69.0737 24.959C68.8452 24.3919 68.731 23.444 68.731 22.1152V21.5312C68.7987 20.7357 68.8325 20.2956 68.8325 20.2109V17.8242C68.8325 17.6888 68.8156 17.5111 68.7817 17.291C68.8156 17.2233 68.8325 17.1725 68.8325 17.1387C68.8325 16.7832 68.604 16.5081 68.147 16.3135C68.1131 16.3812 68.0962 16.432 68.0962 16.4658L67.9565 16.4785C67.8888 16.487 67.855 16.4574 67.855 16.3896C68.5659 16.1696 68.9214 15.9453 68.9214 15.7168H68.9722L69.0737 15.7549L69.0229 15.6533C69.2345 15.3148 69.5096 15.1286 69.8481 15.0947C70.1021 15.0778 70.4279 15.374 70.8257 15.9834C70.9611 16.4912 71.0754 16.7409 71.1685 16.7324C73.479 15.6914 74.8289 15.154 75.2183 15.1201C75.2183 14.7985 75.5272 14.4303 76.145 14.0156C76.3397 13.9733 76.437 13.931 76.437 13.8887ZM77.897 15.3232V15.374C77.9054 15.4333 77.9393 15.4629 77.9985 15.4629V15.4121C77.9985 15.3444 77.9647 15.3148 77.897 15.3232ZM60.7329 16.085C60.7329 16.1611 60.716 16.2288 60.6821 16.2881V16.3389H60.7329C60.7329 16.305 60.7498 16.2542 60.7837 16.1865V16.085H60.7329ZM71.4097 17.8369C71.562 19.0303 71.6763 19.6227 71.7524 19.6143L71.8032 19.6016L74.7231 18.5225V18.5732C75.214 18.4801 75.4595 18.3109 75.4595 18.0654L75.561 16.6943C75.5272 16.5758 75.5103 16.4489 75.5103 16.3135L75.3071 16.3262C73.8599 16.5801 72.5776 17.0667 71.4604 17.7861C71.4604 17.82 71.4435 17.8369 71.4097 17.8369ZM60.6821 17.4053C61.3338 17.4476 61.8374 17.5026 62.1929 17.5703C62.2606 17.4857 62.2944 17.4349 62.2944 17.418C62.2944 17.3249 61.9559 17.2741 61.2788 17.2656V17.2148C60.881 17.2741 60.6821 17.3376 60.6821 17.4053ZM64.8335 18.0273V18.1162H64.8843V18.0146L64.8335 18.0273ZM78.7729 19.1953L78.8237 19.1826V19.627H78.7729C78.7052 19.6354 78.6714 19.6058 78.6714 19.5381L78.7729 19.1953ZM72.2476 21.0742V21.0361C72.0275 21.1462 71.8963 21.2054 71.854 21.2139V21.8486C71.7863 22.0856 71.7524 22.2168 71.7524 22.2422V22.877L71.6509 22.8896L71.7017 22.6357V22.5469C71.7017 21.9544 71.6551 21.6624 71.562 21.6709L71.5112 21.6836V21.7344C71.5112 22.7077 71.4774 23.1943 71.4097 23.1943C71.3335 23.2028 71.2869 23.4694 71.27 23.9941L71.3589 23.9814C72.1121 23.6598 73.2209 23.3382 74.6851 23.0166C74.7443 23.042 74.7909 23.0505 74.8247 23.042L75.0151 22.9277L74.9771 22.6992V22.4072C74.9771 21.8317 75.0575 20.9769 75.2183 19.8428L75.1675 19.8555C74.9644 19.8724 73.991 20.2786 72.2476 21.0742ZM73.3647 20.1094V20.1475H73.4663V20.0967L73.3647 20.1094ZM71.8032 20.9727V21.0742L71.854 21.0615C72.2772 20.9261 72.4888 20.8118 72.4888 20.7188L72.438 20.6299C72.0148 20.7907 71.8032 20.9049 71.8032 20.9727ZM63.2212 22.3564H63.272V22.4072C63.272 22.4326 63.1916 22.5173 63.0308 22.6611V22.5723C63.0308 22.5215 63.0942 22.4495 63.2212 22.3564ZM96.8003 0.62207C97.6128 0.647461 98.1799 0.761719 98.5015 0.964844C99.314 1.55729 99.7202 2.1709 99.7202 2.80566L99.6187 2.95801V3.00879C99.6187 3.08496 99.6356 3.14844 99.6694 3.19922C99.6271 3.33464 99.5806 3.40234 99.5298 3.40234C99.5298 3.36849 99.5129 3.35579 99.479 3.36426C99.5467 3.25423 99.5806 3.15267 99.5806 3.05957V2.7168C99.5806 2.67448 99.5298 2.63216 99.4282 2.58984H99.3774V2.93262C99.3774 3.16113 99.1659 3.50391 98.7427 3.96094V4.0625L98.7935 4.0498C101.561 3.48275 103.106 3.18652 103.427 3.16113C103.486 3.16113 103.618 3.18229 103.821 3.22461C103.821 3.19076 103.838 3.17383 103.872 3.17383C103.872 3.20768 103.884 3.22038 103.91 3.21191C103.91 3.16113 103.994 3.10612 104.164 3.04688C104.24 3.10612 104.451 3.12305 104.798 3.09766V3.13574C104.536 3.16113 104.062 3.2373 103.376 3.36426C103.385 3.4235 103.419 3.45312 103.478 3.45312L103.719 3.42773C103.889 3.41081 104.037 3.41504 104.164 3.44043L104.405 3.36426C104.98 3.34733 105.467 3.32194 105.865 3.28809L106.208 3.2627C106.208 3.38965 106.563 3.44043 107.274 3.41504C108.222 3.55046 108.696 3.88053 108.696 4.40527C108.696 4.98926 108.027 5.72982 106.69 6.62695L106.639 6.63965L106.792 6.33496H106.69L105.763 6.95703C105.213 6.8724 104.938 6.66927 104.938 6.34766C105.124 5.55208 105.382 4.97656 105.712 4.62109V4.46875C104.773 4.35872 103.863 4.3418 102.983 4.41797L102.653 4.44336C100.672 4.62109 97.3885 5.41243 92.8013 6.81738C92.5897 6.90202 92.12 7.02474 91.3921 7.18555V7.14746L91.1382 7.26172L91.0493 7.22363C90.88 7.2321 90.7954 7.27018 90.7954 7.33789L90.7065 7.2998C89.4709 7.52832 88.853 7.68066 88.853 7.75684C88.9207 7.90072 88.9673 8.2054 88.9927 8.6709C88.9927 9.08561 88.8657 9.58496 88.6118 10.1689H88.5103C88.6372 9.87272 88.7007 9.63997 88.7007 9.4707V9.33105L88.561 9.34375C88.4087 10.0039 88.231 10.3424 88.0278 10.3594C87.5285 11.0534 87.1222 11.4131 86.8091 11.4385L86.7075 11.4512C86.7075 11.2904 86.6906 11.21 86.6567 11.21L86.4155 11.2861C85.6707 11.1846 85.2983 11.0703 85.2983 10.9434C85.1968 10.7826 85.146 10.5921 85.146 10.3721C85.146 9.99121 85.4888 9.21257 86.1743 8.03613C86.3351 7.62142 86.4155 7.35482 86.4155 7.23633V7.08398C86.4155 6.83008 86.3647 6.5931 86.2632 6.37305C86.3309 6.23763 86.3647 6.11914 86.3647 6.01758C86.3224 6.02604 86.242 5.9541 86.1235 5.80176C86.132 5.73405 86.1616 5.69596 86.2124 5.6875C86.314 5.67904 86.3647 5.74251 86.3647 5.87793L86.5171 5.86523V5.81445L86.4155 5.82715V5.72559L86.7583 5.73828L86.9487 5.6748C87.4735 5.74251 88.0109 6.08529 88.561 6.70312C90.55 6.14453 91.7349 5.84831 92.1157 5.81445C92.7674 5.5013 94.5405 5.01888 97.4351 4.36719V4.31641C96.8511 4.36719 96.4914 4.13867 96.356 3.63086C96.1274 2.54753 95.9159 2.01432 95.7212 2.03125C95.4757 1.72656 95.2642 1.58268 95.0864 1.59961V1.49805C95.2642 1.17643 95.8354 0.88444 96.8003 0.62207ZM104.887 3.08496L105.281 3.04688V3.09766C105.247 3.09766 105.196 3.11882 105.128 3.16113V3.11035L105.04 3.17383H104.989C104.921 3.18229 104.887 3.15267 104.887 3.08496ZM102.399 5.44629L102.653 5.4209C103.745 5.3278 104.409 6.03451 104.646 7.54102C104.646 7.57487 104.629 7.62565 104.595 7.69336L104.697 8.36621C104.629 8.50163 104.595 8.68359 104.595 8.91211H104.544L104.456 8.87402L104.494 8.62012V8.18848C104.494 8.15462 104.481 8.1377 104.456 8.1377C104.481 8.07845 104.494 8.0319 104.494 7.99805C104.443 7.2194 104.333 6.83854 104.164 6.85547V6.94434C104.257 7.38444 104.32 7.84993 104.354 8.34082C104.286 8.45931 104.252 8.56087 104.252 8.64551V9.08984L104.164 9.24219L104.202 9.53418C104.083 9.54264 103.956 9.97428 103.821 10.8291C103.457 11.9886 102.97 12.8773 102.361 13.4951L102.259 13.5459L102.208 13.5586L102.259 13.3047L102.208 13.3174L101.472 13.7109C101.311 13.694 101.117 13.6136 100.888 13.4697C99.1955 14.2061 97.9937 14.6038 97.2827 14.6631V14.5742L97.3335 14.5615C97.9513 14.443 98.2603 14.3203 98.2603 14.1934V14.1426C98.1756 14.151 97.7694 14.2526 97.0415 14.4473L96.9907 14.3584L95.7212 14.6123V14.752C96.2798 15.446 96.5591 16.1865 96.5591 16.9736C96.5252 17.0752 96.5083 17.2402 96.5083 17.4688L96.5972 17.5068C96.5972 17.473 96.6141 17.4561 96.6479 17.4561V17.5068C96.6818 17.4984 96.6987 17.4814 96.6987 17.4561C96.7664 17.4476 96.8003 17.4603 96.8003 17.4941L98.5522 17.2402C98.7892 16.4701 99.0643 16.0723 99.3774 16.0469V16.1484L99.4282 16.1357C99.5382 16.0003 99.6864 15.9242 99.8726 15.9072C100.55 16.0088 100.888 16.3177 100.888 16.834C101.151 16.8171 101.946 16.7155 103.275 16.5293V16.5801L103.529 16.4658C103.605 16.4574 103.732 16.4616 103.91 16.4785C105.281 16.2923 105.966 16.1654 105.966 16.0977C106.136 16.1146 106.279 16.1188 106.398 16.1104C106.559 16.1019 106.639 16.0638 106.639 15.9961L106.741 16.0342L106.931 16.0215C107.024 16.013 107.126 15.9707 107.236 15.8945V15.9961L107.185 16.0977L107.325 16.085C107.392 16.0765 107.426 16.0384 107.426 15.9707C107.392 15.9792 107.375 15.9665 107.375 15.9326C107.477 15.9242 107.591 15.8988 107.718 15.8564V15.9072L107.667 16.0088L107.82 15.9961C107.879 15.9876 107.909 15.9495 107.909 15.8818C107.875 15.8903 107.858 15.8776 107.858 15.8438L108.01 15.8311V15.9199H108.112C108.171 15.9115 108.201 15.8734 108.201 15.8057C108.167 15.8141 108.15 15.8014 108.15 15.7676L108.353 15.7422C108.869 15.6999 109.195 16.013 109.331 16.6816C109.331 17.291 108.954 17.6846 108.201 17.8623C107.981 17.8792 107.608 17.765 107.083 17.5195C106.982 17.5618 106.931 17.5957 106.931 17.6211C106.279 17.6211 105.387 17.6676 104.252 17.7607C104.21 17.7692 104.049 17.7692 103.77 17.7607V17.8115C103.736 17.8115 103.719 17.7946 103.719 17.7607C101.857 17.9215 100.897 18.1204 100.837 18.3574C100.837 18.679 100.579 19.4831 100.063 20.7695C101.222 21.0404 102.115 21.3324 102.742 21.6455L102.653 21.6582C101.62 21.3281 100.952 21.1758 100.647 21.2012V21.3027C101.79 21.5482 102.361 21.7725 102.361 21.9756L102.5 21.9629V21.8613C103.245 22.0983 103.618 22.2803 103.618 22.4072C105.861 23.4059 106.982 24.3792 106.982 25.3271C106.982 25.7588 106.741 26.1523 106.258 26.5078L106.208 26.5205V26.4697L106.398 26.1016L106.347 26.1143C105.907 26.4782 105.552 26.6729 105.281 26.6982L103.135 25.6572C102.958 25.6742 102.031 25.141 100.355 24.0576C99.7795 23.6937 99.242 23.3805 98.7427 23.1182L98.6538 23.1309C97.4689 24.5273 96.6395 25.3145 96.1655 25.4922V25.4414C96.8934 24.8913 97.3166 24.4639 97.4351 24.1592C97.4012 24.1676 97.3843 24.1549 97.3843 24.1211C96.7241 24.7389 96.1401 25.2129 95.6323 25.543V25.4922C94.3289 26.1862 93.1567 26.5798 92.1157 26.6729L92.0649 26.584L92.1665 26.4316V26.3809L91.9253 26.3555L91.6841 26.3682L90.313 26.8379C90.313 26.7448 90.2495 26.5374 90.1226 26.2158C90.2072 26.2074 90.2707 26.055 90.313 25.7588C90.5415 25.8011 90.6727 25.8223 90.7065 25.8223H90.7573C91.7983 25.5007 93.3895 24.2861 95.5308 22.1787L95.5815 22.0771C95.5138 21.9248 95.1076 21.8656 94.3628 21.8994L93.5757 21.9629C93.271 21.9883 92.4924 22.2337 91.2397 22.6992L91.189 22.7119V22.6611C91.4429 21.7386 91.866 20.7611 92.4585 19.7285V19.5762C90.6812 19.957 89.5259 20.1729 88.9927 20.2236V20.0713C89.1281 20.0628 89.1958 20.0078 89.1958 19.9062C88.7049 19.9824 88.3452 20.0332 88.1167 20.0586L87.5835 20.0967C87.4481 19.9867 87.3338 19.8047 87.2407 19.5508C87.6808 19.5085 88.2013 19.3477 88.8022 19.0684C88.8361 19.0684 88.8869 19.0472 88.9546 19.0049V19.0557C89.4032 18.8864 90.8293 18.5479 93.2329 18.04C93.326 18.04 93.4741 17.5915 93.6772 16.6943H93.6265C93.8127 15.8903 93.9777 15.374 94.1216 15.1455V15.0947C94.1216 15.027 94.0877 14.9974 94.02 15.0059L93.3345 15.209C93.2752 15.1836 93.2287 15.1709 93.1948 15.1709L92.8013 15.4502H92.7505L92.6489 15.4121L92.6997 15.3105V15.2217H92.6489L92.3569 15.2979C91.5106 15.0863 91.0874 14.8451 91.0874 14.5742C90.8674 14.0833 90.7573 13.347 90.7573 12.3652V12.1748C90.7573 11.8955 90.77 11.5993 90.7954 11.2861C90.7954 10.4144 90.5711 9.6696 90.1226 9.05176C90.241 8.65397 90.3553 8.45085 90.4653 8.44238L90.5542 8.48047L90.5034 8.3916C90.7912 8.03613 91.2144 7.83724 91.7729 7.79492C92.2469 7.7526 92.8182 8.17155 93.4868 9.05176L94.0708 8.86133V8.9502H94.1216C94.1216 8.73861 95.1118 8.3916 97.0923 7.90918C97.6932 7.6722 98.8146 7.36328 100.457 6.98242C100.897 6.03451 101.544 5.52246 102.399 5.44629ZM101.917 5.92871V5.97949L102.056 5.9668C102.124 5.95833 102.158 5.92025 102.158 5.85254L102.056 5.86523C101.997 5.90755 101.95 5.92871 101.917 5.92871ZM86.4663 6.34766V6.5C86.5256 6.49154 86.5552 6.45768 86.5552 6.39844V6.34766H86.4663ZM90.9985 8.04883V8.09961L91.0874 8.08691C91.1551 8.05306 91.2059 8.03613 91.2397 8.03613V7.98535H91.1382C91.0789 8.02767 91.0324 8.04883 90.9985 8.04883ZM93.8677 10.042C94.0369 10.8714 94.1851 11.2819 94.312 11.2734C94.3289 11.2734 95.9709 10.8545 99.2378 10.0166C99.2716 10.0081 99.2886 10.0208 99.2886 10.0547C99.9995 9.92773 100.355 9.8304 100.355 9.7627L100.457 9.81348C100.778 9.77962 100.939 9.24219 100.939 8.20117V8.16309C100.939 8.1123 100.892 8.06576 100.799 8.02344C99.4536 8.14193 97.1431 8.81478 93.8677 10.042ZM88.5103 8.31543V8.46777L88.6118 8.45508V8.4043C88.6118 8.34505 88.578 8.31543 88.5103 8.31543ZM93.6772 10.9814V11.083C93.6857 11.1507 93.7196 11.1803 93.7788 11.1719V11.0703C93.7788 11.0111 93.745 10.9814 93.6772 10.9814ZM96.9907 12.2129C96.9315 12.179 96.8849 12.1663 96.8511 12.1748C96.7326 12.2171 96.6649 12.2383 96.6479 12.2383C96.5972 12.2129 96.5337 12.2002 96.4575 12.2002C96.4575 12.234 96.4406 12.2552 96.4067 12.2637V12.2129L96.4575 12.1113L96.5591 12.1494C97.0754 12.014 97.3335 11.9082 97.3335 11.832V11.7939C97.0711 11.8109 96.6818 11.8743 96.1655 11.9844L96.1147 11.8955L94.3628 12.2383V12.5811C94.2951 12.818 94.2612 12.9535 94.2612 12.9873V13.1777L94.1597 13.1904C94.1597 13.1566 94.1766 13.1058 94.2104 13.0381C94.1766 12.7673 94.1597 12.5387 94.1597 12.3525L94.02 12.3652V12.9619C93.9523 13.2751 93.9185 13.4528 93.9185 13.4951V13.6475C93.8254 13.6559 93.7788 13.694 93.7788 13.7617V13.9521C93.7873 14.0199 93.8169 14.0495 93.8677 14.041H93.9185C94.02 14.0326 95.7254 13.474 99.0347 12.3652C100.016 12.1621 100.507 12.0055 100.507 11.8955V11.1719L100.406 11.1846C99.2632 11.54 98.1248 11.8828 96.9907 12.2129ZM99.2378 16.1611V16.1992H99.3267V16.1484L99.2378 16.1611ZM98.9458 16.4277C98.9458 16.4616 98.9289 16.5124 98.895 16.5801L98.9966 16.5674V16.415L98.9458 16.4277ZM96.3052 18.8525V18.9414L96.356 19.043C96.9484 18.8737 97.2573 18.7467 97.2827 18.6621V18.6113L96.3052 18.8525ZM96.5083 19.1699C96.4491 19.1445 96.3813 19.1361 96.3052 19.1445C96.1105 19.3646 95.9159 19.737 95.7212 20.2617C96.4237 20.2702 96.813 20.2702 96.8892 20.2617C97.4139 19.5339 97.6763 19.0895 97.6763 18.9287V18.8779C97.1515 18.988 96.7622 19.0853 96.5083 19.1699ZM86.8472 19.8174H86.9487C87.0164 20.0205 87.0503 20.1475 87.0503 20.1982L86.8979 20.2109L86.8472 19.9697V19.8174ZM102.742 21.6455H102.843C103.072 21.7471 103.186 21.819 103.186 21.8613H103.084C102.873 21.7936 102.759 21.7217 102.742 21.6455Z" fill="#C66082"/>
</svg>
