<svg width="287" height="44" viewBox="0 0 287 44" fill="none" xmlns="http://www.w3.org/2000/svg">
<path d="M36.5664 43.3691C36.332 43.3691 35.9805 43.2422 35.5117 42.9883C35.0625 42.7344 34.3984 42.2949 33.5195 41.6699C32.6602 41.0645 31.6836 40.3906 30.5898 39.6484L14.7402 29.0137L10.0527 35.1953C10.0527 35.7227 9.98438 36.123 9.84766 36.3965C9.71094 36.6504 9.41797 37.0117 8.96875 37.4805C7.89453 38.5938 6.97656 39.4434 6.21484 40.0293C5.47266 40.6152 4.79883 40.9082 4.19336 40.9082C3.90039 40.9082 3.64648 40.7812 3.43164 40.5273C3.2168 40.293 3.10938 40 3.10938 39.6484C3.10938 39.1797 3.38281 38.5547 3.92969 37.7734L12.5137 27.1094C12.0059 26.3086 11.752 25.4883 11.752 24.6484C11.752 23.7891 11.9863 23.0566 12.4551 22.4512C12.9434 21.8457 13.5 21.3574 14.125 20.9863C14.75 20.6152 16.4785 19.6777 19.3105 18.1738C23.334 12.8418 25.3457 9.85352 25.3457 9.20898C25.3457 8.7793 25.0918 8.56445 24.584 8.56445C24.0566 8.56445 22.8848 8.87695 21.0684 9.50195C19.2715 10.127 16.8984 11.0938 13.9492 12.4023C11.0195 13.6914 7.54297 15.3516 3.51953 17.3828C3.1875 17.5586 2.80664 17.6367 2.37695 17.6172C1.9668 17.5781 1.61523 17.4121 1.32227 17.1191C1.0293 16.8066 0.882812 16.3965 0.882812 15.8887C0.882812 15.7324 0.921875 15.5469 1 15.332C1.05859 15.1172 1.16602 14.7852 1.32227 14.3359C1.47852 13.8672 1.61523 13.457 1.73242 13.1055C1.77148 12.9883 1.85938 12.5684 1.99609 11.8457C2.15234 11.123 2.40625 10.4688 2.75781 9.88281C3.10938 9.27734 3.70508 8.61328 4.54492 7.89062C5.4043 7.16797 6.625 6.40625 8.20703 5.60547C8.5 5.42969 8.77344 5.32227 9.02734 5.2832C9.28125 5.22461 9.4082 5.29297 9.4082 5.48828C9.4082 5.54688 9.11523 5.79102 8.5293 6.2207C7.96289 6.63086 7.33789 7.31445 6.6543 8.27148C12.3574 6.2793 16.5566 4.88281 19.252 4.08203C21.9668 3.26172 24.1445 2.85156 25.7852 2.85156C26.6836 2.85156 27.4355 3.4668 28.041 4.69727C28.6465 5.9082 28.9492 6.69922 28.9492 7.07031C28.9492 7.61719 28.7344 8.23242 28.3047 8.91602L23.6172 15.9473C27.3281 14.1113 30.209 12.6562 32.2598 11.582C34.3301 10.4883 36.5762 9.30664 38.998 8.03711C41.4199 6.74805 42.9531 5.94727 43.5977 5.63477C44.2422 5.30273 44.6621 5.13672 44.8574 5.13672C45.3066 5.13672 45.5312 5.3418 45.5312 5.75195C45.5312 5.98633 45.1895 6.63086 44.5059 7.68555C43.8418 8.7207 43.0996 9.6582 42.2793 10.498C41.459 11.3184 40.7754 11.7285 40.2285 11.7285C40.0918 11.7285 39.9258 11.6992 39.7305 11.6406C39.5352 11.5625 39.3496 11.4941 39.1738 11.4355C36.5371 12.8027 33.3047 14.4238 29.4766 16.2988C25.668 18.1738 22.6602 19.6387 20.4531 20.6934L17.9336 24.4727L32.7871 34.5508C34.1543 35.4688 35.1406 36.2012 35.7461 36.748C36.3711 37.2949 36.8301 37.8906 37.123 38.5352C37.4355 39.1797 37.5918 39.9902 37.5918 40.9668C37.5918 42.5684 37.25 43.3691 36.5664 43.3691ZM44.7109 31.8262V32.5586C44.7109 33.7109 44.9941 34.6094 45.5605 35.2539C46.127 35.8984 46.8691 36.2207 47.7871 36.2207C48.7441 36.2207 49.7305 35.9961 50.7461 35.5469C51.7812 35.0977 52.8066 34.502 53.8223 33.7598C54.8379 33.0176 56.0781 32.0215 57.543 30.7715V32.5586C55.3359 35.2148 53.2656 37.2559 51.332 38.6816C49.3984 40.0879 47.4355 40.791 45.4434 40.791C43.7051 40.791 42.3281 40.1172 41.3125 38.7695C40.2969 37.4219 39.7891 35.5762 39.7891 33.2324C39.7891 31.1816 40.2676 29.3262 41.2246 27.666C42.1816 25.9863 43.7441 24.2188 45.9121 22.3633C47.3965 21.0938 48.8711 20.1367 50.3359 19.4922C51.8008 18.8477 53.1094 18.5254 54.2617 18.5254C55.1797 18.5254 55.9023 18.7402 56.4297 19.1699C56.9766 19.5801 57.25 20.2051 57.25 21.0449C57.25 22.2754 56.791 23.5059 55.873 24.7363C54.9551 25.9473 53.5488 27.1582 51.6543 28.3691C49.7793 29.5605 47.4648 30.7129 44.7109 31.8262ZM45.0039 29.9219C46.7617 29.2383 48.2656 28.3887 49.5156 27.373C50.7656 26.3574 51.6836 25.3906 52.2695 24.4727C52.875 23.5352 53.1777 22.8516 53.1777 22.4219C53.1777 21.9727 52.9727 21.748 52.5625 21.748C52.2109 21.748 51.6348 21.9727 50.834 22.4219C50.0527 22.8711 49.252 23.457 48.4316 24.1797C47.6309 24.9023 46.9082 25.752 46.2637 26.7285C45.6191 27.7051 45.1992 28.7695 45.0039 29.9219ZM60.5605 30.8301L60.0332 33.291C59.9551 33.6035 59.916 33.9551 59.916 34.3457C59.916 35.4004 60.3555 35.9277 61.2344 35.9277C62.0742 35.9277 64.1152 34.2871 67.3574 31.0059C67.377 29.7363 67.8457 28.2715 68.7637 26.6113C69.7012 24.9512 70.7266 23.4961 71.8398 22.2461C72.9727 20.9961 73.8125 20.3711 74.3594 20.3711C75.2188 20.3711 75.6484 20.9375 75.6484 22.0703C75.6484 22.7539 75.4824 23.5938 75.1504 24.5898C74.8184 25.5664 74.3301 26.6309 73.6855 27.7832C73.041 28.916 72.25 30.0879 71.3125 31.2988C71.8008 32.1777 72.2988 32.6172 72.8066 32.6172C73.2363 32.6172 73.7051 32.4707 74.2129 32.1777C74.7402 31.8652 75.3945 31.3965 76.1758 30.7715V32.7344C75.082 33.5938 74.2129 34.1797 73.5684 34.4922C72.9434 34.8047 72.1328 34.9609 71.1367 34.9609C70.7461 34.9609 70.043 34.6973 69.0273 34.1699C67.0352 36.2793 65.4141 37.8613 64.1641 38.916C62.9141 39.9512 61.8984 40.4688 61.1172 40.4688C59.7695 40.4688 58.6172 39.668 57.6602 38.0664C56.7227 36.4453 56.2539 34.668 56.2539 32.7344C56.2539 30.1367 57.7188 27.0215 60.6484 23.3887C61.5273 22.2949 62.2305 21.5527 62.7578 21.1621C63.3047 20.752 63.9199 20.5469 64.6035 20.5469C65.1895 20.5469 65.7461 20.6543 66.2734 20.8691C66.8008 21.084 67.0645 21.3379 67.0645 21.6309C67.0645 22.6074 66.4102 24.043 65.1016 25.9375C63.793 27.8125 62.2793 29.4434 60.5605 30.8301ZM88.1289 17.6758C87.6406 17.6758 87.1719 17.4902 86.7227 17.1191C86.293 16.748 86.0781 16.2793 86.0781 15.7129C86.0781 14.8535 86.4883 13.8965 87.3086 12.8418C88.1289 11.7871 88.9785 11.2598 89.8574 11.2598C90.4434 11.2598 90.9316 11.4453 91.3223 11.8164C91.7129 12.168 91.9082 12.6855 91.9082 13.3691C91.9082 14.209 91.5078 15.1367 90.707 16.1523C89.9062 17.168 89.0469 17.6758 88.1289 17.6758ZM90.1211 30.7715V32.9102C88.2266 35.3516 86.459 37.1973 84.8184 38.4473C83.1777 39.6777 81.7812 40.293 80.6289 40.293C79.0273 40.293 77.8359 39.4531 77.0547 37.7734C76.2734 36.0938 75.8828 34.2578 75.8828 32.2656C75.8828 31.5039 75.9609 30.7812 76.1172 30.0977C76.2734 29.3945 76.459 28.8184 76.6738 28.3691C76.8887 27.9199 77.2891 27.2168 77.875 26.2598C80.6484 21.9434 83.1875 19.7852 85.4922 19.7852C86.6836 19.7852 87.2793 20.2441 87.2793 21.1621C87.2793 21.7871 86.8887 22.7637 86.1074 24.0918C85.3457 25.4199 84.6621 26.3672 84.0566 26.9336C82.3574 28.5742 81.2441 29.7168 80.7168 30.3613C80.209 31.0059 79.9551 31.7383 79.9551 32.5586C79.9551 33.2617 80.2188 33.8477 80.7461 34.3164C81.2734 34.7852 81.957 35.0195 82.7969 35.0195C83.7148 35.0195 84.7207 34.6875 85.8145 34.0234C86.9277 33.3398 88.3633 32.2559 90.1211 30.7715ZM109.633 25.4688C106.195 29.2969 104.477 31.9629 104.477 33.4668C104.477 34.3066 104.818 34.7266 105.502 34.7266C106.068 34.7266 106.801 34.4336 107.699 33.8477C108.617 33.2422 110.043 32.1777 111.977 30.6543V32.6758C109.203 35.4102 107.074 37.3828 105.59 38.5938C104.105 39.8047 102.895 40.4102 101.957 40.4102C100.355 40.4102 99.5547 39.3555 99.5547 37.2461C99.5547 36.6211 99.6523 36.0059 99.8477 35.4004C100.043 34.7949 100.307 34.1699 100.639 33.5254C100.99 32.8613 101.518 31.9238 102.221 30.7129C102.924 29.4824 103.734 28.0957 104.652 26.5527C103.539 27.1191 102.143 28.2422 100.463 29.9219C99.3691 30.9766 98.4414 31.9824 97.6797 32.9395C96.918 33.877 96.0977 34.9316 95.2188 36.1035C94.3594 37.2559 93.7246 38.0371 93.3145 38.4473C92.9238 38.8379 92.5234 39.0332 92.1133 39.0332C91.4883 39.0332 90.9121 38.3789 90.3848 37.0703C89.8574 35.7617 89.5938 34.2383 89.5938 32.5C89.5938 31.4258 89.7109 30.5859 89.9453 29.9805C90.1992 29.375 90.6875 28.5156 91.4102 27.4023C92.7578 25.332 93.9199 23.8184 94.8965 22.8613C95.873 21.8848 96.8105 21.3965 97.709 21.3965C98.334 21.3965 98.832 21.5039 99.2031 21.7188C99.5938 21.9336 99.7891 22.2656 99.7891 22.7148C99.7891 22.9102 99.7305 23.1152 99.6133 23.3301C99.4961 23.5449 99.3594 23.7402 99.2031 23.916C99.0664 24.0918 98.7637 24.4336 98.2949 24.9414C95.209 28.3594 93.666 30.5762 93.666 31.5918C93.666 32.1582 93.8516 32.4414 94.2227 32.4414C94.457 32.4414 94.9062 32.0703 95.5703 31.3281C96.2539 30.5664 97.123 29.5801 98.1777 28.3691C99.252 27.1387 100.512 25.8594 101.957 24.5312C103.422 23.2031 105.082 21.9238 106.938 20.6934C107.973 19.9707 108.832 19.6094 109.516 19.6094C109.828 19.6094 110.131 20.0391 110.424 20.8984C110.736 21.7578 110.893 22.627 110.893 23.5059C110.893 23.9355 110.473 24.5898 109.633 25.4688ZM138.9 39.7656C137.514 39.7656 136.176 39.3359 134.887 38.4766C133.598 37.6172 132.562 36.4258 131.781 34.9023C131 33.3789 130.609 31.6797 130.609 29.8047C130.609 27.3047 131.557 25.0293 133.451 22.9785C135.365 20.9277 138.178 18.9062 141.889 16.9141C141.693 15.6836 141.596 14.8145 141.596 14.3066C141.596 12.334 142.006 10.4785 142.826 8.74023C143.666 7.00195 144.75 5.52734 146.078 4.31641C147.406 3.08594 148.812 2.14844 150.297 1.50391C151.781 0.839844 153.197 0.507812 154.545 0.507812C156.107 0.507812 157.367 0.888672 158.324 1.65039C159.281 2.39258 159.76 3.35937 159.76 4.55078C159.76 6.13281 159.35 7.54883 158.529 8.79883C157.729 10.0488 156.693 11.1719 155.424 12.168C154.174 13.1445 152.631 14.209 150.795 15.3613C148.959 16.4941 147.846 17.207 147.455 17.5C148.08 19.9609 149.027 22.4805 150.297 25.0586C152.055 23.8672 153.432 22.8027 154.428 21.8652C155.424 20.9082 156.264 20.0293 156.947 19.2285C157.631 18.4277 158.09 18.0273 158.324 18.0273C158.5 18.0273 158.646 18.2422 158.764 18.6719C158.881 19.1016 158.939 19.5703 158.939 20.0781C158.939 21.2695 158.725 22.3926 158.295 23.4473C157.865 24.502 157.25 25.5566 156.449 26.6113C155.668 27.666 154.691 28.7891 153.52 29.9805L155.453 32.0898C155.629 31.9336 155.844 31.709 156.098 31.416C156.352 31.123 156.547 30.9277 156.684 30.8301C156.82 30.7129 156.967 30.6543 157.123 30.6543C157.318 30.6543 157.465 30.7324 157.562 30.8887C157.68 31.0449 157.738 31.2207 157.738 31.416C157.738 32.2168 157.172 33.5645 156.039 35.459C154.906 37.334 153.969 38.2715 153.227 38.2715C152.836 38.2715 152.455 38.1152 152.084 37.8027C151.713 37.4707 151.264 36.9531 150.736 36.25C150.209 35.5273 149.779 34.9219 149.447 34.4336C147.201 36.1523 145.199 37.4707 143.441 38.3887C141.703 39.3066 140.189 39.7656 138.9 39.7656ZM146.811 11.9922V13.1934C149.623 11.6113 151.801 9.94141 153.344 8.18359C154.906 6.42578 155.688 5.0293 155.688 3.99414C155.688 3.11523 155.248 2.67578 154.369 2.67578C153.568 2.67578 152.553 3.1543 151.322 4.11133C150.092 5.04883 149.027 6.24023 148.129 7.68555C147.25 9.11133 146.811 10.5469 146.811 11.9922ZM142.855 20.752C141.41 21.748 140.121 22.8223 138.988 23.9746C137.875 25.127 136.986 26.25 136.322 27.3438C135.678 28.418 135.355 29.3164 135.355 30.0391C135.355 31.4844 136.01 32.207 137.318 32.207C138.275 32.207 139.574 31.8945 141.215 31.2695C142.855 30.625 144.496 29.6973 146.137 28.4863C145.277 26.4941 144.184 23.916 142.855 20.752ZM194.623 34.1699L195.59 34.9023C195.336 35.4492 195.092 35.9277 194.857 36.3379C194.623 36.748 194.34 37.2461 194.008 37.832C193.676 38.418 193.422 38.8574 193.246 39.1504C191.781 41.709 190.404 42.9883 189.115 42.9883C188.568 42.9883 188.1 42.7734 187.709 42.3438C187.318 41.9141 187.123 41.3281 187.123 40.5859C187.123 39.5312 187.494 38.0859 188.236 36.25C188.998 34.4141 190.16 32.1582 191.723 29.4824C193.305 26.7871 195.287 23.7402 197.67 20.3418C200.053 16.9434 202.738 13.3594 205.727 9.58984C204.008 9.33594 201.967 9.20898 199.604 9.20898C196.889 9.20898 193.861 9.51172 190.521 10.1172C187.201 10.7227 184.301 11.4258 181.82 12.2266C179.359 13.0078 178.129 13.584 178.129 13.9551C178.129 14.0918 178.178 14.1895 178.275 14.248C178.373 14.2871 178.529 14.3262 178.744 14.3652C178.979 14.3848 179.271 14.4141 179.623 14.4531C181.908 14.7656 183.051 15.1172 183.051 15.5078C183.051 15.7031 182.553 15.8008 181.557 15.8008C180.561 15.7812 179.359 15.7715 177.953 15.7715C176.84 15.7715 176.029 15.7324 175.521 15.6543C175.033 15.5566 174.701 15.3906 174.525 15.1562C174.369 14.9023 174.291 14.5215 174.291 14.0137C174.291 13.6816 174.389 12.959 174.584 11.8457C174.955 9.77539 175.521 8.11523 176.283 6.86523C177.064 5.61523 178.246 4.59961 179.828 3.81836C181.43 3.01758 183.627 2.38281 186.42 1.91406C191.107 1.11328 194.984 0.712891 198.051 0.712891C200.316 0.712891 202.104 0.810547 203.412 1.00586C204.721 1.18164 205.678 1.44531 206.283 1.79688C206.908 2.14844 207.299 2.5 207.455 2.85156C207.631 3.18359 207.855 3.76953 208.129 4.60938L209.037 7.30469C209.096 7.48047 209.145 7.62695 209.184 7.74414C209.223 7.8418 209.252 7.94922 209.271 8.06641C209.311 8.18359 209.33 8.29102 209.33 8.38867C209.33 9.15039 209.154 9.83398 208.803 10.4395C208.471 11.0449 207.846 11.9531 206.928 13.1641C206.029 14.375 205.365 15.3223 204.936 16.0059C199.896 24.1895 196.459 30.2441 194.623 34.1699ZM208.158 25.5273C211.127 22.832 214.008 20.8301 216.801 19.5215C219.594 18.2129 221.752 17.5586 223.275 17.5586C223.686 17.5586 224.066 17.7344 224.418 18.0859C224.77 18.418 225.043 18.8086 225.238 19.2578C225.453 19.707 225.561 20.0391 225.561 20.2539C225.561 20.6055 225.424 20.8691 225.15 21.0449C224.877 21.2012 224.398 21.3965 223.715 21.6309C223.852 21.9434 224.027 22.3438 224.242 22.832C224.457 23.3203 224.623 23.7207 224.74 24.0332C224.857 24.3262 224.916 24.5898 224.916 24.8242C224.916 25.293 224.438 26.1719 223.48 27.4609C222.543 28.7305 221.879 29.668 221.488 30.2734C221.117 30.8789 220.932 31.6211 220.932 32.5C220.932 33.9453 221.596 34.668 222.924 34.668C224.291 34.668 226.43 33.3887 229.34 30.8301V32.6172C224.398 38.1055 220.863 40.8496 218.734 40.8496C217.973 40.8496 217.426 40.5957 217.094 40.0879C216.781 39.5996 216.625 38.8672 216.625 37.8906C216.625 36.3477 217.182 34.1113 218.295 31.1816C215.443 34.3457 213.324 36.6016 211.938 37.9492C210.551 39.2773 209.408 39.9414 208.51 39.9414C208.08 39.9414 207.543 39.5703 206.898 38.8281C206.254 38.0859 205.678 37.1289 205.17 35.957C204.682 34.7656 204.438 33.5352 204.438 32.2656C204.438 31.3477 204.525 30.5859 204.701 29.9805C204.877 29.3555 205.219 28.7207 205.727 28.0762C206.234 27.4316 207.045 26.582 208.158 25.5273ZM222.191 22.3047C217.113 24.6289 213.49 26.6016 211.322 28.2227C209.174 29.8438 208.1 31.5137 208.1 33.2324C208.1 33.8574 208.207 34.375 208.422 34.7852C208.637 35.1758 208.93 35.3711 209.301 35.3711C209.516 35.3711 209.896 35.2344 210.443 34.9609C212.494 33.75 214.369 32.1777 216.068 30.2441C217.768 28.291 219.809 25.6445 222.191 22.3047ZM248.852 25.4688C245.414 29.2969 243.695 31.9629 243.695 33.4668C243.695 34.3066 244.037 34.7266 244.721 34.7266C245.287 34.7266 246.02 34.4336 246.918 33.8477C247.836 33.2422 249.262 32.1777 251.195 30.6543V32.6758C248.422 35.4102 246.293 37.3828 244.809 38.5938C243.324 39.8047 242.113 40.4102 241.176 40.4102C239.574 40.4102 238.773 39.3555 238.773 37.2461C238.773 36.6211 238.871 36.0059 239.066 35.4004C239.262 34.7949 239.525 34.1699 239.857 33.5254C240.209 32.8613 240.736 31.9238 241.439 30.7129C242.143 29.4824 242.953 28.0957 243.871 26.5527C242.758 27.1191 241.361 28.2422 239.682 29.9219C238.588 30.9766 237.66 31.9824 236.898 32.9395C236.137 33.877 235.316 34.9316 234.438 36.1035C233.578 37.2559 232.943 38.0371 232.533 38.4473C232.143 38.8379 231.742 39.0332 231.332 39.0332C230.707 39.0332 230.131 38.3789 229.604 37.0703C229.076 35.7617 228.812 34.2383 228.812 32.5C228.812 31.4258 228.93 30.5859 229.164 29.9805C229.418 29.375 229.906 28.5156 230.629 27.4023C231.977 25.332 233.139 23.8184 234.115 22.8613C235.092 21.8848 236.029 21.3965 236.928 21.3965C237.553 21.3965 238.051 21.5039 238.422 21.7188C238.812 21.9336 239.008 22.2656 239.008 22.7148C239.008 22.9102 238.949 23.1152 238.832 23.3301C238.715 23.5449 238.578 23.7402 238.422 23.916C238.285 24.0918 237.982 24.4336 237.514 24.9414C234.428 28.3594 232.885 30.5762 232.885 31.5918C232.885 32.1582 233.07 32.4414 233.441 32.4414C233.676 32.4414 234.125 32.0703 234.789 31.3281C235.473 30.5664 236.342 29.5801 237.396 28.3691C238.471 27.1387 239.73 25.8594 241.176 24.5312C242.641 23.2031 244.301 21.9238 246.156 20.6934C247.191 19.9707 248.051 19.6094 248.734 19.6094C249.047 19.6094 249.35 20.0391 249.643 20.8984C249.955 21.7578 250.111 22.627 250.111 23.5059C250.111 23.9355 249.691 24.5898 248.852 25.4688ZM254.857 30.8301L254.33 33.291C254.252 33.6035 254.213 33.9551 254.213 34.3457C254.213 35.4004 254.652 35.9277 255.531 35.9277C256.371 35.9277 258.412 34.2871 261.654 31.0059C261.674 29.7363 262.143 28.2715 263.061 26.6113C263.998 24.9512 265.023 23.4961 266.137 22.2461C267.27 20.9961 268.109 20.3711 268.656 20.3711C269.516 20.3711 269.945 20.9375 269.945 22.0703C269.945 22.7539 269.779 23.5938 269.447 24.5898C269.115 25.5664 268.627 26.6309 267.982 27.7832C267.338 28.916 266.547 30.0879 265.609 31.2988C266.098 32.1777 266.596 32.6172 267.104 32.6172C267.533 32.6172 268.002 32.4707 268.51 32.1777C269.037 31.8652 269.691 31.3965 270.473 30.7715V32.7344C269.379 33.5938 268.51 34.1797 267.865 34.4922C267.24 34.8047 266.43 34.9609 265.434 34.9609C265.043 34.9609 264.34 34.6973 263.324 34.1699C261.332 36.2793 259.711 37.8613 258.461 38.916C257.211 39.9512 256.195 40.4688 255.414 40.4688C254.066 40.4688 252.914 39.668 251.957 38.0664C251.02 36.4453 250.551 34.668 250.551 32.7344C250.551 30.1367 252.016 27.0215 254.945 23.3887C255.824 22.2949 256.527 21.5527 257.055 21.1621C257.602 20.752 258.217 20.5469 258.9 20.5469C259.486 20.5469 260.043 20.6543 260.57 20.8691C261.098 21.084 261.361 21.3379 261.361 21.6309C261.361 22.6074 260.707 24.043 259.398 25.9375C258.09 27.8125 256.576 29.4434 254.857 30.8301ZM282.426 17.6758C281.938 17.6758 281.469 17.4902 281.02 17.1191C280.59 16.748 280.375 16.2793 280.375 15.7129C280.375 14.8535 280.785 13.8965 281.605 12.8418C282.426 11.7871 283.275 11.2598 284.154 11.2598C284.74 11.2598 285.229 11.4453 285.619 11.8164C286.01 12.168 286.205 12.6855 286.205 13.3691C286.205 14.209 285.805 15.1367 285.004 16.1523C284.203 17.168 283.344 17.6758 282.426 17.6758ZM284.418 30.7715V32.9102C282.523 35.3516 280.756 37.1973 279.115 38.4473C277.475 39.6777 276.078 40.293 274.926 40.293C273.324 40.293 272.133 39.4531 271.352 37.7734C270.57 36.0938 270.18 34.2578 270.18 32.2656C270.18 31.5039 270.258 30.7812 270.414 30.0977C270.57 29.3945 270.756 28.8184 270.971 28.3691C271.186 27.9199 271.586 27.2168 272.172 26.2598C274.945 21.9434 277.484 19.7852 279.789 19.7852C280.98 19.7852 281.576 20.2441 281.576 21.1621C281.576 21.7871 281.186 22.7637 280.404 24.0918C279.643 25.4199 278.959 26.3672 278.354 26.9336C276.654 28.5742 275.541 29.7168 275.014 30.3613C274.506 31.0059 274.252 31.7383 274.252 32.5586C274.252 33.2617 274.516 33.8477 275.043 34.3164C275.57 34.7852 276.254 35.0195 277.094 35.0195C278.012 35.0195 279.018 34.6875 280.111 34.0234C281.225 33.3398 282.66 32.2559 284.418 30.7715Z" fill="#45576D"/>
</svg>
