<svg width="329" height="72" viewBox="0 0 329 72" fill="none" xmlns="http://www.w3.org/2000/svg">
<path d="M59.78 11.34C59.82 12.68 59.78 14.3 59.7 16.26H52.5V18.3H59.44C58.62 22.66 55.32 25.58 51.86 26.66C52.58 27.48 53.04 28.18 53.5 29.06C56.7 27.36 59.52 24.92 60.96 21.7C62.5 24.44 64.98 26.74 68.28 28.84C68.78 28.08 69.48 27.18 70.1 26.58C66.94 25.24 63.3 22.24 62.3 18.3H69.56V16.26H62.24C62.28 14.64 62.3 13.4 62.34 12.38C62.58 12.28 62.78 12.1 62.78 11.94C62.78 11.76 62.56 11.6 61.94 11.52L59.78 11.34ZM77.38 24.16C77.42 23.98 77.52 23.6 77.62 23.24H87.22V17.38C87.6 17.58 88.12 17.78 88.66 17.98L89.94 15.88C86.9 15.08 84.52 13.8 82.38 12C82.6 11.92 82.8 11.8 82.8 11.68C82.8 11.54 82.58 11.4 81.92 11.3L80.2 11C77.6 13.64 74.82 15.1 72.06 15.98C72.56 16.7 73.08 17.52 73.34 18.06C74.94 17.46 76.38 16.68 77.46 15.98V16.34H84.44V15.98C85.4 16.52 86.08 16.86 86.78 17.18H75.6C75.72 23.72 74.4 25.48 72.56 27.06C73.3 27.8 73.78 28.2 74.48 28.98C75.32 28.08 76.04 27.12 76.54 26.18V29.3H78.92V28.86H85.66V29.3H88.1V24.16H77.38ZM85.66 27.08H78.92V25.8H85.66V27.08ZM79.26 14.68L80.84 13.42C81.3 13.78 81.74 14.16 82.44 14.68H79.26ZM84.8 19.5H78V18.68H84.8V19.5ZM84.8 21.78H77.9L77.94 20.92H84.8V21.78ZM99.68 14.18C99.98 13.66 100.2 13.12 100.4 12.56C100.7 12.42 100.9 12.26 100.9 12.1C100.9 11.94 100.68 11.78 100.1 11.64L98.08 11.12C97.26 14.46 95.2 18 92.3 20.34C92.94 20.72 93.82 21.34 94.44 21.8C95.92 20.52 97.5 18.36 98.68 16.18H102.04C100.36 21.1 97.6 25.04 92.5 27.34C93.1 27.92 93.76 28.74 94.28 29.4C97.58 27.58 100.04 25.3 102 22.12C103.36 24.56 105.14 26.92 107.84 29.08C108.46 28.46 109.22 27.66 109.9 27.02C106.94 25.14 104.84 22.9 103.24 19.78C104.08 17.96 104.6 16.5 105.1 14.9L104.4 14.18H99.68ZM118.2 16.52V13.74C118.84 13.58 119.6 13.48 120.08 13.32C120.28 13.38 120.46 13.4 120.6 13.4C120.86 13.4 121.02 13.3 121.02 13.12C121.02 12.98 120.92 12.78 120.72 12.52L119.58 11.12C117.1 11.9 114.68 12.38 112.1 12.5C112.4 13.22 112.64 13.88 112.9 14.58C113.94 14.5 114.96 14.38 115.86 14.22V16.52H112.14V18.52H115.62C114.96 20.04 113.84 21.88 111.82 23.38C112.4 24.06 112.86 24.78 113.28 25.38C114.58 24.38 115.3 23.5 115.86 22.84V29.28H118.2V22.24C118.64 22.78 119.6 23.78 120.34 24.28C120.74 23.48 121.2 22.76 121.62 22.06C120.7 21.38 119 19.92 118.46 18.52H121.5V16.52H118.2ZM127.3 24.68H124.3V15.16H127.3V24.68ZM121.94 13.16V28.58H124.3V26.68H127.3V27.68H129.7V13.16H121.94ZM139.78 11.34C139.82 12.68 139.78 14.3 139.7 16.26H132.5V18.3H139.44C138.62 22.66 135.32 25.58 131.86 26.66C132.58 27.48 133.04 28.18 133.5 29.06C136.7 27.36 139.52 24.92 140.96 21.7C142.5 24.44 144.98 26.74 148.28 28.84C148.78 28.08 149.48 27.18 150.1 26.58C146.94 25.24 143.3 22.24 142.3 18.3H149.56V16.26H142.24C142.28 14.64 142.3 13.4 142.34 12.38C142.58 12.28 142.78 12.1 142.78 11.94C142.78 11.76 142.56 11.6 141.94 11.52L139.78 11.34ZM152.7 17.54V29.36H154.98V28.62H159.34V27.58C159.7 27.9 160.56 28.72 161.1 29.34C162.72 26.68 162.82 23.94 162.82 18.36H162.94C163.28 21.48 163.88 23.42 164.94 25.1C164.14 26.08 163.22 26.82 162.08 27.46C162.62 27.96 163.34 28.68 163.86 29.32C164.7 28.74 165.5 28.08 166.42 26.98C167.06 27.66 167.88 28.36 168.84 29.06C169.08 28.64 169.76 27.58 170.22 26.84C169.16 26.28 168.28 25.58 167.76 24.98C168.66 23.28 169.3 20.62 169.48 16.94L168.78 16.36H162.84V14.38C164.8 14.12 166.78 13.72 168.6 13.28C168.82 13.36 169.02 13.4 169.18 13.4C169.38 13.4 169.52 13.34 169.52 13.18C169.52 13.06 169.44 12.9 169.28 12.7L168.08 11.12C166.74 11.66 164.16 12.2 162.2 12.46L160.4 12C160.5 13.52 160.54 15.28 160.54 17.34C160.54 22.88 160.32 25.1 159.34 27.06V26.84H154.98V26.26H159.34V24.54H154.98V23.86H159.5V17.54H152.7ZM155.58 11.18C154.52 13 152.9 14.48 151.58 15.18C151.98 15.78 152.5 16.64 152.76 17.16C153.22 16.84 153.72 16.48 154.12 16.14V16.96H158.42V15.94C158.48 16 158.92 16.32 159.14 16.46C159.5 15.88 159.94 15.32 160.42 14.64C159.4 14.1 158.18 13.28 157.4 12.6C157.74 12.54 158.06 12.4 158.06 12.22C158.06 12.08 157.88 11.94 157.42 11.78L155.58 11.18ZM167 18.36C166.96 19.88 166.64 21.7 166.26 22.74C165.52 21.28 165.24 19.74 165.08 18.36H167ZM157.28 19.9H154.98V19.22H157.28V19.9ZM157.28 22.2H154.98V21.52H157.28V22.2ZM155.12 15.24C155.5 14.88 155.9 14.42 156.28 13.96C156.5 14.24 156.88 14.62 157.56 15.24H155.12ZM183.36 17.54V16.22C183.54 16 183.64 15.8 183.64 15.64C183.64 15.42 183.42 15.28 182.9 15.28H180.92V21.54H176.48V29.18H178.88V28.18H186.24V29.08H188.64V21.54H183.36V19.48H189.52V17.54H183.36ZM186.2 26.18H178.86V23.52H186.2V26.18ZM182.56 12.92V11.96C182.72 11.74 182.8 11.58 182.8 11.44C182.8 11.22 182.58 11.12 182.1 11.1H180.12V12.92H173.36V19.86C173.36 23.1 172.86 25.32 171.82 27.4C172.38 27.78 173.22 28.58 173.78 29.08C175.14 26.36 175.6 24.58 175.6 20.88V14.88H189.9V12.92H182.56ZM200.076 25.54V25.5L201.336 24.26C203.536 22.04 205.356 19.84 205.356 17.16C205.356 14.7 203.876 12.64 200.636 12.64C198.896 12.64 197.336 13.28 196.396 14L197.216 16.12C197.916 15.6 198.936 15.02 200.036 15.02C201.696 15.02 202.396 16.12 202.396 17.44C202.396 19.48 200.716 21.42 197.856 24.38L196.176 26.18V28H205.636V25.54H200.076ZM211.222 21.58H216.142V19.16H211.222V15.1H216.502V12.62H208.262V28H211.222V21.58ZM218.904 11.68V13.68H226.224C226.104 14.56 225.984 15.38 225.804 16.18H220.464V29.28H222.844V28H232.044V29.1H234.484V16.18H228.164C228.304 15.48 228.504 14.58 228.664 13.68H236.124V11.68H218.904ZM232.044 26.02H222.844V22.94H232.044V26.02ZM232.044 20.98H222.844V18.18H232.044V20.98ZM248.704 17.46V14.22C250.644 13.98 252.144 13.72 253.504 13.46C253.684 13.5 253.824 13.52 253.964 13.52C254.244 13.52 254.424 13.44 254.424 13.28C254.424 13.18 254.304 13 254.064 12.8L252.604 11.4C249.364 12.38 244.424 12.78 240.224 12.68C240.664 13.46 240.964 14.12 241.244 14.78C243.104 14.74 245.024 14.62 246.284 14.5V17.46H238.904V19.46H244.964C243.104 22.52 240.564 24.44 238.304 25.56C238.884 26.26 239.524 27 239.984 27.62C242.224 26.26 244.324 24.34 246.284 21.52V29.28H248.704V21.7C250.064 23.6 252.744 25.78 255.184 27.3C255.604 26.7 256.004 26.02 256.664 25.08C254.104 23.7 251.764 22.24 249.624 19.46H256.044V17.46H248.704ZM268.844 12.38V11.84C269.024 11.66 269.104 11.52 269.104 11.42C269.104 11.22 268.864 11.12 268.384 11.1H266.404V12.38H259.604V19.86C259.604 23.1 259.264 26 258.324 27.48C258.724 27.78 259.644 28.58 260.084 29.08C261.204 26.8 261.564 24.58 261.564 20.88V14.22H276.284V12.38H268.844ZM261.864 24.68H262.864V25.28H261.904V26.6H262.864V27.38C262.424 27.42 261.904 27.46 261.344 27.48L261.584 28.78C261.644 29.16 261.784 29.36 261.944 29.36C262.064 29.36 262.224 29.24 262.364 28.98L265.464 28.42V27.08C265.244 27.1 265.044 27.14 264.524 27.2V26.6H265.384V25.28H264.524V24.68H265.504V23.38H261.864V24.68ZM274.624 20.58H273.924V19.18H274.624V20.58ZM270.384 19.18V20.58H269.664V19.18H270.384ZM268.144 24.08H271.864L271.424 24.36C271.544 24.48 271.664 24.64 271.704 24.68H270.264V28.1C270.264 29 270.844 29.22 272.284 29.22C274.264 29.22 274.664 28.92 274.904 27.62C274.404 27.38 273.904 27.14 273.404 26.76C273.224 27.38 272.904 27.64 272.624 27.64C272.364 27.64 272.144 27.42 272.144 27.04V25.22C272.424 25.64 272.564 25.82 272.684 25.98L274.064 25.16C273.784 24.74 273.524 24.38 273.244 24.08H276.024V22.5H268.144V24.08ZM273.984 25.72C274.604 26.64 275.044 27.48 275.304 28.02C275.684 27.82 276.204 27.66 276.824 27.32C276.324 26.2 275.924 25.64 275.424 24.9L273.984 25.72ZM264.104 17.08V16.38H265.764V17.08H264.104ZM265.764 18.98H264.104V18.36H265.764V18.98ZM265.764 20.88C265.324 20.94 264.904 20.98 264.104 21.02V20.24H265.764V20.88ZM272.564 19.18V20.58H271.764V19.18H272.564ZM261.724 16.38H262.384V21.12L261.724 21.14L261.984 22.66C262.044 23.04 262.144 23.18 262.284 23.18C262.444 23.18 262.624 23 262.804 22.8C263.524 22.74 264.864 22.58 265.764 22.44V29.16H267.704V27.72L269.304 28.46C269.664 27.66 269.924 26.44 270.044 25.26L268.464 24.88C268.304 25.58 268.004 26.66 267.704 27.38V16.38H268.304V17.18H270.964L270.884 17.86H268.124V21.92H276.184V17.86H272.964L273.024 17.18H276.104V15.62H273.224L273.264 15.24C273.524 15.1 273.624 14.96 273.624 14.86C273.624 14.7 273.424 14.6 273.064 14.56L271.224 14.36L271.124 15.62H268.424V14.8H261.724V16.38Z" fill="#45576D"/>
<path d="M7.84 44.88H5.36L1.68 46.76L2.32 48.88L4.92 47.52H4.96V60H7.84V44.88ZM17.1453 60.22C20.3253 60.22 22.1853 57.36 22.1853 52.36C22.1853 48.16 20.8053 44.64 17.2453 44.64C13.8453 44.64 12.1453 47.88 12.1453 52.48C12.1453 56.7 13.6253 60.22 17.1453 60.22ZM17.1653 57.88C15.8453 57.88 15.1053 56 15.1053 52.42C15.1053 48.82 15.9253 46.98 17.2053 46.98C18.6053 46.98 19.2253 49 19.2253 52.42C19.2253 55.96 18.5453 57.88 17.1853 57.88H17.1653ZM33.9106 56.26V54.02H32.1706V44.88H28.8306L23.3306 54.34V56.26H29.4306V60H32.1706V56.26H33.9106ZM28.1906 50.18C28.6506 49.32 29.0106 48.48 29.4706 47.52H29.5506C29.4906 48.42 29.4306 49.38 29.4306 50.26V54.02H25.9706V53.98L28.1906 50.18ZM36.2759 60.2C42.3559 60.48 45.0759 56.26 45.0759 51.02C45.0759 47.4 43.3759 44.64 40.0759 44.64C36.9959 44.64 35.0359 47.18 35.0359 50C35.0359 52.82 36.8759 54.6 39.2159 54.6C40.4759 54.6 41.4159 54.14 42.0559 53.42L42.1159 53.44C41.6759 55.74 40.2359 57.56 37.7359 57.82C36.7959 57.9 36.6559 57.92 36.2759 57.88V60.2ZM39.9759 46.74C41.3959 46.74 42.0759 48.34 42.0759 50.36C42.0759 50.94 42.0359 51.24 41.9159 51.46C41.5959 52.04 40.9159 52.6 40.0159 52.6C38.8159 52.6 37.9759 51.52 37.9759 49.74C37.9759 48.02 38.7759 46.74 39.9759 46.74ZM53.6213 44.88H51.1413L47.4613 46.76L48.1013 48.88L50.7013 47.52H50.7413V60H53.6213V44.88ZM60.7666 53.16V61.32H63.1466V60.58H71.1066V61.18H73.4866V53.16H60.7666ZM71.0666 58.64H63.1266V55.1H71.0666V58.64ZM64.5266 43.22C63.9266 45.38 62.7866 48.1 62.1866 49.32C59.5866 49.32 59.2866 49.32 58.5866 49.28L59.0266 51.66C59.1066 52.06 59.2666 52.3 59.4666 52.3C59.6266 52.3 59.8066 52.12 60.0266 51.72C64.1066 51.56 68.5266 51.38 72.8466 51.12C73.4866 51.76 74.0066 52.42 74.3866 52.88C74.9066 52.44 75.5266 51.82 76.1666 51.2C74.6666 49.46 73.4466 48.06 71.0066 45.88L69.0866 47.16L71.2266 49.22C68.8466 49.34 66.8666 49.38 64.7266 49.38C65.1666 48.3 66.0666 46.48 66.7266 44.94C67.0866 44.86 67.3666 44.7 67.3666 44.5C67.3666 44.36 67.1866 44.18 66.7066 44L64.5266 43.22ZM87.9866 59.44C87.9866 60.64 88.4266 61.1 91.9666 61.1C95.6266 61.1 96.0866 60.4 96.5466 57.44C95.8266 56.98 95.1466 56.66 94.5266 56.16C94.2466 58.38 94.1666 58.84 92.0466 58.86C90.5866 58.86 90.3666 58.68 90.3666 57.96V52.76C92.7466 51.66 94.1666 50.7 95.3866 49.7C95.4866 49.72 95.5866 49.74 95.6666 49.74C95.9066 49.74 96.0866 49.64 96.0866 49.46C96.0866 49.32 96.0066 49.14 95.7666 48.88L94.4066 47.4C93.5466 48.22 92.1066 49.34 90.3666 50.24V44.12C90.5466 43.96 90.6666 43.8 90.6666 43.66C90.6666 43.48 90.4666 43.34 89.9666 43.34H87.9866V59.44ZM78.8466 50.1H83.7466V54.32C81.7866 55.14 80.1466 55.76 78.4666 56.2L79.3066 58.46C79.4266 58.74 79.5666 58.84 79.6866 58.84C79.9066 58.84 80.0866 58.54 80.1466 58.2C80.8466 57.96 82.5466 57.24 83.7466 56.7V61.22H86.0266V44.12C86.2266 43.96 86.3866 43.76 86.3866 43.62C86.3866 43.46 86.2266 43.34 85.7666 43.34H83.7466V48.16H78.8466V50.1ZM108.407 49.88V47.44H115.867V45.48H108.407V44.08C108.567 43.9 108.707 43.72 108.707 43.58C108.707 43.42 108.527 43.32 108.047 43.32H106.027V45.48H98.5666V47.44H106.027V49.88H99.7666V60.3H102.107V51.84H106.027V61.24H108.407V51.84H112.327V57.78C112.327 58.38 111.887 58.5 111.247 58.5C110.967 58.5 110.627 58.48 110.287 58.46C110.567 59.28 110.847 60.24 110.967 60.92C113.787 60.8 114.647 60.12 114.647 58.78V49.88H108.407ZM119.027 56.02H121.407V55H126.007V61.26H128.427V55H133.107V55.92H135.507V46.48H128.427V44.2C128.627 43.98 128.747 43.78 128.747 43.62C128.747 43.4 128.527 43.26 127.967 43.26H126.007V46.48H119.027V56.02ZM133.127 53.06H128.427V48.42H133.127V53.06ZM126.007 48.42V53.06H121.407V48.42H126.007ZM148.427 57.92V44.28C148.567 44.14 148.667 44 148.667 43.86C148.667 43.68 148.487 43.56 147.927 43.54H146.047V57.92H141.887V47.2C142.047 47 142.147 46.82 142.147 46.68C142.147 46.5 141.987 46.4 141.627 46.38H139.547V61.06H141.887V59.9H152.607V60.96H154.927V47.18C155.047 47 155.127 46.86 155.127 46.74C155.127 46.56 154.947 46.48 154.467 46.46H152.607V57.92H148.427ZM170.227 49.72H166.467V48.22H170.227V49.72ZM164.227 51.5H172.467V46.44H164.227V51.5ZM168.827 57.58H174.987V52.48H168.827V57.58ZM173.007 55.88H170.827V54.2H173.007V55.88ZM166.087 55.88H164.147V54.2H166.087V55.88ZM162.167 57.58H168.067V52.48H162.167V57.58ZM158.607 43.58V61.2H160.927V60.32H176.007V58.38H160.927V45.54H175.847V43.58H158.607ZM189.627 52.64C189.867 52.04 190.047 51.64 190.307 51.06C190.547 50.96 190.747 50.82 190.747 50.68C190.747 50.46 190.427 50.4 189.847 50.28H192.727V58.08C192.727 58.92 192.327 58.94 190.847 58.98C191.227 59.62 191.547 60.56 191.807 61.36C194.427 61.18 195.047 60.48 195.047 58.58V48.32H188.427V46.76H195.867V44.8H188.427V44.1C188.647 43.98 188.807 43.8 188.807 43.66C188.807 43.48 188.587 43.34 188.087 43.34L186.047 43.26V44.8H178.667V46.76H186.047V48.32H179.327V61.24H181.627V50.28H184.527L183.667 50.58C184.007 51.1 184.387 51.94 184.567 52.64H183.127V54.48H186.067V55.74H182.447V57.66H186.067V60.9H188.387V57.66H191.927V55.74H188.387V54.48H191.487V52.64H189.627ZM188.527 50.28C188.247 50.98 187.947 51.74 187.567 52.38L188.227 52.64H185.847L186.567 52.34C186.407 51.84 186.127 51.18 185.727 50.28H188.527ZM208.387 45V44C208.547 43.86 208.687 43.68 208.687 43.54C208.687 43.34 208.487 43.2 207.887 43.2H206.007V45H198.547V47H215.827V45H208.387ZM200.907 54.38H206.027V57.78C206.027 58.6 205.327 58.58 204.087 58.62C204.527 59.58 204.847 60.38 205.047 61.32C207.527 61.08 208.427 60.62 208.427 58.76V54.38H213.727V48.24H200.907V54.38ZM211.387 52.42H203.187V50.18H211.387V52.42ZM202.727 55.06C201.647 56.48 199.927 57.66 198.247 58.46C198.787 58.98 199.387 59.84 199.827 60.4C201.327 59.64 203.007 58.34 204.087 56.92C204.487 56.9 204.747 56.76 204.747 56.54C204.747 56.38 204.607 56.2 204.227 55.98L202.727 55.06ZM209.927 56.46C211.127 57.86 212.927 59.44 214.727 60.58C215.107 59.88 215.647 58.94 216.107 58.34C214.647 57.54 212.687 56.18 211.447 55.04L209.927 56.46ZM228.407 44.62V43.9C228.607 43.76 228.747 43.6 228.747 43.44C228.747 43.28 228.547 43.14 227.987 43.14H226.027V44.62H218.527V46.58H226.027V47.5H220.367V54.82H224.707C223.127 56.58 220.167 58.12 218.167 58.6C218.747 59.38 219.187 60.08 219.567 60.88C221.827 60.02 224.327 58.5 226.027 56.6V61.22H228.407V56.54C230.527 58.46 232.847 59.86 234.827 60.68C235.347 59.84 235.727 59.18 236.307 58.3C234.127 57.68 231.327 56.34 229.527 54.82H234.007V47.5H228.407V46.58H235.927V44.62H228.407ZM226.027 50.22H222.707V49.34H226.027V50.22ZM231.627 50.22H228.407V49.34H231.627V50.22ZM231.627 52.98H228.407V52.06H231.627V52.98ZM226.027 52.98H222.707V52.06H226.027V52.98ZM250.367 44.42L250.527 44.18C250.847 44.06 251.067 43.88 251.067 43.74C251.067 43.62 250.907 43.52 250.527 43.46L248.507 43.18C247.967 45.1 247.147 46.78 245.827 48.02V43.6H239.047V50.5H241.607V57.98C241.267 58.06 241.067 58.08 240.847 58.08V52.48C241.047 52.32 241.147 52.14 241.147 51.98C241.147 51.82 241.007 51.68 240.667 51.68H238.807V58.38C238.547 58.4 238.427 58.42 238.147 58.46L238.847 60.94C238.947 61.3 239.087 61.46 239.227 61.46C239.407 61.46 239.607 61.2 239.767 60.78C241.587 60.34 243.767 59.78 246.327 59.1V57.02C245.487 57.24 244.527 57.46 243.727 57.56V54.48H246.307V52.92L246.927 53.84C246.967 53.82 247.167 53.78 247.167 53.76V61.24H249.507V60.32H253.107V61.16H255.447V53.52H255.327C255.767 52.88 256.407 52.18 256.867 51.7C255.527 51.26 254.147 50.58 253.107 49.8C254.087 48.68 255.027 47.04 255.647 45.06L254.807 44.42H250.367ZM243.727 52.54V50.52H245.827V48.58C246.287 48.94 246.787 49.4 247.247 49.94C247.787 49.48 248.247 48.94 248.607 48.44C249.027 49.1 249.367 49.54 249.707 49.92C248.627 50.78 247.007 51.56 245.387 51.86C245.627 52.08 245.827 52.32 246.007 52.54H243.727ZM252.427 46.38C252.207 46.96 251.907 47.54 251.327 48.28C250.627 47.56 250.107 46.86 249.847 46.38H252.427ZM253.067 58.38H249.487V55.48H253.067V58.38ZM243.727 48.56H241.147V45.56H243.727V48.56ZM247.827 53.52C249.027 53.08 250.307 52.36 251.327 51.48C252.227 52.26 253.407 52.98 254.567 53.52H247.827ZM258.527 53.18H275.907V51.12H258.527V53.18ZM286.327 51.26V53.2H287.187C287.467 54.78 288.087 56.1 288.827 57.1C287.627 58.06 286.047 58.82 284.367 59.26C284.947 59.86 285.707 60.76 286.227 61.48C287.947 60.86 289.527 59.94 290.587 59C291.567 59.92 292.947 60.78 294.467 61.36C294.867 60.72 295.687 59.64 296.247 59.04C294.687 58.58 293.247 57.94 292.327 57.22C293.607 55.56 294.427 53.82 294.927 51.82L294.307 51.26H286.327ZM291.807 53.2C291.507 54.04 291.047 54.8 290.547 55.42C290.127 54.88 289.787 54.18 289.527 53.2H291.807ZM287.207 43.6V46.08C287.187 47.78 286.607 48.9 285.667 49.78C286.167 50.04 287.127 50.54 287.727 50.82C289.167 49.48 289.447 48.12 289.447 45.56H290.507V49.2C290.507 49.98 290.847 50.26 293.307 50.26C295.027 50.26 295.807 49.74 296.447 47.08C295.527 46.82 294.927 46.56 294.127 46.14C294.007 47.5 293.807 47.88 293.387 47.88C292.947 47.88 292.787 47.76 292.787 47.38V43.6H287.207ZM279.527 55.68L278.027 55.84L278.507 58.04C278.607 58.4 278.727 58.54 278.867 58.54C279.047 58.54 279.247 58.28 279.347 57.98C279.407 57.98 279.467 57.98 279.527 57.96V61.18H281.867V57.62C283.127 57.42 284.887 57.1 286.087 56.86V54.68C284.927 54.92 283.447 55.18 281.867 55.38V53.2H285.507V51.26H281.867V49.28H285.507V47.32H281.867V46.08C283.227 45.78 284.427 45.4 285.587 45C285.707 45.02 285.807 45.02 285.907 45.02C286.267 45.02 286.487 44.94 286.487 44.78C286.487 44.66 286.347 44.48 286.007 44.28L284.327 42.98C283.267 43.5 282.247 43.96 281.127 44.22L279.527 43.86V55.68ZM299.167 60.2C305.247 60.48 307.967 56.26 307.967 51.02C307.967 47.4 306.267 44.64 302.967 44.64C299.887 44.64 297.927 47.18 297.927 50C297.927 52.82 299.767 54.6 302.107 54.6C303.367 54.6 304.307 54.14 304.947 53.42L305.007 53.44C304.567 55.74 303.127 57.56 300.627 57.82C299.687 57.9 299.547 57.92 299.167 57.88V60.2ZM302.867 46.74C304.287 46.74 304.967 48.34 304.967 50.36C304.967 50.94 304.927 51.24 304.807 51.46C304.487 52.04 303.807 52.6 302.907 52.6C301.707 52.6 300.867 51.52 300.867 49.74C300.867 48.02 301.667 46.74 302.867 46.74ZM322.752 44.08C322.852 43.86 322.932 43.68 322.932 43.52C322.932 43.32 322.772 43.2 322.192 43.2H320.352V46.58H316.812V53.54C316.812 56.44 316.312 58.64 315.572 59.84C316.412 60.24 316.992 60.64 317.852 61.12C318.432 59.8 319.152 57.98 319.152 53.68V51.28L320.552 51.18V52.38C320.552 53.18 320.852 53.58 324.292 53.58C326.672 53.58 327.232 53.54 327.672 51.48C327.212 51.32 326.372 50.94 325.812 50.6C325.632 51.68 325.172 51.7 324.192 51.7C323.012 51.7 322.892 51.4 322.872 50.92L324.872 50.7V48.98L322.872 49.16V48.48H325.212V49.7H327.552V46.58H322.752V45.82H326.472V44.08H322.752ZM320.552 48.48V49.36L319.152 49.42V48.48H320.552ZM314.012 47.4H312.272V45.56H314.012V47.4ZM310.172 43.6V49.38H316.072V43.6H310.172ZM309.692 52.24H310.972C310.732 53.78 310.392 55.14 310.092 56.12H312.272L312.412 55.58H313.772C313.772 58.24 313.412 58.74 312.232 58.74C311.932 58.74 311.552 58.7 311.112 58.66C311.492 59.74 311.632 60.34 311.692 60.94C315.152 60.98 316.072 60.78 316.032 53.6H312.832L313.072 52.24H316.432V50.28H309.692V52.24ZM319.932 54.16C319.972 54.58 319.992 54.98 319.992 55.36C319.992 57.72 319.312 59.22 318.492 60.16C318.772 60.32 319.932 60.96 320.572 61.38C321.472 60.26 321.992 58.3 322.092 56.02H322.952V59.9C322.952 60.72 323.552 61.12 325.012 61.12C327.012 61.12 327.372 60.68 327.772 58.78C327.292 58.56 326.532 58.12 325.872 57.7C325.832 58.78 325.552 59.26 325.312 59.26C325.172 59.26 325.032 59.04 325.032 58.62V54.1L319.932 54.16Z" fill="#45576D"/>
</svg>
