<svg width="352" height="47" viewBox="0 0 352 47" fill="none" xmlns="http://www.w3.org/2000/svg">
<path d="M100.501 28.6377C100.192 28.0687 99.7279 27.5553 99.1094 27.0977C98.4909 26.64 97.792 26.2751 97.0127 26.0029C96.2458 25.7184 95.4417 25.5081 94.6006 25.3721C92.1019 25.001 89.7702 24.1908 87.6055 22.9414C87.4199 22.8424 87.222 22.6322 87.0117 22.3105C86.8014 21.9889 86.6963 21.6797 86.6963 21.3828C86.6963 20.2943 86.8757 19.2057 87.2344 18.1172C87.6055 17.0163 88.0755 16.1566 88.6445 15.5381C89.5599 14.5114 91.2051 13.6146 93.5801 12.8477C95.9674 12.0807 98.6517 11.6973 101.633 11.6973C103.414 11.6973 104.787 11.8333 105.752 12.1055C106.729 12.3776 107.218 12.7982 107.218 13.3672C107.218 14.2949 107.088 15.0124 106.828 15.5195C106.581 16.0267 106.309 16.3669 106.012 16.54C105.727 16.7008 105.22 16.9235 104.49 17.208C103.711 17.4801 103.031 17.7646 102.449 18.0615C101.88 18.3584 101.392 18.6429 100.983 18.915C100.575 19.1872 100.322 19.3232 100.223 19.3232C100.099 19.3232 100.037 19.2738 100.037 19.1748C100.037 18.9645 100.254 18.6491 100.687 18.2285C101.132 17.7956 101.676 17.4183 102.319 17.0967C103 16.738 103.34 16.5091 103.34 16.4102C103.34 16.2493 102.963 16.1689 102.208 16.1689C99.9196 16.1689 97.8044 16.373 95.8623 16.7812C93.9202 17.1895 92.3864 17.7275 91.2607 18.3955C90.1475 19.0635 89.5908 19.7438 89.5908 20.4365C89.5908 20.8695 89.8197 21.1787 90.2773 21.3643C90.7474 21.5374 91.7741 21.8343 93.3574 22.2549C94.9408 22.6755 96.3571 23.1579 97.6064 23.7021C99.4001 24.4691 100.73 25.2669 101.596 26.0957C102.462 26.9245 102.895 27.8522 102.895 28.8789C102.895 29.584 102.721 30.2952 102.375 31.0127C102.041 31.7178 101.546 32.3672 100.891 32.9609C100.235 33.5547 99.4805 34.0433 98.627 34.4268C97.8971 34.736 96.9756 35.0267 95.8623 35.2988C94.7614 35.571 93.5615 35.7812 92.2627 35.9297C90.9762 36.0905 89.7454 36.1709 88.5703 36.1709C86.4056 36.1709 84.6615 35.9668 83.3379 35.5586C82.0267 35.1504 81.3711 34.5319 81.3711 33.7031C81.3711 33.332 81.5938 32.7568 82.0391 31.9775C82.4844 31.1859 83.0101 30.654 83.6162 30.3818C84.1481 30.1715 84.6615 30.054 85.1562 30.0293C85.651 29.9922 85.8984 30.0479 85.8984 30.1963C85.8984 30.2334 85.8799 30.2705 85.8428 30.3076C85.8057 30.3447 85.7624 30.3757 85.7129 30.4004C85.6634 30.4251 85.6139 30.4499 85.5645 30.4746C85.3171 30.5736 85.113 30.654 84.9521 30.7158C84.8037 30.7653 84.68 30.821 84.5811 30.8828C84.4945 30.9323 84.4512 31.0065 84.4512 31.1055C84.4512 31.3652 85.7314 31.4951 88.292 31.4951C90.5186 31.4951 92.3431 31.4147 93.7656 31.2539C95.1882 31.0931 96.4437 30.8024 97.5322 30.3818C98.6208 29.9613 99.6104 29.3799 100.501 28.6377ZM108.034 24.834C109.914 23.127 111.739 21.859 113.508 21.0303C115.277 20.2015 116.644 19.7871 117.608 19.7871C117.868 19.7871 118.109 19.8984 118.332 20.1211C118.555 20.3314 118.728 20.5788 118.852 20.8633C118.988 21.1478 119.056 21.3581 119.056 21.4941C119.056 21.7168 118.969 21.8838 118.796 21.9951C118.623 22.0941 118.32 22.2178 117.887 22.3662C117.973 22.5641 118.085 22.8177 118.221 23.127C118.357 23.4362 118.462 23.6898 118.536 23.8877C118.61 24.0732 118.647 24.2402 118.647 24.3887C118.647 24.6855 118.344 25.2422 117.738 26.0586C117.145 26.8626 116.724 27.4564 116.477 27.8398C116.242 28.2233 116.124 28.6934 116.124 29.25C116.124 30.1654 116.545 30.623 117.386 30.623C118.252 30.623 119.606 29.8128 121.449 28.1924V29.3242C118.32 32.8001 116.081 34.5381 114.732 34.5381C114.25 34.5381 113.904 34.3773 113.693 34.0557C113.495 33.7464 113.396 33.2826 113.396 32.6641C113.396 31.6868 113.749 30.2705 114.454 28.415C112.648 30.4189 111.306 31.8477 110.428 32.7012C109.549 33.5423 108.826 33.9629 108.257 33.9629C107.985 33.9629 107.645 33.7279 107.236 33.2578C106.828 32.7878 106.463 32.1816 106.142 31.4395C105.832 30.6849 105.678 29.9056 105.678 29.1016C105.678 28.5202 105.733 28.0378 105.845 27.6543C105.956 27.2585 106.173 26.8564 106.494 26.4482C106.816 26.04 107.329 25.502 108.034 24.834ZM116.922 22.793C113.706 24.265 111.411 25.5143 110.038 26.541C108.677 27.5677 107.997 28.6253 107.997 29.7139C107.997 30.1097 108.065 30.4375 108.201 30.6973C108.337 30.9447 108.523 31.0684 108.758 31.0684C108.894 31.0684 109.135 30.9818 109.481 30.8086C110.78 30.0417 111.968 29.0459 113.044 27.8213C114.12 26.5843 115.413 24.9082 116.922 22.793ZM123.731 28.1924L123.397 29.751C123.348 29.9489 123.323 30.1715 123.323 30.4189C123.323 31.0869 123.602 31.4209 124.158 31.4209C124.69 31.4209 125.983 30.3818 128.036 28.3037C128.049 27.4997 128.345 26.5719 128.927 25.5205C129.521 24.4691 130.17 23.5475 130.875 22.7559C131.592 21.9642 132.124 21.5684 132.471 21.5684C133.015 21.5684 133.287 21.9271 133.287 22.6445C133.287 23.0775 133.182 23.6094 132.972 24.2402C132.761 24.8587 132.452 25.5329 132.044 26.2627C131.636 26.9801 131.135 27.7223 130.541 28.4893C130.85 29.0459 131.166 29.3242 131.487 29.3242C131.759 29.3242 132.056 29.2314 132.378 29.0459C132.712 28.848 133.126 28.5511 133.621 28.1553V29.3984C132.928 29.9427 132.378 30.3138 131.97 30.5117C131.574 30.7096 131.061 30.8086 130.43 30.8086C130.182 30.8086 129.737 30.6416 129.094 30.3076C127.832 31.6436 126.805 32.6455 126.014 33.3135C125.222 33.9691 124.579 34.2969 124.084 34.2969C123.23 34.2969 122.501 33.7897 121.895 32.7754C121.301 31.7487 121.004 30.623 121.004 29.3984C121.004 27.7533 121.932 25.7803 123.787 23.4795C124.344 22.7868 124.789 22.3167 125.123 22.0693C125.469 21.8096 125.859 21.6797 126.292 21.6797C126.663 21.6797 127.016 21.7477 127.35 21.8838C127.684 22.0199 127.851 22.1807 127.851 22.3662C127.851 22.9847 127.436 23.8939 126.607 25.0938C125.779 26.2812 124.82 27.3141 123.731 28.1924ZM136.553 28.8232V29.2871C136.553 30.0169 136.732 30.5859 137.091 30.9941C137.45 31.4023 137.92 31.6064 138.501 31.6064C139.107 31.6064 139.732 31.4642 140.375 31.1797C141.031 30.8952 141.68 30.5179 142.323 30.0479C142.966 29.5778 143.752 28.9469 144.68 28.1553V29.2871C143.282 30.9694 141.971 32.262 140.746 33.165C139.521 34.0557 138.278 34.501 137.017 34.501C135.916 34.501 135.044 34.0742 134.4 33.2207C133.757 32.3672 133.436 31.1982 133.436 29.7139C133.436 28.415 133.739 27.2399 134.345 26.1885C134.951 25.1247 135.94 24.0052 137.313 22.8301C138.254 22.026 139.188 21.4199 140.115 21.0117C141.043 20.6035 141.872 20.3994 142.602 20.3994C143.183 20.3994 143.641 20.5355 143.975 20.8076C144.321 21.0674 144.494 21.4632 144.494 21.9951C144.494 22.7744 144.203 23.5537 143.622 24.333C143.041 25.0999 142.15 25.8669 140.95 26.6338C139.763 27.3883 138.297 28.1182 136.553 28.8232ZM136.738 27.6172C137.852 27.1842 138.804 26.6462 139.596 26.0029C140.387 25.3597 140.969 24.7474 141.34 24.166C141.723 23.5723 141.915 23.1393 141.915 22.8672C141.915 22.5827 141.785 22.4404 141.525 22.4404C141.303 22.4404 140.938 22.5827 140.431 22.8672C139.936 23.1517 139.429 23.5228 138.909 23.9805C138.402 24.4382 137.944 24.9762 137.536 25.5947C137.128 26.2132 136.862 26.8874 136.738 27.6172ZM167.817 30.3076L168.43 30.7715C168.269 31.1178 168.114 31.4209 167.966 31.6807C167.817 31.9404 167.638 32.2559 167.428 32.627C167.217 32.998 167.057 33.2764 166.945 33.4619C166.018 35.0824 165.146 35.8926 164.329 35.8926C163.983 35.8926 163.686 35.7565 163.438 35.4844C163.191 35.2122 163.067 34.8411 163.067 34.3711C163.067 33.7031 163.302 32.7878 163.772 31.625C164.255 30.4622 164.991 29.0335 165.98 27.3389C166.982 25.6318 168.238 23.7021 169.747 21.5498C171.256 19.3975 172.957 17.1276 174.85 14.7402C173.761 14.5794 172.468 14.499 170.972 14.499C169.252 14.499 167.335 14.6908 165.22 15.0742C163.117 15.4577 161.28 15.903 159.709 16.4102C158.15 16.9049 157.371 17.2699 157.371 17.5049C157.371 17.5915 157.402 17.6533 157.464 17.6904C157.526 17.7152 157.625 17.7399 157.761 17.7646C157.909 17.777 158.095 17.7956 158.317 17.8203C159.765 18.0182 160.488 18.2409 160.488 18.4883C160.488 18.612 160.173 18.6738 159.542 18.6738C158.911 18.6615 158.15 18.6553 157.26 18.6553C156.555 18.6553 156.041 18.6305 155.72 18.5811C155.41 18.5192 155.2 18.4141 155.089 18.2656C154.99 18.1048 154.94 17.8636 154.94 17.542C154.94 17.3317 155.002 16.874 155.126 16.1689C155.361 14.8577 155.72 13.8063 156.202 13.0146C156.697 12.223 157.445 11.5798 158.447 11.085C159.462 10.5778 160.853 10.1758 162.622 9.87891C165.591 9.37174 168.046 9.11816 169.988 9.11816C171.423 9.11816 172.555 9.18001 173.384 9.30371C174.213 9.41504 174.819 9.58203 175.202 9.80469C175.598 10.0273 175.845 10.25 175.944 10.4727C176.056 10.6829 176.198 11.054 176.371 11.5859L176.946 13.293C176.983 13.4043 177.014 13.4971 177.039 13.5713C177.064 13.6331 177.082 13.7012 177.095 13.7754C177.119 13.8496 177.132 13.9176 177.132 13.9795C177.132 14.4619 177.021 14.8949 176.798 15.2783C176.588 15.6618 176.192 16.237 175.61 17.0039C175.041 17.7708 174.621 18.3708 174.349 18.8037C171.157 23.9867 168.98 27.8213 167.817 30.3076ZM188.098 28.1553V29.3242C187.021 30.4251 186.088 31.3281 185.296 32.0332C184.517 32.7259 183.83 33.2516 183.236 33.6104C182.655 33.9691 182.16 34.1484 181.752 34.1484C180.787 34.1484 180.305 33.5794 180.305 32.4414C180.305 31.526 180.602 30.4684 181.195 29.2686C181.801 28.0563 182.667 26.6338 183.793 25.001C183.236 25.3102 182.711 25.6689 182.216 26.0771C181.721 26.473 181.282 26.8936 180.898 27.3389C180.515 27.7718 180.193 28.1429 179.934 28.4521C179.13 29.3551 178.356 30.2829 177.614 31.2354C176.872 32.1755 176.371 32.7878 176.111 33.0723C175.852 33.3568 175.604 33.499 175.369 33.499C174.404 33.499 173.922 32.3115 173.922 29.9365C173.922 29.1572 174.039 28.2975 174.274 27.3574C174.509 26.4173 175.14 25.1742 176.167 23.6279C178.332 20.387 180.181 17.7399 181.715 15.6865C183.261 13.6208 184.541 12.0622 185.556 11.0107C186.57 9.94694 187.25 9.42741 187.597 9.45215C188.03 9.48926 188.376 9.57585 188.636 9.71191C188.908 9.84798 189.044 10.0026 189.044 10.1758C189.044 10.485 188.827 10.9984 188.395 11.7158C187.974 12.4209 187.244 13.528 186.205 15.0371C185.079 16.6328 184.282 17.7585 183.812 18.4141C183.341 19.0573 182.636 19.9788 181.696 21.1787C180.769 22.3662 179.915 23.43 179.136 24.3701C178.369 25.2979 177.491 26.306 176.501 27.3945V29.6211C178.159 27.778 179.593 26.2689 180.806 25.0938C182.018 23.9186 183.045 23.0342 183.886 22.4404C184.727 21.8343 185.345 21.5312 185.741 21.5312C186.112 21.5312 186.459 21.7539 186.78 22.1992C187.102 22.6322 187.263 22.9909 187.263 23.2754C187.263 23.3991 187.201 23.5537 187.077 23.7393C186.187 24.8031 185.475 25.6875 184.943 26.3926C184.424 27.0853 184.022 27.71 183.737 28.2666C183.453 28.8109 183.311 29.2809 183.311 29.6768C183.311 30.2581 183.589 30.5488 184.146 30.5488C184.739 30.5488 186.057 29.751 188.098 28.1553ZM191.066 28.8232V29.2871C191.066 30.0169 191.246 30.5859 191.604 30.9941C191.963 31.4023 192.433 31.6064 193.015 31.6064C193.621 31.6064 194.245 31.4642 194.889 31.1797C195.544 30.8952 196.194 30.5179 196.837 30.0479C197.48 29.5778 198.266 28.9469 199.193 28.1553V29.2871C197.796 30.9694 196.484 32.262 195.26 33.165C194.035 34.0557 192.792 34.501 191.53 34.501C190.429 34.501 189.557 34.0742 188.914 33.2207C188.271 32.3672 187.949 31.1982 187.949 29.7139C187.949 28.415 188.252 27.2399 188.858 26.1885C189.465 25.1247 190.454 24.0052 191.827 22.8301C192.767 22.026 193.701 21.4199 194.629 21.0117C195.557 20.6035 196.385 20.3994 197.115 20.3994C197.697 20.3994 198.154 20.5355 198.488 20.8076C198.835 21.0674 199.008 21.4632 199.008 21.9951C199.008 22.7744 198.717 23.5537 198.136 24.333C197.554 25.0999 196.664 25.8669 195.464 26.6338C194.276 27.3883 192.811 28.1182 191.066 28.8232ZM191.252 27.6172C192.365 27.1842 193.318 26.6462 194.109 26.0029C194.901 25.3597 195.482 24.7474 195.854 24.166C196.237 23.5723 196.429 23.1393 196.429 22.8672C196.429 22.5827 196.299 22.4404 196.039 22.4404C195.816 22.4404 195.451 22.5827 194.944 22.8672C194.45 23.1517 193.942 23.5228 193.423 23.9805C192.916 24.4382 192.458 24.9762 192.05 25.5947C191.642 26.2132 191.376 26.8874 191.252 27.6172ZM211.551 17.6904C211.551 17.777 211.631 17.8203 211.792 17.8203C211.903 17.8203 212.404 17.7461 213.295 17.5977C214.198 17.4492 215.014 17.3688 215.744 17.3564C214.928 17.5791 214.223 17.8079 213.629 18.043C213.048 18.2656 212.441 18.5192 211.811 18.8037C211.192 19.0758 210.747 19.2614 210.475 19.3604C210.202 19.4469 209.967 19.4902 209.77 19.4902C209.139 19.4902 208.823 19.082 208.823 18.2656C208.823 16.1628 209.355 14.6846 210.419 13.8311C210.852 13.4847 211.545 13.0765 212.497 12.6064C213.462 12.124 214.544 11.6725 215.744 11.252C216.956 10.819 218.286 10.4479 219.733 10.1387C221.181 9.82943 222.609 9.6748 224.02 9.6748C225.467 9.6748 226.797 9.88509 228.009 10.3057C229.221 10.7262 230.235 11.32 231.052 12.0869C231.868 12.8415 232.493 13.7692 232.926 14.8701C233.371 15.971 233.594 17.208 233.594 18.5811C233.594 20.6715 232.988 22.7002 231.775 24.667C230.576 26.6338 228.967 28.3717 226.951 29.8809C224.947 31.3776 222.684 32.5651 220.16 33.4434C217.637 34.3216 215.15 34.7607 212.701 34.7607C212.243 34.7607 211.879 34.7113 211.606 34.6123C211.347 34.5133 211.161 34.3154 211.05 34.0186C210.938 33.734 210.883 33.3073 210.883 32.7383C210.883 32.0332 210.938 31.458 211.05 31.0127C211.161 30.5674 211.347 30.054 211.606 29.4727C213.388 25.5267 216.486 20.5602 220.902 14.5732C220.012 14.6722 219.035 14.8639 217.971 15.1484C216.907 15.4206 215.899 15.7236 214.946 16.0576C213.994 16.3916 213.19 16.7132 212.534 17.0225C211.879 17.3317 211.551 17.5544 211.551 17.6904ZM221.44 14.4619C221.44 14.4867 221.465 14.6289 221.515 14.8887C221.564 15.1361 221.589 15.3525 221.589 15.5381C221.589 15.8226 221.44 16.2246 221.144 16.7441C220.859 17.2513 220.29 18.1605 219.437 19.4717C218.583 20.7829 217.853 21.9333 217.247 22.9229C216.641 23.9124 215.924 25.1865 215.095 26.7451C214.835 27.2399 214.656 27.5739 214.557 27.7471C214.458 27.9202 214.297 28.2048 214.074 28.6006C213.864 28.9964 213.709 29.3366 213.61 29.6211C213.511 29.9056 213.462 30.1221 213.462 30.2705C213.462 30.5921 213.635 30.821 213.981 30.957C214.34 31.0807 214.847 31.1426 215.503 31.1426C217.185 31.1426 218.966 30.8395 220.847 30.2334C222.727 29.6149 224.49 28.7614 226.135 27.6729C227.792 26.5843 229.116 25.3535 230.105 23.9805C231.095 22.6074 231.59 21.1725 231.59 19.6758C231.59 17.9688 230.965 16.6576 229.716 15.7422C228.466 14.8145 226.648 14.3506 224.261 14.3506C223.259 14.3506 222.319 14.3877 221.44 14.4619ZM236.618 24.834C238.498 23.127 240.323 21.859 242.092 21.0303C243.861 20.2015 245.228 19.7871 246.192 19.7871C246.452 19.7871 246.693 19.8984 246.916 20.1211C247.139 20.3314 247.312 20.5788 247.436 20.8633C247.572 21.1478 247.64 21.3581 247.64 21.4941C247.64 21.7168 247.553 21.8838 247.38 21.9951C247.207 22.0941 246.904 22.2178 246.471 22.3662C246.557 22.5641 246.669 22.8177 246.805 23.127C246.941 23.4362 247.046 23.6898 247.12 23.8877C247.194 24.0732 247.231 24.2402 247.231 24.3887C247.231 24.6855 246.928 25.2422 246.322 26.0586C245.729 26.8626 245.308 27.4564 245.061 27.8398C244.826 28.2233 244.708 28.6934 244.708 29.25C244.708 30.1654 245.129 30.623 245.97 30.623C246.836 30.623 248.19 29.8128 250.033 28.1924V29.3242C246.904 32.8001 244.665 34.5381 243.316 34.5381C242.834 34.5381 242.488 34.3773 242.277 34.0557C242.079 33.7464 241.98 33.2826 241.98 32.6641C241.98 31.6868 242.333 30.2705 243.038 28.415C241.232 30.4189 239.89 31.8477 239.012 32.7012C238.133 33.5423 237.41 33.9629 236.841 33.9629C236.569 33.9629 236.229 33.7279 235.82 33.2578C235.412 32.7878 235.047 32.1816 234.726 31.4395C234.416 30.6849 234.262 29.9056 234.262 29.1016C234.262 28.5202 234.317 28.0378 234.429 27.6543C234.54 27.2585 234.757 26.8564 235.078 26.4482C235.4 26.04 235.913 25.502 236.618 24.834ZM245.506 22.793C242.29 24.265 239.995 25.5143 238.622 26.541C237.261 27.5677 236.581 28.6253 236.581 29.7139C236.581 30.1097 236.649 30.4375 236.785 30.6973C236.921 30.9447 237.107 31.0684 237.342 31.0684C237.478 31.0684 237.719 30.9818 238.065 30.8086C239.364 30.0417 240.552 29.0459 241.628 27.8213C242.704 26.5843 243.997 24.9082 245.506 22.793ZM256.397 18.5254H257.195C257.851 17.3503 258.445 16.5215 258.977 16.0391C259.508 15.5443 260.115 15.2969 260.795 15.2969C261.475 15.2969 261.815 15.4515 261.815 15.7607C261.815 15.9092 261.549 16.3112 261.018 16.9668C260.486 17.6224 260.084 18.1729 259.812 18.6182C260.232 18.6676 260.603 18.7109 260.925 18.748C261.259 18.7852 261.519 18.8161 261.704 18.8408C260.999 20.152 260.115 21.4941 259.051 22.8672C258.704 22.8424 258.414 22.8239 258.179 22.8115C257.944 22.7868 257.702 22.7682 257.455 22.7559C257.22 22.7311 256.929 22.7064 256.583 22.6816C255.915 23.7578 255.352 24.7227 254.895 25.5762C254.449 26.4173 254.103 27.1904 253.855 27.8955C253.62 28.6006 253.503 29.2686 253.503 29.8994C253.503 30.7529 253.843 31.1797 254.523 31.1797C254.993 31.1797 255.606 30.9323 256.36 30.4375C257.127 29.9303 258.148 29.1572 259.422 28.1182V29.3613C256.082 32.9857 253.614 34.7979 252.019 34.7979C251.462 34.7979 251.01 34.5814 250.664 34.1484C250.33 33.7155 250.163 33.1589 250.163 32.4785C250.163 32.0208 250.256 31.4766 250.441 30.8457C250.639 30.2148 250.986 29.2624 251.48 27.9883C251.307 28.1367 251.14 28.2852 250.979 28.4336C250.831 28.5697 250.689 28.6995 250.553 28.8232C250.429 28.9346 250.293 29.0583 250.145 29.1943C249.996 29.318 249.848 29.4479 249.699 29.584V28.3037C250.998 27.2152 252.569 25.304 254.412 22.5703C254.227 22.5579 254.053 22.5518 253.893 22.5518C253.732 22.5394 253.54 22.5332 253.317 22.5332C252.588 22.5332 252.043 22.5827 251.685 22.6816C251.536 22.7188 251.394 22.762 251.258 22.8115C251.134 22.8486 251.048 22.8672 250.998 22.8672C250.949 22.8672 250.924 22.8301 250.924 22.7559C250.924 22.3477 251.177 21.7354 251.685 20.9189C252.093 20.2262 252.476 19.7129 252.835 19.3789C253.206 19.0449 253.651 18.8223 254.171 18.7109C254.703 18.5872 255.445 18.5254 256.397 18.5254ZM262.354 28.8232V29.2871C262.354 30.0169 262.533 30.5859 262.892 30.9941C263.25 31.4023 263.72 31.6064 264.302 31.6064C264.908 31.6064 265.533 31.4642 266.176 31.1797C266.831 30.8952 267.481 30.5179 268.124 30.0479C268.767 29.5778 269.553 28.9469 270.48 28.1553V29.2871C269.083 30.9694 267.771 32.262 266.547 33.165C265.322 34.0557 264.079 34.501 262.817 34.501C261.716 34.501 260.844 34.0742 260.201 33.2207C259.558 32.3672 259.236 31.1982 259.236 29.7139C259.236 28.415 259.539 27.2399 260.146 26.1885C260.752 25.1247 261.741 24.0052 263.114 22.8301C264.054 22.026 264.988 21.4199 265.916 21.0117C266.844 20.6035 267.673 20.3994 268.402 20.3994C268.984 20.3994 269.441 20.5355 269.775 20.8076C270.122 21.0674 270.295 21.4632 270.295 21.9951C270.295 22.7744 270.004 23.5537 269.423 24.333C268.841 25.0999 267.951 25.8669 266.751 26.6338C265.563 27.3883 264.098 28.1182 262.354 28.8232ZM262.539 27.6172C263.652 27.1842 264.605 26.6462 265.396 26.0029C266.188 25.3597 266.77 24.7474 267.141 24.166C267.524 23.5723 267.716 23.1393 267.716 22.8672C267.716 22.5827 267.586 22.4404 267.326 22.4404C267.104 22.4404 266.739 22.5827 266.231 22.8672C265.737 23.1517 265.229 23.5228 264.71 23.9805C264.203 24.4382 263.745 24.9762 263.337 25.5947C262.929 26.2132 262.663 26.8874 262.539 27.6172Z" fill="#C66082"/>
<line y1="23" x2="65" y2="23" stroke="#C66082" stroke-width="2"/>
<line x1="287" y1="23" x2="352" y2="23" stroke="#C66082" stroke-width="2"/>
</svg>
